<svg id="Layer_1" data-name="Layer 1" xmlns="http://www.w3.org/2000/svg" xmlns:xlink="http://www.w3.org/1999/xlink" viewBox="0 0 1305.01 1232.92"><defs><clipPath id="clip-path" transform="translate(-528.67 -44.13)"><polygon points="1262.59 456.39 1515.02 310.65 1515.02 239.88 1262.59 390 1262.59 456.39" style="fill:none"/></clipPath><clipPath id="clip-path-2" transform="translate(-528.67 -44.13)"><polygon points="1505.71 314.08 1505.7 307.94 1511.04 304.85 1511.06 311 1505.71 314.08" style="fill:none"/></clipPath><clipPath id="clip-path-3" transform="translate(-528.67 -44.13)"><polygon points="1498.67 318.71 1498.65 312.56 1504 309.47 1504.02 315.62 1498.67 318.71" style="fill:none"/></clipPath><clipPath id="clip-path-4" transform="translate(-528.67 -44.13)"><polygon points="1491.13 323.23 1491.12 317.08 1496.46 313.99 1496.48 320.14 1491.13 323.23" style="fill:none"/></clipPath><clipPath id="clip-path-5" transform="translate(-528.67 -44.13)"><polygon points="1383.2 759.7 1207.14 657.38 1077.17 732.42 1253.23 834.73 1383.2 759.7" style="fill:none"/></clipPath><clipPath id="clip-path-6" transform="translate(-528.67 -44.13)"><polygon points="1328.43 802.81 1328.43 799.77 1318.48 805.52 1318.49 808.55 1328.43 802.81" style="fill:none"/></clipPath></defs><title>quote</title><polygon points="1305.01 890.44 1305.01 547.96 415.23 1061.68 711.83 1232.92 1305.01 890.44" style="fill:#0071bc"/><polygon points="1305.01 547.96 355.91 0 0 205.49 0 821.94 415.23 1061.68 1305.01 547.96" style="fill:#29abe2"/><path d="M1683,571.55,1538.1,487.92c-4.79-2.76-12.54-2.76-17.33,0L1270.4,632.47,1254,634.89v10c0,1.81,1.2,3.62,3.59,5l151,87.16c4.79,2.76,12.54,2.76,17.32,0l263.16-151.93c2.39-1.38,3.59-3.19,3.59-5v-10Z" transform="translate(-528.67 -44.13)" style="fill:#999"/><path d="M1520.77,478,1257.62,629.89c-4.79,2.76-4.79,7.24,0,10l151,87.16c4.79,2.76,12.54,2.76,17.32,0l263.16-151.94c4.78-2.76,4.78-7.23,0-10L1538.1,478C1533.31,475.19,1525.56,475.19,1520.77,478Z" transform="translate(-528.67 -44.13)" style="fill:#ccc"/><path d="M1529.43,473" transform="translate(-528.67 -44.13)" style="fill:#ccc"/><path d="M1520.81,290.71V458c0,5.52-3.88,12.24-8.66,15L1261.77,617.52l-10.28,13-8.63-5c-1.56-.9-2.53-2.84-2.53-5.6V445.58c0-5.52,3.88-12.23,8.66-15l263.16-151.93c2.39-1.38,4.55-1.51,6.12-.61l8.63,5Z" transform="translate(-528.67 -44.13)" style="fill:#999"/><path d="M1520.77,478,1257.62,629.89c-4.79,2.76-8.66.52-8.66-5V450.57c0-5.53,3.87-12.24,8.66-15l263.15-151.94c4.79-2.76,8.66-.52,8.66,5V463C1529.43,468.48,1525.56,475.19,1520.77,478Z" transform="translate(-528.67 -44.13)" style="fill:#b3b3b3"/><path d="M1529.43,473" transform="translate(-528.67 -44.13)" style="fill:#ccc"/><path d="M1271.25,441.39l235.11-135.74c4.78-2.76,8.66-.53,8.66,5V452.58c0,5.52-3.88,12.24-8.66,15L1271.25,603.32c-4.78,2.76-8.66.52-8.66-5V456.39C1262.59,450.87,1266.47,444.15,1271.25,441.39Z" transform="translate(-528.67 -44.13)" style="fill:#1a1a1a"/><path d="M1217.21,451.26,982.11,315.52c-4.79-2.76-8.66-.52-8.66,5V462.45c0,5.53,3.87,12.24,8.66,15l235.1,135.74c4.79,2.77,8.67.53,8.67-5V466.26C1225.88,460.74,1222,454,1217.21,451.26Z" transform="translate(-528.67 -44.13)" style="fill:#1a1a1a"/><g style="clip-path:url(#clip-path)"><path d="M1271.25,441.39l235.11-135.74c4.78-2.76,8.66-.53,8.66,5V452.58c0,5.52-3.88,12.24-8.66,15L1271.25,603.32c-4.78,2.76-8.66.52-8.66-5V456.39C1262.59,450.87,1266.47,444.15,1271.25,441.39Z" transform="translate(-528.67 -44.13)" style="fill:#333"/></g><path d="M1283.43,628.68l234.81-135.57c4.78-2.76,12.54-2.77,17.33,0l67.09,38.46c4.8,2.75,4.8,7.22,0,10L1367.57,677.26c-4.78,2.76-12.54,2.76-17.32,0l-66.82-38.58C1278.64,635.92,1278.64,631.44,1283.43,628.68Z" transform="translate(-528.67 -44.13)" style="fill:#e6e6e6"/><path d="M1459.67,633.27l66.82-38.58c4.78-2.76,12.54-2.76,17.32,0l38.77,22.39c4.79,2.76,4.79,7.24,0,10l-66.82,38.58c-4.78,2.76-12.54,2.76-17.32,0l-38.77-22.39C1454.88,640.51,1454.88,636,1459.67,633.27Z" transform="translate(-528.67 -44.13)" style="fill:#e6e6e6"/><g style="isolation:isolate"><g style="clip-path:url(#clip-path-2)"><path d="M1508.37,306.4a5.84,5.84,0,0,0-2.66,4.61c0,1.69,1.2,2.38,2.67,1.53a5.85,5.85,0,0,0,2.67-4.62c0-1.69-1.21-2.38-2.68-1.52" transform="translate(-528.67 -44.13)" style="fill:#8cc63f"/></g></g><g style="isolation:isolate"><g style="clip-path:url(#clip-path-3)"><path d="M1501.33,311a5.85,5.85,0,0,0-2.67,4.62c0,1.69,1.21,2.38,2.68,1.52a5.88,5.88,0,0,0,2.67-4.61c0-1.7-1.21-2.38-2.68-1.53" transform="translate(-528.67 -44.13)" style="fill:#fcee21"/></g></g><g style="isolation:isolate"><g style="clip-path:url(#clip-path-4)"><path d="M1493.79,315.53a5.87,5.87,0,0,0-2.66,4.62c0,1.7,1.2,2.39,2.68,1.53a5.89,5.89,0,0,0,2.66-4.61c0-1.7-1.2-2.39-2.68-1.54" transform="translate(-528.67 -44.13)" style="fill:#ed1c24"/></g></g><g id="Layer_2" data-name="Layer 2"><path d="M989.22,344l.2-2,1.51.87-.19,2-1.52-.88m3.33-4-1.28-.74-.22,2.23-1.51-.87.22-2.23-1.28-.74-.22,2.23-1.23-.71v1.39l1.11.64-.19,2-1.28-.74v1.38l1.15.67-.24,2.42,1.29.74.23-2.42,1.51.87-.24,2.42,1.29.74.23-2.42,1.24.72v-1.39l-1.13-.65.2-2,1.28.74V343l-1.17-.68.22-2.23" transform="translate(-528.67 -44.13)" style="fill:gray"/><path d="M998.47,345.64l-3.52-2V345l1.88,1.09,0,4.77-2.11-1.21v1.43l5.65,3.26V353l-1.91-1.1,0-6.21m-.91-3.81a1.08,1.08,0,0,0-.41-.15.51.51,0,0,0-.33.08.46.46,0,0,0-.22.25,1,1,0,0,0-.08.41,1.55,1.55,0,0,0,.07.52,2.25,2.25,0,0,0,.22.51,2.73,2.73,0,0,0,.33.45,2.18,2.18,0,0,0,.42.33,1.11,1.11,0,0,0,.41.14.58.58,0,0,0,.33-.06.6.6,0,0,0,.22-.25,1.1,1.1,0,0,0,.08-.43,1.92,1.92,0,0,0-.08-.51,2.53,2.53,0,0,0-.22-.51,2.36,2.36,0,0,0-.33-.45,1.61,1.61,0,0,0-.41-.33" transform="translate(-528.67 -44.13)" style="fill:gray"/><path d="M1005.56,349.58a3.19,3.19,0,0,0-.65-.29,1.82,1.82,0,0,0-.55-.06,1.23,1.23,0,0,0-.47.14,1.8,1.8,0,0,0-.43.29l0-1.16-1.39-.79,0,7.63,1.59.92,0-4.83a2.67,2.67,0,0,1,.78-.56.84.84,0,0,1,.78.06,1.82,1.82,0,0,1,.81,1.73l0,5,1.6.92v-5.12a4.52,4.52,0,0,0-.12-1.17,4.18,4.18,0,0,0-.38-1.06,3.89,3.89,0,0,0-.63-.91,3.53,3.53,0,0,0-.9-.71" transform="translate(-528.67 -44.13)" style="fill:gray"/><path d="M1012.86,353.84a3.73,3.73,0,0,0-1.44-.54,1.57,1.57,0,0,0-1.81,1,3.89,3.89,0,0,0-.25,1.52,6.45,6.45,0,0,0,.88,3.38,6.18,6.18,0,0,0,1.07,1.36,7,7,0,0,0,1.42,1.07,7.19,7.19,0,0,0,1,.51,6.08,6.08,0,0,0,1,.24v-1.64l-.42-.06-.46-.12-.46-.17a3.77,3.77,0,0,1-.45-.22,3.9,3.9,0,0,1-.78-.61,4.2,4.2,0,0,1-1.13-2.85,2.46,2.46,0,0,1,.14-.88,1,1,0,0,1,.37-.54.87.87,0,0,1,.59-.14,2.14,2.14,0,0,1,.8.28,7.41,7.41,0,0,1,.9.65,10.1,10.1,0,0,1,.87.86V355.2a7.87,7.87,0,0,0-.79-.66,12.37,12.37,0,0,0-1.09-.7" transform="translate(-528.67 -44.13)" style="fill:gray"/><polyline points="491.88 311.28 488.37 309.25 488.36 310.68 490.24 311.76 490.22 319.51 488.11 318.3 488.11 319.73 493.77 323 493.77 321.57 491.85 320.46 491.88 311.28" style="fill:gray"/><path d="M1029.66,363.65l-1.59-.92,0,4.84a2.65,2.65,0,0,1-.78.57.82.82,0,0,1-.77-.06,1.46,1.46,0,0,1-.62-.68,2.45,2.45,0,0,1-.19-1.06v-5l-1.6-.92v5.12a5.71,5.71,0,0,0,.13,1.19,4.32,4.32,0,0,0,.38,1.06,4,4,0,0,0,.64.91,3.81,3.81,0,0,0,.88.71,3,3,0,0,0,.66.29,1.53,1.53,0,0,0,.55,0,1.24,1.24,0,0,0,.47-.15,1.81,1.81,0,0,0,.42-.28l0,1.15,1.38.8,0-7.64" transform="translate(-528.67 -44.13)" style="fill:gray"/><path d="M1033.87,372.33a1.77,1.77,0,0,1-.49-.42,2.15,2.15,0,0,1-.36-.62,3.85,3.85,0,0,1-.22-.86,7.49,7.49,0,0,1-.08-1.13,3.9,3.9,0,0,1,.13-1,1.22,1.22,0,0,1,.34-.61.77.77,0,0,1,.53-.22,1.44,1.44,0,0,1,.69.23,6,6,0,0,1,.56.37,3.89,3.89,0,0,1,.46.41v3.33a2.46,2.46,0,0,1-.77.58.81.81,0,0,1-.78-.07m3.17-7.4-1.6-.92v3a4.41,4.41,0,0,0-.45-.35l-.5-.33a4.31,4.31,0,0,0-1.36-.54,1.63,1.63,0,0,0-1.09.12,1.7,1.7,0,0,0-.73.87,4.45,4.45,0,0,0-.25,1.67,9.4,9.4,0,0,0,.15,1.69,7.32,7.32,0,0,0,.47,1.48,4.81,4.81,0,0,0,.77,1.21,4,4,0,0,0,1,.88,3.37,3.37,0,0,0,.64.28,1.68,1.68,0,0,0,.54,0,1.43,1.43,0,0,0,.49-.13,2.26,2.26,0,0,0,.43-.28l0,1.15,1.37.79,0-10.61" transform="translate(-528.67 -44.13)" style="fill:gray"/><path d="M1040.24,372.74a1.29,1.29,0,0,1,.45-1c.26-.17.59-.12,1,.11a2.46,2.46,0,0,1,.92,1,2.93,2.93,0,0,1,.29.72,2.85,2.85,0,0,1,.09.84l-2.75-1.59m1.48-2.29a3.11,3.11,0,0,0-1.3-.45,1.42,1.42,0,0,0-1,.28,2,2,0,0,0-.63.94,4.75,4.75,0,0,0-.22,1.57,6.48,6.48,0,0,0,.21,1.78,6.55,6.55,0,0,0,.64,1.57,5.81,5.81,0,0,0,1,1.31,6.11,6.11,0,0,0,1.37,1c.2.12.4.22.61.33s.43.21.64.29l.62.23a5.57,5.57,0,0,0,.55.17v-1.46a6.63,6.63,0,0,1-1.14-.38,11.18,11.18,0,0,1-1-.5,4.36,4.36,0,0,1-.76-.58,3.84,3.84,0,0,1-.59-.74,3.66,3.66,0,0,1-.51-1.81l4.37,2.52,0-.55c0-.2,0-.36,0-.49a5.65,5.65,0,0,0-.19-1.47,5.57,5.57,0,0,0-.54-1.39,6.13,6.13,0,0,0-.92-1.24,5.38,5.38,0,0,0-1.24-1" transform="translate(-528.67 -44.13)" style="fill:gray"/><polyline points="529.05 335 524.63 336.72 529.03 343.53 530.05 342.93 526.81 337.96 530.06 336.78 529.05 335" style="fill:gray"/><path d="M1063.92,383.27a4.56,4.56,0,0,0-1.26-.54,1.69,1.69,0,0,0-.91,0,.89.89,0,0,0-.55.41,1.49,1.49,0,0,0-.18.77,3.39,3.39,0,0,0,.11.91,3.21,3.21,0,0,0,.36.83,5,5,0,0,0,.61.83,11.8,11.8,0,0,0,.87.85c.35.32.63.59.85.81a6.56,6.56,0,0,1,.5.55,1.85,1.85,0,0,1,.25.43l.06.35c0,.25-.1.38-.31.41a1.48,1.48,0,0,1-.94-.31,10.39,10.39,0,0,1-1.15-.79,12.47,12.47,0,0,1-1.22-1.13v1.65q.52.45,1.11.87t1.32.84a5.53,5.53,0,0,0,1.07.48,2.11,2.11,0,0,0,1,.13,1,1,0,0,0,.67-.36,1.63,1.63,0,0,0,.26-1,3.41,3.41,0,0,0-.11-.85,3.17,3.17,0,0,0-.34-.82,5.4,5.4,0,0,0-.63-.84,12.37,12.37,0,0,0-1-1c-.34-.31-.62-.57-.83-.79a4.15,4.15,0,0,1-.48-.54,1.3,1.3,0,0,1-.23-.4l-.06-.33c0-.25.1-.37.31-.4a1.41,1.41,0,0,1,.78.25,9.1,9.1,0,0,1,1,.67,9.84,9.84,0,0,1,1.07.91v-1.5c-.25-.2-.53-.42-.85-.65a9.9,9.9,0,0,0-1.12-.73" transform="translate(-528.67 -44.13)" style="fill:gray"/><path d="M1071.17,385.18l-1.63-.46v1.95l-1.78-1v1.43l1.79,1v3.73a5.61,5.61,0,0,0,.14,1.27,3.89,3.89,0,0,0,.46,1.09,4.54,4.54,0,0,0,.78.93,6.58,6.58,0,0,0,1.12.81,7.12,7.12,0,0,0,.83.41c.3.12.59.23.88.32V395.2l-.68-.22a4.72,4.72,0,0,1-.76-.36,2.24,2.24,0,0,1-.88-.84,2.35,2.35,0,0,1-.26-1.15V389l2.59,1.5v-1.43l-2.59-1.5v-2.43" transform="translate(-528.67 -44.13)" style="fill:gray"/><path d="M1078,397.82a1.58,1.58,0,0,1-.48-.42,2,2,0,0,1-.37-.62,4.3,4.3,0,0,1-.22-.86,7.55,7.55,0,0,1-.07-1.12,3.55,3.55,0,0,1,.12-1,1.36,1.36,0,0,1,.34-.61.84.84,0,0,1,.52-.22,1.48,1.48,0,0,1,.69.23,4.28,4.28,0,0,1,.57.37,4.05,4.05,0,0,1,.47.41v3.33a2.51,2.51,0,0,1-.79.58.8.8,0,0,1-.77-.07m3.18-7.39-1.6-.93v3c-.13-.11-.28-.23-.45-.35s-.33-.23-.5-.33a4.42,4.42,0,0,0-1.37-.54,1.68,1.68,0,0,0-1.08.12,1.6,1.6,0,0,0-.72.87,4.65,4.65,0,0,0-.27,1.67,9.4,9.4,0,0,0,.16,1.69,6.75,6.75,0,0,0,.48,1.48,5,5,0,0,0,.76,1.21,4.16,4.16,0,0,0,1,.88,2.82,2.82,0,0,0,.65.27,1.82,1.82,0,0,0,.55.06,1.08,1.08,0,0,0,.47-.15,1.58,1.58,0,0,0,.43-.28l0,1.16,1.39.8,0-10.61" transform="translate(-528.67 -44.13)" style="fill:gray"/><path d="M1086.77,396.62l-3.51-2V396l1.88,1.08v4.77l-2.11-1.21v1.43l5.65,3.26v-1.43l-1.91-1.1,0-6.21m-.9-3.81a1.26,1.26,0,0,0-.42-.15.63.63,0,0,0-.34.07.55.55,0,0,0-.21.26.9.9,0,0,0-.08.42,1.55,1.55,0,0,0,.08.51,2.75,2.75,0,0,0,.21.51,3.54,3.54,0,0,0,.34.45,1.86,1.86,0,0,0,.41.33,1.05,1.05,0,0,0,.41.14.58.58,0,0,0,.33-.06.6.6,0,0,0,.22-.25,1.09,1.09,0,0,0,.09-.43,1.92,1.92,0,0,0-.08-.51,2.45,2.45,0,0,0-.22-.5,2.15,2.15,0,0,0-.33-.46,2.12,2.12,0,0,0-.41-.33" transform="translate(-528.67 -44.13)" style="fill:gray"/><path d="M1093.12,406.53a2.87,2.87,0,0,1-1.15-1.28,4.4,4.4,0,0,1-.41-2,4,4,0,0,1,.09-.88,1.57,1.57,0,0,1,.27-.61.69.69,0,0,1,.5-.22,1.2,1.2,0,0,1,.71.22,2.8,2.8,0,0,1,1.14,1.26,4.65,4.65,0,0,1,.39,2,4.19,4.19,0,0,1-.09.91,1.8,1.8,0,0,1-.29.59.67.67,0,0,1-.47.25,1.38,1.38,0,0,1-.69-.21m.06-6.36a3.47,3.47,0,0,0-1.37-.51,1.47,1.47,0,0,0-1,.23,1.72,1.72,0,0,0-.65.89,4.23,4.23,0,0,0-.23,1.52,7.62,7.62,0,0,0,.21,1.84,6.25,6.25,0,0,0,.61,1.6,5.8,5.8,0,0,0,1,1.3,6,6,0,0,0,1.32,1,3.41,3.41,0,0,0,1.39.5,1.4,1.4,0,0,0,1-.23,1.76,1.76,0,0,0,.65-.91,4.48,4.48,0,0,0,.22-1.52,7.1,7.1,0,0,0-.2-1.82,6.42,6.42,0,0,0-.62-1.58,5.88,5.88,0,0,0-2.31-2.33" transform="translate(-528.67 -44.13)" style="fill:gray"/><path d="M1100.43,409.38a1,1,0,0,0-.5-.16.53.53,0,0,0-.4.08.75.75,0,0,0-.27.31,1.36,1.36,0,0,0-.09.53,2.2,2.2,0,0,0,.09.61,3.14,3.14,0,0,0,.27.62,3,3,0,0,0,.4.56,2.32,2.32,0,0,0,.49.4,1.24,1.24,0,0,0,.5.17.69.69,0,0,0,.41-.09.82.82,0,0,0,.28-.3,1.1,1.1,0,0,0,.1-.51,2,2,0,0,0-.1-.63,3.23,3.23,0,0,0-.27-.63,2.81,2.81,0,0,0-.41-.55,2.14,2.14,0,0,0-.5-.41" transform="translate(-528.67 -44.13)" style="fill:gray"/><path d="M1106.66,405.13l-1.59-.92,0,10.61,1.59.92,0-4.83a2.94,2.94,0,0,1,.78-.57.81.81,0,0,1,.78.07,1.81,1.81,0,0,1,.81,1.73l0,5,1.6.92v-5.12a4.94,4.94,0,0,0-.13-1.17,3.87,3.87,0,0,0-.37-1.07,3.59,3.59,0,0,0-.64-.9,3.66,3.66,0,0,0-.89-.71,2.67,2.67,0,0,0-.61-.28,1.46,1.46,0,0,0-.53-.07,1.19,1.19,0,0,0-.46.1c-.13.08-.27.16-.41.26l.09-1.32v-2.62" transform="translate(-528.67 -44.13)" style="fill:gray"/><polyline points="585.13 367.38 584.12 367.99 587.34 372.93 584.1 374.13 585.11 375.91 589.53 374.18 585.13 367.38" style="fill:gray"/><path d="M991,378.3l-3.51-2v1.43l1.87,1.08v4.77l-2.11-1.21v1.43l5.65,3.26v-1.43l-1.9-1.1V378.3m-.9-3.81a1.08,1.08,0,0,0-.41-.15.51.51,0,0,0-.33.08.47.47,0,0,0-.23.25,1,1,0,0,0-.08.42,1.81,1.81,0,0,0,.08.51,2.25,2.25,0,0,0,.22.51,2.73,2.73,0,0,0,.33.45,2.12,2.12,0,0,0,.41.33,1.09,1.09,0,0,0,.42.14.58.58,0,0,0,.33-.06.6.6,0,0,0,.22-.25,1.1,1.1,0,0,0,.08-.43,1.92,1.92,0,0,0-.08-.51,2.05,2.05,0,0,0-.22-.5,2.15,2.15,0,0,0-.33-.46,1.86,1.86,0,0,0-.41-.33" transform="translate(-528.67 -44.13)" style="fill:#45cbef"/><path d="M998.1,382.24a3.19,3.19,0,0,0-.65-.29,1.82,1.82,0,0,0-.55-.06,1.27,1.27,0,0,0-.48.14,2,2,0,0,0-.42.29l0-1.15-1.38-.8,0,7.63,1.59.92,0-4.83a2.73,2.73,0,0,1,.78-.56.84.84,0,0,1,.78.06,1.83,1.83,0,0,1,.81,1.73l0,5,1.6.92v-5.12a5.2,5.2,0,0,0-.13-1.18,4.23,4.23,0,0,0-.37-1.05,4,4,0,0,0-1.53-1.62" transform="translate(-528.67 -44.13)" style="fill:#45cbef"/><path d="M1004.84,383.86l-1.63-.46v1.94l-1.79-1v1.43l1.79,1v3.73a4.79,4.79,0,0,0,.14,1.28,4,4,0,0,0,.45,1.09,4.48,4.48,0,0,0,.78.92,6.83,6.83,0,0,0,2,1.22,6.11,6.11,0,0,0,.87.32v-1.46a5.27,5.27,0,0,1-.68-.22,4.08,4.08,0,0,1-.77-.36,2.2,2.2,0,0,1-.87-.84,2.4,2.4,0,0,1-.26-1.14v-3.59l2.58,1.49v-1.43l-2.58-1.49v-2.43" transform="translate(-528.67 -44.13)" style="fill:#45cbef"/><path d="M1021.3,395.64a1.76,1.76,0,0,0-.42-.17.72.72,0,0,0-.36,0,.77.77,0,0,0-.33.22.6.6,0,1,1-.64-.73,2.21,2.21,0,0,0-.84-.82,1.76,1.76,0,0,0-.42-.18.82.82,0,0,0-.35,0,.68.68,0,0,0-.31.23,1.54,1.54,0,0,0-.29.41l0-1.14-1.18-.68,0,7.63,1.38.8,0-4.94a2.49,2.49,0,0,1,.46-.81c.14-.13.27-.17.38-.1l.21.2.11.27a2.13,2.13,0,0,1,.06.39c0,.14,0,.32,0,.51V402l1.36.79,0-4.95a2.51,2.51,0,0,1,.44-.82.31.31,0,0,1,.4-.09l.2.2.12.27a3.42,3.42,0,0,1,.05.39c0,.14,0,.32,0,.5v5.2l1.38.8,0-5.48a4.74,4.74,0,0,0-.35-1.92,2.57,2.57,0,0,0-1.07-1.21" transform="translate(-528.67 -44.13)" style="fill:#f09721"/><path d="M1026.45,405.13a2,2,0,0,1-.71-.65,1.49,1.49,0,0,1-.26-.85.83.83,0,0,1,.08-.41.36.36,0,0,1,.26-.2,1,1,0,0,1,.45,0,3.17,3.17,0,0,1,.7.32l1,.56v1a2.52,2.52,0,0,1-.8.34,1,1,0,0,1-.69-.13m.28-6.36a7.22,7.22,0,0,0-1.3-.61,5,5,0,0,0-1.09-.26v1.46a4.48,4.48,0,0,1,1.11.2,5.54,5.54,0,0,1,1.15.52,3,3,0,0,1,.64.45,2.1,2.1,0,0,1,.41.5,1.55,1.55,0,0,1,.23.53,2.2,2.2,0,0,1,.08.58v.45l-.88-.51a6.39,6.39,0,0,0-1.43-.63,2.08,2.08,0,0,0-1-.08.89.89,0,0,0-.61.45,1.6,1.6,0,0,0-.21.87,4.57,4.57,0,0,0,.13,1.05,4.06,4.06,0,0,0,.4,1,4.31,4.31,0,0,0,.64.85,4,4,0,0,0,.89.69,3.33,3.33,0,0,0,.72.32,2.32,2.32,0,0,0,.6.11,1.59,1.59,0,0,0,.5-.08,2.06,2.06,0,0,0,.44-.23l0,1,1.37.79V403a4.91,4.91,0,0,0-.15-1.22,4.19,4.19,0,0,0-.5-1.1,4.73,4.73,0,0,0-.88-1,7.83,7.83,0,0,0-1.27-.9" transform="translate(-528.67 -44.13)" style="fill:#f09721"/><path d="M1035.15,403.79l-3.51-2v1.43l1.88,1.09v4.77l-2.1-1.21v1.43l5.66,3.26V411.1l-1.92-1.1,0-6.21m-.89-3.81a1.3,1.3,0,0,0-.43-.15.51.51,0,0,0-.33.08.5.5,0,0,0-.22.25,1,1,0,0,0-.08.41,1.88,1.88,0,0,0,.08.52,2.81,2.81,0,0,0,.22.51,2.73,2.73,0,0,0,.33.45,2.18,2.18,0,0,0,.42.33,1.21,1.21,0,0,0,.41.15.66.66,0,0,0,.32-.07.69.69,0,0,0,.23-.25,1.14,1.14,0,0,0,.08-.43,2.13,2.13,0,0,0-.3-1,2.83,2.83,0,0,0-.32-.45,2,2,0,0,0-.41-.33" transform="translate(-528.67 -44.13)" style="fill:#f09721"/><path d="M1042.26,407.73a3.51,3.51,0,0,0-.66-.29,1.62,1.62,0,0,0-.56-.06,1.28,1.28,0,0,0-.47.14,2.64,2.64,0,0,0-.42.29l0-1.16-1.38-.79,0,7.64,1.6.92v-4.84a2.55,2.55,0,0,1,.78-.56.81.81,0,0,1,.78.07,1.81,1.81,0,0,1,.8,1.72v5l1.59.92,0-5.12a5.14,5.14,0,0,0-.13-1.18,4.25,4.25,0,0,0-.38-1,3.92,3.92,0,0,0-1.51-1.62" transform="translate(-528.67 -44.13)" style="fill:#f09721"/><path d="M1050.19,408.9a5.64,5.64,0,0,0-1.3.72,4.28,4.28,0,0,0-1,1.09,5.56,5.56,0,0,0-.67,1.54,7.94,7.94,0,0,0-.25,2,12.79,12.79,0,0,0,.8,4.28,22.47,22.47,0,0,0,2.37,4.69l.94-.56a18.94,18.94,0,0,1-1.91-4,12.14,12.14,0,0,1-.62-3.64,5.94,5.94,0,0,1,.64-2.85,4.18,4.18,0,0,1,1.93-1.73l-.9-1.57" transform="translate(-528.67 -44.13)" style="fill:#f2f2f2"/><path d="M1055,411.67l-.94.56a18.3,18.3,0,0,1,1.91,4,11.77,11.77,0,0,1,.63,3.64,5.84,5.84,0,0,1-.65,2.84,4,4,0,0,1-1.93,1.74l.91,1.57a5,5,0,0,0,1.3-.71,4.09,4.09,0,0,0,1-1.1,5.91,5.91,0,0,0,.67-1.53,8.76,8.76,0,0,0,.24-2,13,13,0,0,0-.78-4.28,21.54,21.54,0,0,0-2.37-4.69" transform="translate(-528.67 -44.13)" style="fill:#f2f2f2"/><path d="M1073.2,422.45l-.54-.32a3.88,3.88,0,0,0-1.22-.51,1.15,1.15,0,0,0-.84.11,1.29,1.29,0,0,0-.48.7,4.49,4.49,0,0,0-.16,1.26V425a2.15,2.15,0,0,1-.07.63.5.5,0,0,1-.23.33.47.47,0,0,1-.41,0,2.44,2.44,0,0,1-.59-.25l-.41-.24v1.42l.42.24a2.48,2.48,0,0,1,1,1,2.79,2.79,0,0,1,.3,1.34v1.91a4.94,4.94,0,0,0,2.68,4.66l.54.32V435l-.41-.24a3.24,3.24,0,0,1-.57-.4,2.44,2.44,0,0,1-.43-.53,2.71,2.71,0,0,1-.28-.68,3,3,0,0,1-.09-.88v-1.9a4.37,4.37,0,0,0-.34-1.85,3.08,3.08,0,0,0-1-1.22,2,2,0,0,0,.62.15.6.6,0,0,0,.43-.17,1.11,1.11,0,0,0,.25-.51,4.62,4.62,0,0,0,.08-.92v-1.32a1.94,1.94,0,0,1,.1-.72.56.56,0,0,1,.28-.36.64.64,0,0,1,.44,0,2.29,2.29,0,0,1,.56.23l.41.24v-1.4" transform="translate(-528.67 -44.13)" style="fill:#f2f2f2"/><path d="M1029.93,425.61a5.12,5.12,0,0,1-.56-.39,3.29,3.29,0,0,1-.47-.41v-3.33a2.29,2.29,0,0,1,.78-.56.81.81,0,0,1,.78.06,1.92,1.92,0,0,1,.49.42,2,2,0,0,1,.35.62,3.69,3.69,0,0,1,.23.86,6.4,6.4,0,0,1,.07,1.12,3.6,3.6,0,0,1-.12,1,1.27,1.27,0,0,1-.34.61.72.72,0,0,1-.53.21,1.55,1.55,0,0,1-.69-.21m.91-6a3,3,0,0,0-.66-.29,1.47,1.47,0,0,0-.54-.06,1.16,1.16,0,0,0-.48.14,2,2,0,0,0-.42.29l0-1.16-1.38-.8,0,10.62,1.59.92v-3a5.37,5.37,0,0,0,.45.35,4.51,4.51,0,0,0,.51.34,4.47,4.47,0,0,0,1.36.54,1.65,1.65,0,0,0,1.09-.13,1.63,1.63,0,0,0,.72-.85,4.29,4.29,0,0,0,.26-1.68,8.26,8.26,0,0,0-.16-1.68,6.66,6.66,0,0,0-.46-1.49,4.93,4.93,0,0,0-.77-1.2,3.82,3.82,0,0,0-1.05-.88" transform="translate(-528.67 -44.13)" style="fill:#9ef2c6"/><path d="M1038.51,424.05a3.67,3.67,0,0,0-.67-.29,1.43,1.43,0,0,0-.56-.07,1.17,1.17,0,0,0-.83.46l-.06-1.16-1.44-.83,0,7.63,1.63.95,0-4.83a1.9,1.9,0,0,1,.82-.62.92.92,0,0,1,.74.08,1.55,1.55,0,0,1,.62.74,2.86,2.86,0,0,1,.16.58,3.73,3.73,0,0,1,0,.76l1.61.92a7.28,7.28,0,0,0-.11-1.43,5.36,5.36,0,0,0-.38-1.21,4.3,4.3,0,0,0-.66-1,4.13,4.13,0,0,0-.89-.72" transform="translate(-528.67 -44.13)" style="fill:#9ef2c6"/><path d="M1045.82,428.44l-3.51-2v1.43l1.88,1.08,0,4.78-2.1-1.22v1.43l5.65,3.26v-1.43l-1.91-1.1,0-6.2m-.91-3.82a.91.91,0,0,0-.41-.14.51.51,0,0,0-.33.07.49.49,0,0,0-.22.25,1.08,1.08,0,0,0-.08.42,1.93,1.93,0,0,0,.08.52,2.71,2.71,0,0,0,.22.51,2.66,2.66,0,0,0,.33.44,2.12,2.12,0,0,0,.41.33,1.15,1.15,0,0,0,.41.15.67.67,0,0,0,.33-.07.6.6,0,0,0,.22-.25,1.25,1.25,0,0,0,.09-.43,1.8,1.8,0,0,0-.08-.5,2.31,2.31,0,0,0-.22-.51,2.43,2.43,0,0,0-.33-.46,1.7,1.7,0,0,0-.42-.33" transform="translate(-528.67 -44.13)" style="fill:#9ef2c6"/><path d="M1052.92,432.37a2.87,2.87,0,0,0-.66-.28,1.84,1.84,0,0,0-.55-.07,1.23,1.23,0,0,0-.47.14,2.32,2.32,0,0,0-.43.29l0-1.15-1.39-.8,0,7.63,1.6.93v-4.84a2.76,2.76,0,0,1,.79-.56.79.79,0,0,1,.77.07,1.81,1.81,0,0,1,.81,1.72v5l1.59.92,0-5.12a5.06,5.06,0,0,0-.13-1.17,4.18,4.18,0,0,0-.38-1.06,3.86,3.86,0,0,0-1.52-1.62" transform="translate(-528.67 -44.13)" style="fill:#9ef2c6"/><path d="M1059.66,434l-1.64-.46v2l-1.78-1v1.43l1.79,1v3.72a5.17,5.17,0,0,0,.15,1.28,4.18,4.18,0,0,0,.45,1.09,4.54,4.54,0,0,0,.79.93,6.34,6.34,0,0,0,1.12.81,7.3,7.3,0,0,0,.84.41c.29.12.57.23.86.32V444a5.27,5.27,0,0,1-.68-.22,4.31,4.31,0,0,1-.76-.36,2.24,2.24,0,0,1-.88-.84,2.4,2.4,0,0,1-.25-1.14v-3.59l2.58,1.49v-1.43l-2.58-1.49V434" transform="translate(-528.67 -44.13)" style="fill:#9ef2c6"/><path d="M1068.54,438.44a4.24,4.24,0,0,0-1.18-.51,1.4,1.4,0,0,0-.91,0,1,1,0,0,0-.58.61,3.29,3.29,0,0,0-.22,1.27V441l-1.93-1.11v1.42l1.93,1.11,0,5.11,1.61.93v-5.11l2.61,1.51v-1.42l-2.61-1.51v-1.23a1.53,1.53,0,0,1,.11-.64.52.52,0,0,1,.27-.32.63.63,0,0,1,.43,0,1.67,1.67,0,0,1,.52.21,6.51,6.51,0,0,1,.8.53c.27.21.49.4.68.58v-1.48c-.22-.19-.46-.38-.72-.58a7.6,7.6,0,0,0-.82-.52" transform="translate(-528.67 -44.13)" style="fill:#9ef2c6"/><path d="M1075.57,442a6.6,6.6,0,0,0-1.31.71,4.87,4.87,0,0,0-1,1.1,4.81,4.81,0,0,0-.66,1.54,7.17,7.17,0,0,0-.25,2,12.74,12.74,0,0,0,.78,4.28,23,23,0,0,0,2.38,4.69l1-.56a18.46,18.46,0,0,1-1.91-4,11.86,11.86,0,0,1-.63-3.64,5.94,5.94,0,0,1,.65-2.85,4.11,4.11,0,0,1,1.92-1.73l-.9-1.57" transform="translate(-528.67 -44.13)" style="fill:#f2f2f2"/><path d="M1080.12,445.12a.86.86,0,0,0-.43-.15.46.46,0,0,0-.31.07.49.49,0,0,0-.19.25.87.87,0,0,0-.07.37,1.45,1.45,0,0,0,.09.54,4.48,4.48,0,0,0,.2.44l.2.43a1.16,1.16,0,0,1,.09.47c0,.32-.12.47-.37.47a2.63,2.63,0,0,1-.94-.37l-.11-.07v1.15a4.22,4.22,0,0,0,1.33.55,1.77,1.77,0,0,0,1,0,1.12,1.12,0,0,0,.56-.59,2.55,2.55,0,0,0,.2-1,3.43,3.43,0,0,0-.32-1.45,2.51,2.51,0,0,0-.38-.61,1.91,1.91,0,0,0-.51-.43m3.42,2a1,1,0,0,0-.41-.14.4.4,0,0,0-.31.07.55.55,0,0,0-.21.24,1.23,1.23,0,0,0-.06.39,1.44,1.44,0,0,0,.09.53,3.49,3.49,0,0,0,.2.44l.2.43a1.21,1.21,0,0,1,.09.48c0,.31-.12.46-.36.46a2.54,2.54,0,0,1-1-.37l-.11-.07v1.16a4.41,4.41,0,0,0,1.34.55,1.69,1.69,0,0,0,.94-.06,1.11,1.11,0,0,0,.57-.58,2.45,2.45,0,0,0,.19-1,3.81,3.81,0,0,0-.08-.74,3.4,3.4,0,0,0-.24-.7,2.48,2.48,0,0,0-.37-.61,2,2,0,0,0-.52-.44" transform="translate(-528.67 -44.13)" style="fill:#e6cd4f"/><polyline points="563.36 408.8 561.75 407.87 561.73 411.81 558.83 410.14 558.84 406.19 557.24 405.26 557.21 415.08 558.82 416.01 558.83 411.73 561.73 413.4 561.72 417.68 563.33 418.62 563.36 408.8" style="fill:#e6cd4f"/><path d="M1095,459.78a1.29,1.29,0,0,1,.45-1,1,1,0,0,1,1,.11,2.36,2.36,0,0,1,.51.4,2.65,2.65,0,0,1,.42.56,3.38,3.38,0,0,1,.28.72,3.22,3.22,0,0,1,.1.84l-2.76-1.59m1.48-2.29a3.08,3.08,0,0,0-1.3-.44,1.37,1.37,0,0,0-1,.27,2.08,2.08,0,0,0-.63.94,4.75,4.75,0,0,0-.22,1.57,6.44,6.44,0,0,0,.21,1.78,6.55,6.55,0,0,0,.64,1.57,6.39,6.39,0,0,0,2.38,2.35c.2.12.4.22.62.34s.42.2.63.28.41.16.62.23a5.57,5.57,0,0,0,.55.17V465.1a7.66,7.66,0,0,1-1.14-.39,9.12,9.12,0,0,1-1-.5,3.92,3.92,0,0,1-.76-.58,4.1,4.1,0,0,1-.59-.73,3.56,3.56,0,0,1-.37-.87,3.31,3.31,0,0,1-.14-.95l4.37,2.52,0-.55c0-.2,0-.36,0-.49a5.65,5.65,0,0,0-.19-1.47,5.59,5.59,0,0,0-1.46-2.62,5.42,5.42,0,0,0-1.24-1" transform="translate(-528.67 -44.13)" style="fill:#e6cd4f"/><polyline points="576.02 415.31 572.52 413.29 572.51 414.72 574.39 415.8 574.37 423.55 572.26 422.34 572.26 423.77 577.91 427.03 577.91 425.6 576 424.49 576.02 415.31" style="fill:#e6cd4f"/><polyline points="583.38 419.56 579.88 417.54 579.87 418.97 581.75 420.05 581.73 427.8 579.62 426.58 579.62 428.01 585.27 431.28 585.27 429.85 583.35 428.74 583.38 419.56" style="fill:#e6cd4f"/><path d="M1118.38,476.57a2.87,2.87,0,0,1-1.13-1.27,4.4,4.4,0,0,1-.41-2,4,4,0,0,1,.09-.88,1.57,1.57,0,0,1,.27-.61.72.72,0,0,1,.49-.22,1.31,1.31,0,0,1,.71.22,2.81,2.81,0,0,1,1.15,1.26,4.64,4.64,0,0,1,.38,2,3.62,3.62,0,0,1-.1.91,1.52,1.52,0,0,1-.27.6.67.67,0,0,1-.47.25,1.43,1.43,0,0,1-.71-.22m.08-6.36a3.44,3.44,0,0,0-1.37-.5,1.54,1.54,0,0,0-1,.22,1.8,1.8,0,0,0-.65.9,4.48,4.48,0,0,0-.22,1.52,8.33,8.33,0,0,0,.2,1.85,6.12,6.12,0,0,0,.62,1.58,5.38,5.38,0,0,0,1,1.31,6,6,0,0,0,1.32,1,3.6,3.6,0,0,0,1.39.51,1.45,1.45,0,0,0,1-.24,1.82,1.82,0,0,0,.65-.91,4.74,4.74,0,0,0,.22-1.52,7.1,7.1,0,0,0-.2-1.82,6.42,6.42,0,0,0-.62-1.58,6.12,6.12,0,0,0-1-1.32,6.35,6.35,0,0,0-1.33-1" transform="translate(-528.67 -44.13)" style="fill:#e6cd4f"/><polyline points="607.92 434.52 606.55 433.74 606.32 440.08 606.29 441.59 605.97 440.1 604.99 435.83 603.98 435.24 603.02 438.19 602.64 439.5 602.59 437.76 602.41 431.34 600.98 430.52 601.44 440.61 603.24 441.66 604.09 439.14 604.38 438.05 604.69 439.46 605.52 442.97 607.41 444.06 607.92 434.52" style="fill:#e6cd4f"/><path d="M1140.47,489.32a3,3,0,0,1-1.15-1.27,4.74,4.74,0,0,1-.41-2.05,4,4,0,0,1,.09-.88,1.4,1.4,0,0,1,.28-.6.78.78,0,0,1,.49-.23,1.39,1.39,0,0,1,.71.23,2.82,2.82,0,0,1,1.14,1.25,4.68,4.68,0,0,1,.39,2,4.19,4.19,0,0,1-.09.91,1.4,1.4,0,0,1-.29.6.67.67,0,0,1-.47.25,1.52,1.52,0,0,1-.69-.22m.07-6.36a3.51,3.51,0,0,0-1.38-.51,1.6,1.6,0,0,0-1,.23,1.72,1.72,0,0,0-.65.89,4.5,4.5,0,0,0-.23,1.52,7.91,7.91,0,0,0,.21,1.86,6.67,6.67,0,0,0,.62,1.58,5.76,5.76,0,0,0,1,1.3,6,6,0,0,0,1.32,1,3.61,3.61,0,0,0,1.39.51,1.5,1.5,0,0,0,1-.23,1.8,1.8,0,0,0,.65-.91,4.79,4.79,0,0,0,.23-1.53,7.49,7.49,0,0,0-.21-1.81,6.12,6.12,0,0,0-.62-1.58,5.4,5.4,0,0,0-1-1.32,6,6,0,0,0-1.32-1" transform="translate(-528.67 -44.13)" style="fill:#e6cd4f"/><path d="M1148.89,487.78a3,3,0,0,0-.68-.3,2,2,0,0,0-.56-.07,1.33,1.33,0,0,0-.45.15,1.36,1.36,0,0,0-.37.31l-.06-1.15-1.45-.84,0,7.64,1.64.94v-4.83a2.09,2.09,0,0,1,.83-.62.9.9,0,0,1,.73.09,1.69,1.69,0,0,1,.36.3,1.55,1.55,0,0,1,.26.44,2.86,2.86,0,0,1,.16.58,4.43,4.43,0,0,1,0,.75l1.61.93a7.38,7.38,0,0,0-.11-1.44,4.69,4.69,0,0,0-.39-1.2,4.33,4.33,0,0,0-.65-1,3.81,3.81,0,0,0-.89-.71" transform="translate(-528.67 -44.13)" style="fill:#e6cd4f"/><polyline points="627.53 445.05 624.02 443.02 624.02 444.45 625.89 445.54 625.87 453.29 623.76 452.07 623.76 453.5 629.42 456.77 629.43 455.34 627.51 454.23 627.53 445.05" style="fill:#e6cd4f"/><path d="M1162.17,501.86a1.77,1.77,0,0,1-.49-.42,2.09,2.09,0,0,1-.36-.63,3.62,3.62,0,0,1-.22-.85,7.49,7.49,0,0,1-.08-1.13,3.13,3.13,0,0,1,.13-1,1.39,1.39,0,0,1,.33-.62.84.84,0,0,1,.53-.21,1.5,1.5,0,0,1,.7.23,4.5,4.5,0,0,1,.56.37,5.08,5.08,0,0,1,.46.4v3.34a2.65,2.65,0,0,1-.78.58.79.79,0,0,1-.77-.07m3.17-7.4-1.6-.92v3c-.13-.11-.28-.23-.44-.34a5,5,0,0,0-1.87-.87,1.5,1.5,0,0,0-1.81,1,4.54,4.54,0,0,0-.25,1.68,7.73,7.73,0,0,0,.15,1.68,6.83,6.83,0,0,0,.47,1.49,5.19,5.19,0,0,0,.77,1.21,3.92,3.92,0,0,0,1,.87,2.5,2.5,0,0,0,.65.28,1.7,1.7,0,0,0,.54.05,1.33,1.33,0,0,0,.48-.14,2,2,0,0,0,.44-.28l0,1.16,1.38.79,0-10.61" transform="translate(-528.67 -44.13)" style="fill:#e6cd4f"/><path d="M1169.89,505.54a1,1,0,0,0-.4-.14.56.56,0,0,0-.32.06.6.6,0,0,0-.22.25.86.86,0,0,0-.08.41,1.47,1.47,0,0,0,.08.51,2.21,2.21,0,0,0,.21.5,2.29,2.29,0,0,0,.32.43,2.41,2.41,0,0,0,.4.33.94.94,0,0,0,.4.13.56.56,0,0,0,.32-.06.54.54,0,0,0,.22-.25.83.83,0,0,0,.08-.42,1.53,1.53,0,0,0-.08-.5,2.45,2.45,0,0,0-.22-.5,2.29,2.29,0,0,0-.32-.43,1.66,1.66,0,0,0-.39-.32m.95-7.91-1.85-1.06.22,7.7,1.37.79.26-7.43" transform="translate(-528.67 -44.13)" style="fill:#e6cd4f"/><polyline points="647.25 456.44 645.7 455.54 650.23 470.4 651.78 471.3 647.25 456.44" style="fill:#e6cd4f"/><path d="M1185.37,508.85a2.56,2.56,0,0,0-.66-.29,1.84,1.84,0,0,0-.55-.07,1.5,1.5,0,0,0-.47.14,3.61,3.61,0,0,0-.43.29l0-1.15-1.38-.8,0,7.64,1.6.92V510.7a2.57,2.57,0,0,1,.77-.57.83.83,0,0,1,.79.07,1.82,1.82,0,0,1,.8,1.72l0,5,1.6.92v-5.12a4.56,4.56,0,0,0-.12-1.17,4.18,4.18,0,0,0-.38-1.06,3.89,3.89,0,0,0-.63-.91,3.45,3.45,0,0,0-.89-.7" transform="translate(-528.67 -44.13)" style="fill:#e6cd4f"/><path d="M1190.49,508.84a1.13,1.13,0,0,0-.42-.15.42.42,0,0,0-.31.08.47.47,0,0,0-.19.24.92.92,0,0,0-.07.38,1.31,1.31,0,0,0,.08.54,4.28,4.28,0,0,0,.2.43l.2.43a1.24,1.24,0,0,1,.09.48c0,.31-.12.46-.36.46a2.3,2.3,0,0,1-.94-.37l-.11-.06v1.15a4.52,4.52,0,0,0,1.34.55,1.64,1.64,0,0,0,1,0,1.1,1.1,0,0,0,.57-.59,2.37,2.37,0,0,0,.19-1,3.81,3.81,0,0,0-.08-.74,3.4,3.4,0,0,0-.24-.7,2.48,2.48,0,0,0-.37-.61,2,2,0,0,0-.52-.44m3.43,2a.93.93,0,0,0-.42-.15.47.47,0,0,0-.31.08.49.49,0,0,0-.19.25.87.87,0,0,0-.07.37,1.45,1.45,0,0,0,.09.54c.06.15.13.3.2.44l.2.42a1.24,1.24,0,0,1,.09.48c0,.31-.13.46-.37.46a2.3,2.3,0,0,1-.94-.37l-.11-.06v1.15a4.22,4.22,0,0,0,1.33.55,1.64,1.64,0,0,0,.95-.05,1.05,1.05,0,0,0,.56-.59,2.4,2.4,0,0,0,.19-1,3.14,3.14,0,0,0-.07-.74,2.76,2.76,0,0,0-.24-.7,2.48,2.48,0,0,0-.37-.61,2,2,0,0,0-.52-.44" transform="translate(-528.67 -44.13)" style="fill:#e6cd4f"/><path d="M1198.1,512.79l-.93.55a17.79,17.79,0,0,1,1.9,4,11.89,11.89,0,0,1,.64,3.64,6,6,0,0,1-.65,2.85,4.1,4.1,0,0,1-1.93,1.74l.91,1.56a5.09,5.09,0,0,0,1.3-.7,4.48,4.48,0,0,0,1-1.11,6.1,6.1,0,0,0,.67-1.53,8.19,8.19,0,0,0,.23-2,12.63,12.63,0,0,0-.77-4.28,21.83,21.83,0,0,0-2.38-4.69" transform="translate(-528.67 -44.13)" style="fill:#f2f2f2"/><path d="M1206.64,526.13a1.07,1.07,0,0,0-.45-.16.56.56,0,0,0-.34.08.61.61,0,0,0-.21.28,1,1,0,0,0-.08.41,1.51,1.51,0,0,0,.06.44l.14.38.18.36.18.35.14.35a1.62,1.62,0,0,1,0,.4.64.64,0,0,1-.14.45.56.56,0,0,1-.39.14,1.6,1.6,0,0,1-.6-.12,5.44,5.44,0,0,1-.73-.36v1.18a5,5,0,0,0,1.55.64,1.81,1.81,0,0,0,1.11-.09,1.37,1.37,0,0,0,.67-.69A2.87,2.87,0,0,0,1208,529a4,4,0,0,0-.36-1.65,2.92,2.92,0,0,0-.43-.7,1.92,1.92,0,0,0-.57-.5m0-4.88a1.15,1.15,0,0,0-.46-.16.58.58,0,0,0-.37.07.56.56,0,0,0-.25.29,1.09,1.09,0,0,0-.09.47,1.9,1.9,0,0,0,.09.58,2.24,2.24,0,0,0,.25.57,2.78,2.78,0,0,0,.37.51,2.26,2.26,0,0,0,.46.37,1.06,1.06,0,0,0,.46.16.55.55,0,0,0,.37-.07.56.56,0,0,0,.25-.29,1.21,1.21,0,0,0,.1-.47,2,2,0,0,0-.09-.58,2.67,2.67,0,0,0-.25-.58,2.23,2.23,0,0,0-.37-.5,1.87,1.87,0,0,0-.47-.37" transform="translate(-528.67 -44.13)" style="fill:#f2f2f2"/><path d="M1031.05,456.72a2.9,2.9,0,0,0-.67-.3,1.71,1.71,0,0,0-.57-.07,1.37,1.37,0,0,0-.46.14,1.53,1.53,0,0,0-.36.32l-.06-1.15-1.44-.84,0,7.64,1.64.94v-4.83a2,2,0,0,1,.83-.62.86.86,0,0,1,.73.09,1.07,1.07,0,0,1,.35.29,1.57,1.57,0,0,1,.27.43,2.55,2.55,0,0,1,.15.59,3.68,3.68,0,0,1,0,.76l1.61.93a7.26,7.26,0,0,0-.11-1.44,5.53,5.53,0,0,0-.39-1.21,4.63,4.63,0,0,0-.65-1,3.81,3.81,0,0,0-.89-.71" transform="translate(-528.67 -44.13)" style="fill:#f9273c"/><path d="M1036,462.7c0-.54.2-.89.46-1a.94.94,0,0,1,1,.11,2.36,2.36,0,0,1,.51.4,2.65,2.65,0,0,1,.42.56,2.92,2.92,0,0,1,.28.72,3.22,3.22,0,0,1,.1.84L1036,462.7m1.48-2.29a3.1,3.1,0,0,0-1.28-.44,1.34,1.34,0,0,0-1,.28,1.92,1.92,0,0,0-.63.93,4.77,4.77,0,0,0-.23,1.57,7.23,7.23,0,0,0,.22,1.78,6.17,6.17,0,0,0,.64,1.57,6.46,6.46,0,0,0,2.37,2.35c.2.12.41.23.62.34s.43.2.64.28.41.16.61.23l.56.18V468a7.18,7.18,0,0,1-1.16-.39,9.84,9.84,0,0,1-1-.5,4,4,0,0,1-.77-.58,3.63,3.63,0,0,1-1-1.6,3,3,0,0,1-.12-1l4.36,2.52c0-.17,0-.34,0-.53s0-.37,0-.49a5.71,5.71,0,0,0-.18-1.48,5.78,5.78,0,0,0-.56-1.39,5.63,5.63,0,0,0-2.16-2.21" transform="translate(-528.67 -44.13)" style="fill:#f9273c"/><path d="M1044.84,462.4l-1.64-.46v1.95l-1.78-1v1.43l1.79,1v3.73a5.08,5.08,0,0,0,.15,1.27,3.58,3.58,0,0,0,.45,1.08,4.59,4.59,0,0,0,.78.94,6.3,6.3,0,0,0,1.13.81,6.41,6.41,0,0,0,.83.41c.29.12.58.23.87.32v-1.47a4.07,4.07,0,0,1-.68-.22,4.31,4.31,0,0,1-.76-.36,2.17,2.17,0,0,1-.88-.84,2.37,2.37,0,0,1-.25-1.14v-3.58l2.58,1.48v-1.43l-2.58-1.49V462.4" transform="translate(-528.67 -44.13)" style="fill:#f9273c"/><path d="M1054.84,470.61l-1.6-.92v4.83a3.28,3.28,0,0,1-.79.58.79.79,0,0,1-.77-.07,1.42,1.42,0,0,1-.61-.67,2.62,2.62,0,0,1-.2-1.07v-5l-1.59-.92,0,5.12a5.17,5.17,0,0,0,.13,1.19,4.28,4.28,0,0,0,1,2,4.15,4.15,0,0,0,.89.71,2.89,2.89,0,0,0,.67.29,1.73,1.73,0,0,0,.54.05,1.24,1.24,0,0,0,.47-.15,2.56,2.56,0,0,0,.42-.28l0,1.15,1.39.8,0-7.64" transform="translate(-528.67 -44.13)" style="fill:#f9273c"/><path d="M1060.48,473.71a3.16,3.16,0,0,0-.67-.3,1.93,1.93,0,0,0-.57-.07,1.32,1.32,0,0,0-.45.14,1.4,1.4,0,0,0-.37.32l-.06-1.15-1.44-.84,0,7.64,1.64.94v-4.83a2.06,2.06,0,0,1,.83-.62.89.89,0,0,1,.73.09,1.29,1.29,0,0,1,.37.3,1.49,1.49,0,0,1,.26.43,2.13,2.13,0,0,1,.15.59,4.43,4.43,0,0,1,0,.75l1.61.93a6.63,6.63,0,0,0-.11-1.44,4.45,4.45,0,0,0-.39-1.2,4.33,4.33,0,0,0-.65-1,3.81,3.81,0,0,0-.89-.71" transform="translate(-528.67 -44.13)" style="fill:#f9273c"/><path d="M1067.54,477.78a3,3,0,0,0-.67-.29,1.55,1.55,0,0,0-.55-.06,1.07,1.07,0,0,0-.47.14,1.66,1.66,0,0,0-.42.29l0-1.16-1.38-.79,0,7.64,1.59.91v-4.83a2.7,2.7,0,0,1,.79-.56.82.82,0,0,1,.77.06,1.82,1.82,0,0,1,.81,1.73v5l1.59.92,0-5.12a5.14,5.14,0,0,0-.13-1.18,4.11,4.11,0,0,0-.38-1.05,3.69,3.69,0,0,0-.63-.91,3.81,3.81,0,0,0-.88-.71" transform="translate(-528.67 -44.13)" style="fill:#f9273c"/><path d="M1081.48,492.31a2.63,2.63,0,0,1-.88-.85A4.7,4.7,0,0,1,1080,490l3.19-.8v.52a7.57,7.57,0,0,1-.14,1.5,2.4,2.4,0,0,1-.36.9.77.77,0,0,1-.56.34,1.08,1.08,0,0,1-.68-.18m-1.71-4v-.56a7.68,7.68,0,0,1,.14-1.51,2.25,2.25,0,0,1,.37-.89.74.74,0,0,1,.55-.34,1.06,1.06,0,0,1,.68.17,2.61,2.61,0,0,1,.88.87,5,5,0,0,1,.6,1.44l-3.21.82m1.84-4.56a3.35,3.35,0,0,0-1.46-.49,1.43,1.43,0,0,0-1.08.37,2.57,2.57,0,0,0-.67,1.23,7.28,7.28,0,0,0-.24,2,11.37,11.37,0,0,0,.23,2.42,8.12,8.12,0,0,0,.67,2,6.11,6.11,0,0,0,1,1.49,5.36,5.36,0,0,0,1.31,1,3.16,3.16,0,0,0,1.44.49,1.48,1.48,0,0,0,1.08-.38,2.58,2.58,0,0,0,.68-1.23,7.75,7.75,0,0,0,.23-2,10.88,10.88,0,0,0-.23-2.44,8.49,8.49,0,0,0-.67-1.94,5.85,5.85,0,0,0-2.31-2.52" transform="translate(-528.67 -44.13)" style="fill:#7572ff"/><path d="M1088.8,495.06a.92.92,0,0,0-.45-.15.48.48,0,0,0-.34.08.64.64,0,0,0-.21.27,1.32,1.32,0,0,0-.07.42,1.27,1.27,0,0,0,0,.44l.14.38.18.35.18.35.14.36a1.62,1.62,0,0,1,0,.4.65.65,0,0,1-.14.45.53.53,0,0,1-.4.13,1.44,1.44,0,0,1-.59-.12,3.8,3.8,0,0,1-.55-.26l-.18-.11v1.2a5.2,5.2,0,0,0,1.55.63,1.81,1.81,0,0,0,1.11-.09,1.33,1.33,0,0,0,.67-.69,2.83,2.83,0,0,0,.22-1.18,4,4,0,0,0-.09-.83,3.76,3.76,0,0,0-.27-.82,2.92,2.92,0,0,0-.43-.7,1.94,1.94,0,0,0-.57-.51m.06-4.88a1.19,1.19,0,0,0-.47-.16.58.58,0,0,0-.37.08.57.57,0,0,0-.25.28,1.17,1.17,0,0,0-.09.48,2,2,0,0,0,.09.58,2.24,2.24,0,0,0,.25.57,2.7,2.7,0,0,0,.37.5,2,2,0,0,0,.46.37,1.18,1.18,0,0,0,.46.17.57.57,0,0,0,.37-.08.55.55,0,0,0,.26-.28,1.11,1.11,0,0,0,.09-.48,2.1,2.1,0,0,0-.09-.58,2.6,2.6,0,0,0-.25-.57,2.38,2.38,0,0,0-.37-.51,2.26,2.26,0,0,0-.46-.37" transform="translate(-528.67 -44.13)" style="fill:#f2f2f2"/><path d="M988.08,447.24l-.55-.32v1.41l.42.24a3.36,3.36,0,0,1,.56.41,2.38,2.38,0,0,1,.43.52,2.56,2.56,0,0,1,.28.7,3.22,3.22,0,0,1,.1.86v1.26a4.23,4.23,0,0,0,.33,1.85,3,3,0,0,0,1,1.23,1.77,1.77,0,0,0-.62-.16.54.54,0,0,0-.43.17,1.15,1.15,0,0,0-.25.52,4.45,4.45,0,0,0-.09.92v1.95a2,2,0,0,1-.1.73.64.64,0,0,1-.29.36.57.57,0,0,1-.43,0,2.14,2.14,0,0,1-.56-.24l-.42-.24v1.4l.55.32a3.74,3.74,0,0,0,1.22.51,1.15,1.15,0,0,0,.84-.1,1.25,1.25,0,0,0,.49-.69,4.58,4.58,0,0,0,.15-1.28v-2a2.15,2.15,0,0,1,.07-.63.47.47,0,0,1,.22-.33.5.5,0,0,1,.41,0,2.35,2.35,0,0,1,.6.26l.42.24v-1.42l-.42-.24a2.37,2.37,0,0,1-1-1,2.68,2.68,0,0,1-.3-1.32v-1.26a4.91,4.91,0,0,0-2.69-4.68" transform="translate(-528.67 -44.13)" style="fill:#f2f2f2"/></g><g id="Layer_3" data-name="Layer 3"><path d="M1076.87,733l121.15-70c4.78-2.76,12.54-2.76,17.32,0l165.88,95.77,8.43.72v7.08h0c0,1.81-1.2,3.62-3.59,5l-123.71,71.42c-4.78,2.76-12.54,2.76-17.32,0l-170.72-98.56c-2.39-1.38-3.59-3.19-3.59-5v-7Z" transform="translate(-528.67 -44.13)" style="fill:#999"/><path d="M1386.06,754.63l-170.72-98.57c-4.78-2.76-12.54-2.76-17.32,0l-123.71,71.43c-4.78,2.76-4.78,7.23,0,10L1245,836.05c4.78,2.76,12.54,2.76,17.32,0l123.71-71.42C1390.84,761.87,1390.84,757.39,1386.06,754.63Z" transform="translate(-528.67 -44.13)" style="fill:#ccc"/><g style="isolation:isolate"><g style="clip-path:url(#clip-path-5)"><path d="M1084.26,728.32l115.79-66.85a15.65,15.65,0,0,1,14.14,0l162,94.13c3.87,2.25,3.85,5.94-.05,8.19l-115.79,66.85a15.65,15.65,0,0,1-14.14,0l-162-94.13c-3.88-2.25-3.86-5.93,0-8.19" transform="translate(-528.67 -44.13)" style="fill:#1a1a1a"/></g></g><g style="isolation:isolate"><g style="clip-path:url(#clip-path-6)"><path d="M1319.8,804.75l7.3-4.21c.73-.42,1.33-.08,1.33.75a2.92,2.92,0,0,1-1.32,2.28l-7.3,4.22c-.73.42-1.33.07-1.33-.76a2.92,2.92,0,0,1,1.32-2.28" transform="translate(-528.67 -44.13)" style="fill:#1a1a1a"/></g></g></g></svg>