<svg width="539" height="275" viewBox="0 0 539 275" fill="none" xmlns="http://www.w3.org/2000/svg">
<path d="M515.076 152.035L513.388 165.455L509.197 198.788H425.014C425.671 191.317 426.57 180.564 427.53 168.955C427.624 167.796 427.724 166.629 427.818 165.455C430.226 136.275 432.86 103.254 432.86 103.254L443.928 105.312L465.4 109.297L474.15 110.92L497.581 115.275C509.264 117.442 517.299 134.326 515.076 152.035V152.035Z" fill="#F2F2F2"/>
<path d="M451.398 49.2551L461.75 67.3377L441.853 81.4128L433.365 59.1859L451.398 49.2551Z" fill="#FFB6B6"/>
<path d="M438.219 66.3621C452.383 66.3621 463.865 54.901 463.865 40.763C463.865 26.625 452.383 15.1639 438.219 15.1639C424.055 15.1639 412.572 26.625 412.572 40.763C412.572 54.901 424.055 66.3621 438.219 66.3621Z" fill="#FFB6B6"/>
<path d="M436.376 46.4858C434.34 43.3922 435.139 41.7742 433.434 40.6373C433.434 40.6373 432.748 40.1798 427.838 39.919C426.739 32.0216 425.367 31.0639 425.367 31.0639C423.785 29.9601 421.438 30.3188 419.978 30.9938C416.89 32.4216 417.248 35.5058 415.168 36.096C412.296 36.9113 407.07 32.3151 406.555 27.0535C406.135 22.7614 408.905 18.5928 410.004 18.8133C411.093 19.032 413.702 15.7081 415.11 15.7594C416.072 15.7944 420.002 14.0894 421.059 14.2227C422.214 14.3683 426.02 16.3512 426.179 15.8981C427.281 12.7501 426.957 11.8766 427.892 10.976C429.55 9.38019 432.261 10.4915 436.515 11.0881C445.266 12.3156 446.794 9.43528 451.279 11.3876C453.545 12.3738 455.44 15.0336 459.139 20.3128C464.312 27.6957 466.899 31.3871 466.916 35.6927C466.933 40.0835 464.802 39.8048 463.867 46.3052C462.825 53.5411 465.038 56.8498 462.62 59.2006C460.752 61.0175 456.954 61.4488 454.958 59.8542C451.542 57.1241 456.013 50.5365 452.232 45.7235C449.912 42.7692 445.244 41.4546 443.106 42.915C440.689 44.5662 442.021 49.413 440.321 49.8726C438.865 50.2662 436.731 47.0249 436.376 46.4858L436.376 46.4858Z" fill="#2F2E41"/>
<path d="M496.119 147.309C495.403 159.518 492.562 163.372 491.567 177.79C491.349 180.956 491.219 184.63 491.219 189.012C491.219 190.129 491.225 191.209 491.225 192.264C491.225 194.511 491.182 196.634 490.92 198.788C490.721 200.507 490.38 202.239 489.814 204.063H434.577C434.571 204.051 434.571 204.038 434.564 204.026C434.241 202.623 434.036 201.283 433.881 199.998C433.831 199.588 433.787 199.185 433.75 198.788C433.7 198.322 433.657 197.863 433.614 197.41C433.445 195.604 433.278 193.897 432.879 192.264C432.345 190.011 431.375 187.889 429.385 185.84C428.57 185.002 427.756 184.351 426.96 183.78C426.804 183.674 426.655 183.569 426.5 183.463C424.298 181.955 422.216 180.869 420.412 177.79C420.381 177.747 420.356 177.697 420.331 177.654C420.02 177.114 419.212 175.698 418.627 173.812C418.012 171.85 417.639 169.386 418.31 166.867C419.909 160.896 425.828 160.3 430.666 154.267C431.188 153.615 431.704 152.895 432.196 152.094C434.384 148.544 434.975 145.416 435.671 141.698C435.783 141.096 435.883 140.5 435.964 139.923C436.026 139.488 436.082 139.06 436.126 138.638C436.511 135.094 436.324 132.04 435.871 129.31C434.391 120.366 430.025 114.829 433.11 106.804C434.08 104.284 435.454 102.391 436.84 100.771C439.775 97.3385 442.791 95.1104 442.269 90.679C441.74 86.21 438.345 85.5954 437.966 81.6914C437.773 79.7178 438.42 77.6385 439.633 75.5965V75.5904C443.513 69.0173 453.201 62.9657 459.357 63.1582C460.495 63.1894 461.502 63.4436 462.341 63.934C465.382 65.7215 464.114 69.6255 468.771 75.1C472.234 79.1653 476.152 80.7916 477.638 81.561C483.527 84.6274 488.315 93.6705 491.567 105.234C491.592 105.321 491.616 105.407 491.641 105.501C493.65 112.744 495.068 120.968 495.771 129.31C496.069 132.841 496.243 136.391 496.28 139.904C496.312 142.71 496.249 145.143 496.119 147.309Z" fill="#3584FB"/>
<path d="M454.757 189.136L453.631 192.264L452.922 194.226L451.28 198.788L449.378 204.063H437.146L439.198 198.788L440.15 196.33L441.729 192.264L444.378 185.437L454.757 189.136Z" fill="#FFB6B6"/>
<path d="M491.761 104.166C491.73 104.57 491.686 105.016 491.642 105.501C491.158 110.429 490.013 119.248 488.341 129.31C487.458 134.616 486.425 140.271 485.262 145.888C482.763 158.009 479.654 169.945 476.14 177.79C475.512 179.205 474.866 180.484 474.206 181.614C473.703 182.476 473.174 183.327 472.621 184.164C470.83 186.914 468.821 189.521 466.738 191.954C466.658 192.06 466.564 192.159 466.471 192.264C466.135 192.661 465.787 193.053 465.439 193.444C463.735 195.361 461.994 197.149 460.309 198.788C458.257 200.786 456.279 202.555 454.507 204.063H434.646L434.565 204.026L431.705 202.76C431.705 202.76 432.519 201.804 433.881 199.998C434.161 199.632 434.46 199.228 434.783 198.788C435.181 198.247 435.61 197.652 436.07 197.006C437.028 195.653 438.116 194.064 439.285 192.264C441.549 188.782 444.129 184.5 446.734 179.541C447.033 178.963 447.337 178.38 447.642 177.79C447.648 177.772 447.661 177.753 447.667 177.734C448.183 176.729 448.693 175.692 449.203 174.637C453.525 165.662 454.762 158.214 455.117 155.8C455.614 152.386 456.304 147.613 456.118 142.362C455.993 138.899 455.49 135.237 454.29 131.6V131.594C454.041 130.83 453.761 130.067 453.444 129.309C452.878 127.95 452.206 126.61 451.41 125.288C447.897 119.466 445.043 119.224 442.773 112.88C442.102 111 440.578 106.754 441.045 102.273V102.267C441.101 101.714 441.194 101.156 441.318 100.597V100.591C441.349 100.436 441.393 100.275 441.437 100.119C441.791 98.7477 442.376 97.3882 443.265 96.0971C445 93.5899 447.368 92.1 449.489 91.2127L449.496 91.2063C451.945 90.1886 454.06 89.9713 454.47 89.934C463.555 89.1273 470.6 96.749 474.449 100.914C475.935 102.521 477.297 103.868 478.541 104.967C488.222 113.594 490.878 108.082 491.567 105.234C491.673 104.793 491.73 104.414 491.761 104.166V104.166Z" fill="#3584FB"/>
<path d="M491.791 103.843C491.791 103.874 491.785 103.98 491.76 104.154C491.772 104.06 491.779 103.967 491.785 103.88C491.785 103.862 491.785 103.849 491.791 103.843Z" fill="#3584FB"/>
<path d="M442.407 234.811H109.08C105.983 234.811 103.459 237.325 103.459 240.416C103.459 243.513 105.983 246.027 109.08 246.027H442.407C445.503 246.027 448.022 243.513 448.022 240.416C448.022 237.325 445.503 234.811 442.407 234.811Z" fill="#E6E6E6"/>
<path d="M146.172 50.445L167.179 41.6205L176.19 60.0578L154.114 69.0517L146.172 50.445Z" fill="#FFB6B6"/>
<path opacity="0.1" d="M146.172 50.445L167.179 41.6205L176.19 60.0578L154.114 69.0517L146.172 50.445Z" fill="black"/>
<path d="M149.157 43.4193L169.881 67.2529C169.881 67.2529 155.464 112.672 141.047 116.719C126.631 120.766 100.05 140.553 100.05 140.553L66.7109 118.967L82.9298 95.1338C82.9298 95.1338 122.125 41.6205 132.487 41.6205C142.849 41.6205 149.157 43.4192 149.157 43.4192V43.4193Z" fill="#3584FB"/>
<path d="M121.158 198.788H72.9162L69.8662 194.718L57.4137 178.102L54.5484 174.28C54.5484 174.28 43.7358 154.493 45.9884 136.505C48.241 118.518 71.6683 114.471 71.6683 114.471H72.6324L101.313 139.626L99.6007 163.037L108.683 178.102L121.158 198.788Z" fill="#2F2E41"/>
<path d="M82.7953 198.788H69.8652V179.676L82.7953 198.788Z" fill="#2F2E41"/>
<path d="M361.677 169.774L360.069 178.102L356.077 198.788H275.889C276.515 194.151 277.371 187.478 278.285 180.274C278.376 179.554 278.47 178.83 278.56 178.102C280.853 159.993 283.363 139.5 283.363 139.5L293.905 140.778L314.359 143.251L322.693 144.258L345.012 146.961C356.14 148.305 363.795 158.783 361.677 169.774H361.677Z" fill="#F2F2F2"/>
<path d="M475.159 198.788H431.666C432.328 198.01 432.702 197.56 432.702 197.56L445.74 195.411L472.605 190.986C472.605 190.986 473.83 194.147 475.159 198.788V198.788Z" fill="#2F2E41"/>
<path d="M290.673 59.4395L309.587 86.1395L276.594 87.123L273.053 62.0312L290.673 59.4395Z" fill="#A0616A"/>
<path opacity="0.1" d="M290.673 59.4395L309.587 86.1395L276.594 87.123L273.053 62.0312L290.673 59.4395Z" fill="black"/>
<path d="M197.395 114.76C194.968 107.772 189.388 103.357 184.933 104.9C180.478 106.442 178.834 113.357 181.263 120.347C182.195 123.153 183.786 125.695 185.904 127.761L196.562 157.241L210.315 151.954L198.348 123.453C198.73 120.521 198.404 117.54 197.395 114.76Z" fill="#A0616A"/>
<path d="M325.428 101.155L325.402 128.366L322.865 138.417L317.648 159.089L313.85 178.102L311.021 192.267L310.012 197.326C309.251 197.834 308.494 198.32 307.737 198.788H241.839C238.095 196.544 236 194.799 236 194.799C236 194.799 237.036 193.828 238.221 192.267C240.221 189.632 242.641 185.315 241.159 181.191C240.848 180.328 240.767 179.276 240.861 178.102C241.465 170.358 249.601 157.263 249.601 157.263L247.916 137.827L247.177 129.31L252.387 87.7811L269.367 77.9284L272.299 77.6453L301.236 76.0848L313.196 76.7728L313.741 76.9213L325.428 101.155V101.155Z" fill="#CCCCCC"/>
<path d="M326.714 198.788H312.297L311.662 192.267L311.648 192.137L315.73 191.858L326.349 191.134L326.534 195.037L326.678 198.032L326.714 198.788Z" fill="#FFB6B6"/>
<path d="M330.263 107.734L336.319 143.201L331.377 178.102L330.607 183.534L329.246 193.126L328.827 196.076L328.841 196.395L328.944 198.788H311.824L311.193 192.267L311.139 191.683L309.851 178.327L309.828 178.102L307.094 149.78L312.455 129.31L312.851 127.804V127.799L315.184 92.7504L313.377 76.8224L313.359 76.674C313.395 76.6965 313.427 76.719 313.463 76.7414C313.558 76.7999 313.652 76.8583 313.742 76.9213C324.267 83.5858 330.538 95.2778 330.263 107.734Z" fill="#CCCCCC"/>
<path d="M258.521 94.5774L251.938 87.7806C251.938 87.7806 237.844 94.1224 237.142 97.6408C236.439 101.159 211.556 152.834 211.556 152.834L200.73 123.974L186.639 133.365C186.639 133.365 197.946 178.172 208.52 180.276C219.095 182.38 254.536 127.242 254.536 127.242L258.521 94.5774H258.521Z" fill="#CCCCCC"/>
<path d="M525.836 177.79H13.1578C5.90122 177.79 0 183.687 0 190.93C0 198.173 5.90122 204.063 13.1578 204.063H525.836C533.093 204.063 539 198.173 539 190.93C539 183.686 533.093 177.79 525.836 177.79Z" fill="#E6E6E6"/>
<path d="M322.427 137.752L321.43 184.18C321.334 188.674 317.656 192.267 313.153 192.267H227.588C223.191 192.267 219.561 188.836 219.321 184.454L216.778 138.026C216.519 133.291 220.295 129.31 225.046 129.31H314.149C318.792 129.31 322.527 133.119 322.427 137.752Z" fill="#3F3D56"/>
<path d="M184.298 61.6523C195.604 61.6523 204.769 52.5038 204.769 41.2186C204.769 29.9334 195.604 20.7849 184.298 20.7849C172.992 20.7849 163.826 29.9334 163.826 41.2186C163.826 52.5038 172.992 61.6523 184.298 61.6523Z" fill="#FFB6B6"/>
<path d="M150.058 94.6841L152.311 118.967L167.629 180.575L154.395 185.205L132.037 118.068L128.949 91.0865L150.058 94.6841Z" fill="#FFB6B6"/>
<path d="M143.964 137.752L142.968 184.18C142.871 188.674 139.193 192.267 134.69 192.267H49.1256C44.7284 192.267 41.0982 188.836 40.8581 184.454L38.3153 138.026C38.056 133.291 41.8324 129.31 46.5828 129.31H135.686C140.329 129.31 144.064 133.119 143.964 137.752Z" fill="#3F3D56"/>
<path d="M170.068 192.581C178.997 192.581 186.235 189.385 186.235 185.443C186.235 181.501 178.997 178.306 170.068 178.306C161.139 178.306 153.9 181.501 153.9 185.443C153.9 189.385 161.139 192.581 170.068 192.581Z" fill="#FFB6B6"/>
<path d="M118.297 98.3967L127.533 49.2652C127.533 49.2652 153.212 45.6677 154.113 54.2119C155.015 62.756 153.47 104.512 153.47 104.512L118.297 98.3967V98.3967Z" fill="#3584FB"/>
<path d="M176.034 44.4315C176.034 44.4315 188.697 39.9202 194.039 37.4929C199.381 35.0657 209.993 51.9958 210.229 43.0544C210.465 34.113 206.799 30.3634 206.799 30.3634C206.799 30.3634 205.883 10.8029 186.14 13.2484C186.14 13.2484 190.482 3.46206 176.227 1.94878C161.972 0.435494 139.795 34.7954 141.781 39.9303C143.767 45.0652 146.148 49.3104 140.514 54.8008C134.879 60.2911 124.327 91.2772 132.355 99.6153C140.383 107.953 140.91 111.572 135.41 116.759C129.909 121.946 116.908 133.226 130.965 135.184C145.023 137.142 129.679 135.679 140.159 126.478C150.639 117.277 165.932 117.653 160.222 102.89C154.512 88.1268 164.432 66.9718 163.191 63.7625C161.95 60.5532 165.972 40.1739 165.972 40.1739C165.972 40.1739 175.334 38.801 176.034 44.4315V44.4315Z" fill="#2F2E41"/>
<path d="M280.56 69.1036C292.868 69.1036 302.845 59.1449 302.845 46.8601C302.845 34.5753 292.868 24.6166 280.56 24.6166C268.253 24.6166 258.275 34.5753 258.275 46.8601C258.275 59.1449 268.253 69.1036 280.56 69.1036Z" fill="#A0616A"/>
<path d="M282.338 16.9552C281.693 17.3309 280.829 16.7624 280.622 16.0463C280.416 15.3302 280.656 14.5698 280.895 13.8637L282.098 10.309C282.95 7.78798 283.855 5.17882 285.702 3.25996C288.49 0.363747 292.92 -0.373035 296.908 0.160738C302.029 0.846209 307.082 3.61419 309.463 8.19141C311.844 12.7686 310.831 19.1555 306.528 22.0112C312.66 29.0269 314.798 36.8457 314.46 46.1502C314.123 55.4546 303.964 64.0178 297.34 70.5724C295.86 69.6773 294.515 65.4823 295.329 63.9584C296.142 62.4344 294.977 60.6689 295.984 59.2652C296.992 57.8615 297.835 60.0966 296.816 58.7009C296.174 57.8201 298.682 55.7939 297.727 55.2668C293.106 52.7171 291.569 46.9677 288.666 42.5649C285.166 37.2544 279.174 33.658 272.833 33.0614C269.34 32.7327 265.651 33.328 262.788 35.3521C259.925 37.3761 258.072 40.9931 258.736 44.4317C257.016 42.6891 256.16 40.1354 256.483 37.7109C256.806 35.2864 258.3 33.0444 260.416 31.8106C259.13 27.5643 260.232 22.6798 263.218 19.3939C266.203 16.108 278.316 16.6677 282.675 17.5325L282.338 16.9552Z" fill="#2F2E41"/>
<path d="M283.014 33.1903C288.787 33.8124 292.956 38.8043 296.476 43.4144C298.505 46.0715 300.63 49.0058 300.579 52.3463C300.528 55.7236 298.265 58.6204 297.184 61.8211C295.417 67.0527 297.139 73.2772 301.346 76.8618C297.189 77.6492 292.696 74.5382 291.978 70.3763C291.143 65.5313 294.822 60.8551 294.387 55.9582C294.003 51.6439 290.597 48.3236 287.701 45.0978C284.805 41.872 282.086 37.5915 283.418 33.4695L283.014 33.1903Z" fill="#2F2E41"/>
<path d="M369.329 180.602C363.61 183.848 360.653 189.425 362.723 193.058C364.794 196.69 371.108 197.002 376.828 193.753C379.131 192.487 381.096 190.688 382.56 188.508L406.617 174.447L399.765 163.319L376.777 178.363C374.151 178.505 371.597 179.272 369.329 180.602Z" fill="#FFB6B6"/>
<path d="M450.78 77.4853C450.061 77.2009 443.753 74.8165 437.994 77.9645C431.379 81.5808 430.358 89.8358 429.999 92.7312C429.171 99.4196 431.61 100.919 432.125 107.69C433.088 120.358 435.628 105.906 431.572 111.688C430.168 113.69 415.829 144.707 407.921 150.782C392.542 162.598 382.775 170.92 382.775 170.92L393.925 183.009C393.925 183.009 411.543 178.323 427.115 168.23C443.089 157.878 451.076 152.701 457.255 142.575C457.787 141.703 470.519 120.121 463.681 96.2576C462.121 90.8143 459.264 80.841 450.78 77.4853Z" fill="#3584FB"/>
<path d="M508.351 137.752L507.354 184.18C507.258 188.674 503.58 192.267 499.076 192.267H413.512C409.115 192.267 405.485 188.836 405.245 184.454L402.702 138.026C402.443 133.291 406.219 129.31 410.969 129.31H500.073C504.715 129.31 508.45 133.119 508.351 137.752Z" fill="#3F3D56"/>
</svg>
