<svg id="Layer_1" data-name="Layer 1" xmlns="http://www.w3.org/2000/svg" viewBox="0 0 2068.45 1954.18"><defs><style>.cls-1{fill:none}.cls-4{fill:#999}.cls-5{fill:#ccc}.cls-7{fill:#1a1a1a}.cls-10{fill:#e6e6e6}.cls-12{isolation:isolate}</style><clipPath id="clip-path" transform="translate(187.76 308.96)"><path class="cls-1" d="M1262.59 456.39l252.43-145.74v-70.77L1262.59 390v66.39z"/></clipPath><clipPath id="clip-path-2" transform="translate(187.76 308.96)"><path class="cls-1" d="M973.71 490.65l.58-205.49 246.86 142.53-.58 205.49-246.86-142.53z"/></clipPath><clipPath id="clip-path-3" transform="translate(187.76 308.96)"><path class="cls-1" d="M1505.71 314.08l-.01-6.14 5.34-3.09.02 6.15-5.35 3.08z"/></clipPath><clipPath id="clip-path-4" transform="translate(187.76 308.96)"><path class="cls-1" d="M1498.67 318.71l-.02-6.15 5.35-3.09.02 6.15-5.35 3.09z"/></clipPath><clipPath id="clip-path-5" transform="translate(187.76 308.96)"><path class="cls-1" d="M1491.13 323.23l-.01-6.15 5.34-3.09.02 6.15-5.35 3.09z"/></clipPath></defs><path fill="#0071bc" d="M2068.45 1411.35V868.52L658.14 1682.77l470.11 271.41 940.2-542.83z"/><path fill="#29abe2" d="M2068.45 868.52L564.12 0 0 325.7v977.09l658.14 379.98 1410.31-814.25z"/><path class="cls-4" d="M1683 571.55l-144.9-83.63c-4.79-2.76-12.54-2.76-17.33 0L1270.4 632.47l-16.4 2.42v10c0 1.81 1.2 3.62 3.59 5l151 87.16c4.79 2.76 12.54 2.76 17.32 0l263.16-151.93c2.39-1.38 3.59-3.19 3.59-5v-10z" transform="translate(187.76 308.96)"/><path class="cls-5" d="M1520.77 478l-263.15 151.89c-4.79 2.76-4.79 7.24 0 10l151 87.16c4.79 2.76 12.54 2.76 17.32 0l263.16-151.94c4.78-2.76 4.78-7.23 0-10l-151-87.11c-4.79-2.81-12.54-2.81-17.33 0z" transform="translate(187.76 308.96)"/><path class="cls-4" d="M1520.81 290.71V458c0 5.52-3.88 12.24-8.66 15l-250.38 144.52-10.28 13-8.63-5c-1.56-.9-2.53-2.84-2.53-5.6V445.58c0-5.52 3.88-12.23 8.66-15l263.16-151.93c2.39-1.38 4.55-1.51 6.12-.61l8.63 5z" transform="translate(187.76 308.96)"/><path d="M1520.77 478l-263.15 151.89c-4.79 2.76-8.66.52-8.66-5V450.57c0-5.53 3.87-12.24 8.66-15l263.15-151.94c4.79-2.76 8.66-.52 8.66 5V463c0 5.48-3.87 12.19-8.66 15z" transform="translate(187.76 308.96)" fill="#b3b3b3"/><path class="cls-7" d="M1271.25 441.39l235.11-135.74c4.78-2.76 8.66-.53 8.66 5v141.93c0 5.52-3.88 12.24-8.66 15l-235.11 135.74c-4.78 2.76-8.66.52-8.66-5V456.39c0-5.52 3.88-12.24 8.66-15z" transform="translate(187.76 308.96)"/><g clip-path="url(#clip-path)"><path d="M1271.25 441.39l235.11-135.74c4.78-2.76 8.66-.53 8.66 5v141.93c0 5.52-3.88 12.24-8.66 15l-235.11 135.74c-4.78 2.76-8.66.52-8.66-5V456.39c0-5.52 3.88-12.24 8.66-15z" transform="translate(187.76 308.96)" fill="#333"/></g><path class="cls-10" d="M1283.43 628.68l234.81-135.57c4.78-2.76 12.54-2.77 17.33 0l67.09 38.46c4.8 2.75 4.8 7.22 0 10l-235.09 135.69c-4.78 2.76-12.54 2.76-17.32 0l-66.82-38.58c-4.79-2.76-4.79-7.24 0-10zM1459.67 633.27l66.82-38.58c4.78-2.76 12.54-2.76 17.32 0l38.77 22.39c4.79 2.76 4.79 7.24 0 10l-66.82 38.58c-4.78 2.76-12.54 2.76-17.32 0l-38.77-22.39c-4.79-2.76-4.79-7.27 0-10z" transform="translate(187.76 308.96)"/><path d="M1154.69 586.63v222.9c0 5.52 3.88 12.24 8.66 15l249.13 143.84c4.79 2.76 8.66.52 8.66-5v-222.9c0-5.53-3.87-12.24-8.66-15l-249.13-143.84c-4.78-2.76-8.66-.52-8.66 5z" stroke="#1a1a1a" stroke-miterlimit="10" stroke-width="4" fill="none"/><g clip-path="url(#clip-path-2)"><path class="cls-7" d="M977.5 295.92l.25-2.6 1.92 1.11-.25 2.6-1.92-1.11m4.23-5.06l-1.63-.94-.28 2.85-1.91-1.11.27-2.85-1.63-.94-.28 2.85-1.55-.9v1.74l1.41.82-.25 2.6-1.61-.93v1.75l1.46.84-.3 3.08 1.63.94.29-3.08 1.93 1.11-.3 3.08 1.63.94.29-3.08 1.59.91v-1.74l-1.43-.83.25-2.6 1.63.94v-1.75l-1.47-.85.27-2.85M989.25 298l-4.46-2.58v1.82l2.38 1.38v6.07l-2.67-1.54V305l7.19 4.15v-1.81l-2.44-1.41v-7.89m-1.14-4.85a1.36 1.36 0 0 0-.53-.19.73.73 0 0 0-.42.09.73.73 0 0 0-.28.32 1.33 1.33 0 0 0-.1.54 2.48 2.48 0 0 0 .09.65 3.36 3.36 0 0 0 .28.65 3.28 3.28 0 0 0 .42.56 2.33 2.33 0 0 0 .53.43 1.24 1.24 0 0 0 .53.18.81.81 0 0 0 .42-.08.72.72 0 0 0 .27-.32 1.13 1.13 0 0 0 .11-.54 2.19 2.19 0 0 0-.1-.65 3.36 3.36 0 0 0-.28-.65 3 3 0 0 0-.42-.57 2.28 2.28 0 0 0-.52-.42M998.29 303a3.66 3.66 0 0 0-.84-.37 2.19 2.19 0 0 0-.7-.08 1.74 1.74 0 0 0-.6.18 2.73 2.73 0 0 0-.54.37l-.05-1.47-1.75-1v9.71l2 1.17v-6.14a3.37 3.37 0 0 1 1-.73 1 1 0 0 1 1 .09 2.31 2.31 0 0 1 1 2.19v6.33l2 1.17v-6.52a6.67 6.67 0 0 0-.16-1.49 6 6 0 0 0-.48-1.35 5.18 5.18 0 0 0-.81-1.15 4.77 4.77 0 0 0-1.13-.9M1007.57 308.41a5.19 5.19 0 0 0-1.82-.69 2.3 2.3 0 0 0-1.41.22 2.2 2.2 0 0 0-.91 1.1 5 5 0 0 0-.32 1.92 8.5 8.5 0 0 0 .29 2.29 7.65 7.65 0 0 0 .85 2 8.19 8.19 0 0 0 1.35 1.72 9 9 0 0 0 1.8 1.35 8.52 8.52 0 0 0 1.34.64 5 5 0 0 0 1.24.3v-2.07a3.8 3.8 0 0 1-.53-.08c-.19 0-.39-.09-.58-.15a4.84 4.84 0 0 1-.6-.22 4.73 4.73 0 0 1-.55-.28 4.47 4.47 0 0 1-1-.78 4.64 4.64 0 0 1-.76-1 5 5 0 0 1-.66-2.57 3.44 3.44 0 0 1 .16-1.14 1.37 1.37 0 0 1 .47-.67 1.09 1.09 0 0 1 .76-.18 2.37 2.37 0 0 1 1 .37 7.52 7.52 0 0 1 1.15.82 8.88 8.88 0 0 1 1.11 1.1v-2.26a11.52 11.52 0 0 0-1-.84 13.88 13.88 0 0 0-1.38-.9" transform="translate(187.76 308.96)"/><path class="cls-7" d="M1205.11 619.37l-4.47-2.58v1.82l2.39 1.38-.03 9.87-2.68-1.55v1.81l7.19 4.15v-1.81l-2.44-1.41.04-11.68"/><path class="cls-7" d="M1028.94 320.9l-2-1.17v6.14a3.58 3.58 0 0 1-1 .74 1 1 0 0 1-1-.08 2 2 0 0 1-.78-.86 3.22 3.22 0 0 1-.25-1.35V318l-2-1.18v6.52a6.08 6.08 0 0 0 .16 1.49 5.48 5.48 0 0 0 .48 1.36 5.15 5.15 0 0 0 .81 1.16 4.77 4.77 0 0 0 1.13.9 3.53 3.53 0 0 0 .83.36 2 2 0 0 0 .71.07 1.5 1.5 0 0 0 .59-.18 3.05 3.05 0 0 0 .55-.36v1.46l1.75 1v-9.71M1034.3 331.94a2.22 2.22 0 0 1-.62-.53 2.65 2.65 0 0 1-.46-.79 5.17 5.17 0 0 1-.29-1.1 10.13 10.13 0 0 1-.09-1.43 4.62 4.62 0 0 1 .16-1.27 1.66 1.66 0 0 1 .43-.78 1 1 0 0 1 .67-.26 1.76 1.76 0 0 1 .88.28 6.22 6.22 0 0 1 .71.47 7 7 0 0 1 .6.52v4.24a3.53 3.53 0 0 1-1 .74 1 1 0 0 1-1-.09m4-9.41l-2-1.18v3.8c-.17-.15-.36-.3-.57-.46a6.29 6.29 0 0 0-.64-.41 5.57 5.57 0 0 0-1.73-.69 2.1 2.1 0 0 0-1.38.15 2.08 2.08 0 0 0-.92 1.11 5.57 5.57 0 0 0-.33 2.12 10.06 10.06 0 0 0 .2 2.15 8.53 8.53 0 0 0 .6 1.89 6.38 6.38 0 0 0 1 1.54 5.21 5.21 0 0 0 1.33 1.11 3.31 3.31 0 0 0 .82.36 2.06 2.06 0 0 0 .69.06 1.43 1.43 0 0 0 .61-.17 2.74 2.74 0 0 0 .55-.36v1.46l1.75 1v-13.49M1042.39 332.45a1.65 1.65 0 0 1 .59-1.32 1.19 1.19 0 0 1 1.26.14 3 3 0 0 1 .65.51 3.27 3.27 0 0 1 .53.72 4 4 0 0 1 .36.9 3.77 3.77 0 0 1 .12 1.08l-3.51-2m1.89-2.9a3.93 3.93 0 0 0-1.64-.57 1.74 1.74 0 0 0-1.26.35 2.51 2.51 0 0 0-.8 1.2 6 6 0 0 0-.29 2 8.69 8.69 0 0 0 .28 2.26 8 8 0 0 0 .81 2 8.08 8.08 0 0 0 1.29 1.68 8.29 8.29 0 0 0 1.73 1.31l.79.43.81.36.78.3c.25.09.49.16.71.22v-1.86a10.39 10.39 0 0 1-1.46-.48 13.51 13.51 0 0 1-1.32-.65 5.73 5.73 0 0 1-1-.73 5.57 5.57 0 0 1-.74-.94 4.82 4.82 0 0 1-.48-1.09 4.51 4.51 0 0 1-.17-1.23l5.56 3.21v-.69-.62a8 8 0 0 0-.23-1.88 7.53 7.53 0 0 0-.71-1.77 6.91 6.91 0 0 0-1.15-1.56 7.22 7.22 0 0 0-1.59-1.24" transform="translate(187.76 308.96)"/><path class="cls-7" d="M1252.4 649.55l-5.62 2.18 5.59 8.66 1.3-.76-4.12-6.31 4.14-1.51-1.29-2.26"/><path class="cls-7" d="M1072 353.83a5.48 5.48 0 0 1-.73-.49 5.16 5.16 0 0 1-.59-.51v-4.24a3.38 3.38 0 0 1 1-.72 1 1 0 0 1 1 .09 2.35 2.35 0 0 1 .62.52 2.78 2.78 0 0 1 .45.8 5.53 5.53 0 0 1 .29 1.09 9.88 9.88 0 0 1 .09 1.42 4.68 4.68 0 0 1-.15 1.28 1.66 1.66 0 0 1-.43.78 1 1 0 0 1-.68.25 1.59 1.59 0 0 1-.87-.27m-1.29-12.6l-2-1.17v13.09c.48.46 1 .89 1.51 1.3a15.14 15.14 0 0 0 1.72 1.15 5.46 5.46 0 0 0 1.74.69 2 2 0 0 0 1.39-.15 2.1 2.1 0 0 0 .92-1.1 5.5 5.5 0 0 0 .33-2.12 10 10 0 0 0-.2-2.14 8.36 8.36 0 0 0-.6-1.89 6.44 6.44 0 0 0-1-1.55 5.17 5.17 0 0 0-1.33-1.1 2.56 2.56 0 0 0-1.47-.44 1.77 1.77 0 0 0-1.07.47l.08-1.86v-3.18M1082.86 352l-4.46-2.57v1.82l2.39 1.37v6.08l-2.67-1.55V359l7.19 4.15v-1.81l-2.44-1.41v-7.9m-1.14-4.85a1.39 1.39 0 0 0-.53-.18.7.7 0 0 0-.43.08.74.74 0 0 0-.27.33 1.25 1.25 0 0 0-.11.53 2.58 2.58 0 0 0 .1.66 3.27 3.27 0 0 0 .28.64 3.8 3.8 0 0 0 .42.57 2.33 2.33 0 0 0 .53.42 1.2 1.2 0 0 0 .52.18.63.63 0 0 0 .42-.08.61.61 0 0 0 .29-.32 1.38 1.38 0 0 0 .09-.54 2.6 2.6 0 0 0-.09-.65 3.27 3.27 0 0 0-.28-.64 2.62 2.62 0 0 0-.94-1M1091.11 353.69l-2.08-.58v2.48l-2.26-1.31v1.82l2.27 1.31v4.73a6.45 6.45 0 0 0 .19 1.63 4.55 4.55 0 0 0 .58 1.38 5.5 5.5 0 0 0 1 1.19 8.32 8.32 0 0 0 1.44 1 10.26 10.26 0 0 0 1 .52c.37.16.74.29 1.11.41v-1.87c-.26-.07-.55-.16-.86-.27a7.23 7.23 0 0 1-1-.47 2.87 2.87 0 0 1-1.11-1.07 3 3 0 0 1-.33-1.45v-4.56l3.28 1.9v-1.82l-3.28-1.9v-3.1M1100.61 362.08a6.45 6.45 0 0 0-1.61-.71 2.44 2.44 0 0 0-1.16 0 1.15 1.15 0 0 0-.69.53 1.8 1.8 0 0 0-.24 1 4.26 4.26 0 0 0 .15 1.15 4.36 4.36 0 0 0 .47 1.07 6.17 6.17 0 0 0 .77 1 14 14 0 0 0 1.09 1.09c.45.4.81.74 1.09 1a7 7 0 0 1 .64.72 1.76 1.76 0 0 1 .31.53 1.19 1.19 0 0 1 .09.44c0 .32-.14.49-.4.54a2.13 2.13 0 0 1-1.2-.4 11.63 11.63 0 0 1-1.47-1 14.47 14.47 0 0 1-1.55-1.44v2.11a17.8 17.8 0 0 0 1.42 1.1 18.92 18.92 0 0 0 1.68 1.07 6.78 6.78 0 0 0 1.36.62 2.66 2.66 0 0 0 1.2.16 1.18 1.18 0 0 0 .85-.47 2 2 0 0 0 .33-1.23 4.32 4.32 0 0 0-.14-1.08 3.59 3.59 0 0 0-.43-1 6.4 6.4 0 0 0-.8-1.09 15.86 15.86 0 0 0-1.23-1.21c-.43-.39-.77-.72-1-1a9.21 9.21 0 0 1-.61-.69 1.9 1.9 0 0 1-.3-.51 1.29 1.29 0 0 1-.07-.43c0-.31.13-.47.38-.51a1.87 1.87 0 0 1 1 .33 13 13 0 0 1 1.26.83 16 16 0 0 1 1.36 1.16v-1.9c-.31-.25-.67-.54-1.08-.83a15.33 15.33 0 0 0-1.42-.91" transform="translate(187.76 308.96)"/><path class="cls-7" d="M1301.14 674.81l-1.98-1.14-5.85 12.2 1.97 1.14 5.86-12.2"/><path class="cls-7" d="M1119.34 372.89a6.29 6.29 0 0 0-1.62-.71 2.28 2.28 0 0 0-1.15 0 1.16 1.16 0 0 0-.7.52 2 2 0 0 0-.23 1 4.26 4.26 0 0 0 .15 1.15 4 4 0 0 0 .46 1.06 6.38 6.38 0 0 0 .77 1.05c.32.35.68.71 1.09 1.08s.81.75 1.09 1a8.27 8.27 0 0 1 .64.71 1.93 1.93 0 0 1 .31.54 1.15 1.15 0 0 1 .09.44c0 .32-.13.49-.4.53a2 2 0 0 1-1.19-.39 13.43 13.43 0 0 1-1.47-1 14.75 14.75 0 0 1-1.56-1.45v2.11a17.61 17.61 0 0 0 1.41 1.1c.5.36 1.06.71 1.68 1.07a7.39 7.39 0 0 0 1.36.62 2.68 2.68 0 0 0 1.21.16 1.16 1.16 0 0 0 .84-.47 1.9 1.9 0 0 0 .33-1.23 4.32 4.32 0 0 0-.13-1.08 4.15 4.15 0 0 0-.44-1 6.79 6.79 0 0 0-.79-1.07 16.1 16.1 0 0 0-1.24-1.22c-.43-.39-.77-.72-1-1a6.5 6.5 0 0 1-.62-.7 1.87 1.87 0 0 1-.3-.5 1.31 1.31 0 0 1-.07-.44c0-.3.13-.47.38-.49a1.73 1.73 0 0 1 1 .31 13.13 13.13 0 0 1 1.26.84 16 16 0 0 1 1.36 1.16v-1.9c-.32-.25-.68-.54-1.09-.83a14.41 14.41 0 0 0-1.41-.91M1128.55 375.3l-2.08-.57v2.48l-2.28-1.31v1.82l2.27 1.31v4.73a7 7 0 0 0 .18 1.63 4.92 4.92 0 0 0 .58 1.37 5.65 5.65 0 0 0 1 1.2 7.84 7.84 0 0 0 1.43 1 9.52 9.52 0 0 0 1.06.53c.37.16.73.29 1.1.41v-1.87c-.26-.07-.55-.16-.87-.28a6 6 0 0 1-1-.46 2.9 2.9 0 0 1-1.12-1.07 3.13 3.13 0 0 1-.33-1.45v-4.56l3.29 1.9v-1.82l-3.29-1.9v-3.09M1137.27 391.39a2.22 2.22 0 0 1-.62-.53 2.76 2.76 0 0 1-.47-.79 5.21 5.21 0 0 1-.27-1.1 8.74 8.74 0 0 1-.1-1.43 5.14 5.14 0 0 1 .15-1.27 1.61 1.61 0 0 1 .44-.77.94.94 0 0 1 .67-.27 1.69 1.69 0 0 1 .88.28 6.33 6.33 0 0 1 .71.48 5.63 5.63 0 0 1 .6.51v4.24a3.93 3.93 0 0 1-1 .74 1 1 0 0 1-1-.09m4-9.42l-2-1.17v3.8a6 6 0 0 0-.57-.46 7.49 7.49 0 0 0-.63-.41 5.71 5.71 0 0 0-1.74-.69 2.09 2.09 0 0 0-1.38.15 2.12 2.12 0 0 0-.92 1.11 5.57 5.57 0 0 0-.33 2.12 10.58 10.58 0 0 0 .2 2.14 8 8 0 0 0 .6 1.9 6.38 6.38 0 0 0 1 1.54 5 5 0 0 0 1.33 1.11 3.31 3.31 0 0 0 .82.36 2.11 2.11 0 0 0 .69.06 1.59 1.59 0 0 0 .61-.17 3.05 3.05 0 0 0 .55-.36v1.46l1.75 1v-13.5M1148 389.48a5 5 0 0 0-1.82-.69 2 2 0 0 0-2.32 1.32 5 5 0 0 0-.32 1.92 8.5 8.5 0 0 0 .29 2.29 7.78 7.78 0 0 0 .85 2 8 8 0 0 0 1.35 1.72 8.84 8.84 0 0 0 1.81 1.36 7.56 7.56 0 0 0 1.33.63 5 5 0 0 0 1.24.31v-2.04c-.17 0-.35 0-.54-.08l-.58-.15a6 6 0 0 1-.59-.22 4.18 4.18 0 0 1-.56-.28 4.74 4.74 0 0 1-1.77-1.82 5.46 5.46 0 0 1-.49-1.22 5.1 5.1 0 0 1-.17-1.35 3.42 3.42 0 0 1 .17-1.14 1.34 1.34 0 0 1 .47-.68 1.11 1.11 0 0 1 .76-.17 2.41 2.41 0 0 1 1 .37 8.64 8.64 0 0 1 1.15.82 9.6 9.6 0 0 1 1.11 1.1v-2.26a11.44 11.44 0 0 0-1-.84 13.88 13.88 0 0 0-1.38-.9" transform="translate(187.76 308.96)"/><path class="cls-7" d="M1345.17 703.88l-1.87-1.08-.01 3.69-3.1-1.78v1.92l3.09 1.79-.01 3.72 1.87 1.08.01-3.72 3.11 1.79v-1.92l-3.1-1.8.01-3.69M1354.53 709.28l-1.87-1.08-.01 3.7-3.1-1.79v1.92l3.09 1.79-.01 3.72 1.87 1.08.01-3.72 3.11 1.79v-1.92l-3.1-1.79.01-3.7"/><path class="cls-7" d="M1175.13 411.5a1.49 1.49 0 0 0-.63-.22 1 1 0 0 0-.51.11.9.9 0 0 0-.34.4 1.5 1.5 0 0 0-.12.66 2.4 2.4 0 0 0 .11.79 4.28 4.28 0 0 0 .34.79 4.06 4.06 0 0 0 .51.7 2.52 2.52 0 0 0 .63.51 1.66 1.66 0 0 0 .64.23.92.92 0 0 0 .53-.11.82.82 0 0 0 .34-.39 1.39 1.39 0 0 0 .13-.65 2.82 2.82 0 0 0-.12-.8 4 4 0 0 0-.35-.8 3.53 3.53 0 0 0-.52-.7 2.57 2.57 0 0 0-.64-.52M1183.07 406.09l-2-1.17v13.49l2 1.18v-6.14a3.64 3.64 0 0 1 1-.73 1 1 0 0 1 1 .09 2.31 2.31 0 0 1 1 2.19v6.33l2 1.17v-6.52a6.67 6.67 0 0 0-.15-1.49 6 6 0 0 0-.48-1.35 5.18 5.18 0 0 0-.81-1.15 4.77 4.77 0 0 0-1.13-.9 3.57 3.57 0 0 0-.79-.36 2.34 2.34 0 0 0-.67-.09 1.54 1.54 0 0 0-.57.14 2.45 2.45 0 0 0-.52.34l.1-1.71v-3.32" transform="translate(187.76 308.96)"/><path class="cls-7" d="M1379.9 723.17l-1.28.77 4.1 6.3-4.13 1.52 1.28 2.25 5.62-2.19-5.59-8.65"/><path class="cls-7" d="M982 340.83l-2-1.17v6.15a3.76 3.76 0 0 1-1 .73 1 1 0 0 1-1-.08 1.89 1.89 0 0 1-.77-.86 3.07 3.07 0 0 1-.26-1.35v-6.32l-2-1.17v6.51a6.61 6.61 0 0 0 .16 1.49 5.48 5.48 0 0 0 .48 1.36 5.15 5.15 0 0 0 .81 1.16 4.63 4.63 0 0 0 1.14.9 3 3 0 0 0 .83.36 1.94 1.94 0 0 0 .7.07 1.28 1.28 0 0 0 .59-.18 3.05 3.05 0 0 0 .55-.36l.05 1.46 1.75 1v-9.71M988.15 344.18a6.25 6.25 0 0 0-1.61-.71 2.44 2.44 0 0 0-1.16 0 1.12 1.12 0 0 0-.69.53 1.8 1.8 0 0 0-.24 1 4.26 4.26 0 0 0 .15 1.15 4.55 4.55 0 0 0 .46 1.07 6.87 6.87 0 0 0 .78 1 12.4 12.4 0 0 0 1.09 1.08c.45.41.81.75 1.08 1s.49.52.65.71a2.21 2.21 0 0 1 .31.54 1.14 1.14 0 0 1 .08.44c0 .32-.13.49-.4.54a2.09 2.09 0 0 1-1.19-.4 12.1 12.1 0 0 1-1.46-1 14.83 14.83 0 0 1-1.56-1.45v2.11c.44.38.92.75 1.41 1.1a18.13 18.13 0 0 0 1.68 1.07 6.85 6.85 0 0 0 1.37.62 2.79 2.79 0 0 0 1.2.16 1.18 1.18 0 0 0 .85-.47 1.87 1.87 0 0 0 .33-1.22 4.85 4.85 0 0 0-.13-1.09 4.56 4.56 0 0 0-.44-1 6.9 6.9 0 0 0-.8-1.07 15.82 15.82 0 0 0-1.23-1.22c-.43-.39-.78-.72-1-1a7.83 7.83 0 0 1-.62-.7 2.09 2.09 0 0 1-.29-.5 1.32 1.32 0 0 1-.08-.44c0-.3.13-.47.39-.49a1.75 1.75 0 0 1 1 .31 14.51 14.51 0 0 1 1.26.84c.42.32.87.71 1.36 1.16v-1.9c-.32-.25-.68-.54-1.09-.83a14.41 14.41 0 0 0-1.41-.91M998.48 350.35l-4.48-2.58v1.82l2.4 1.41v6.07l-2.68-1.54v1.81l7.19 4.15v-1.81l-2.44-1.41v-7.89m-1.14-4.85a1.42 1.42 0 0 0-.53-.19.73.73 0 0 0-.42.09.67.67 0 0 0-.29.33 1.36 1.36 0 0 0-.09.53 2.48 2.48 0 0 0 .09.65 3.27 3.27 0 0 0 .28.64 3 3 0 0 0 .42.57 2 2 0 0 0 .53.42 1.23 1.23 0 0 0 .52.19.87.87 0 0 0 .43-.08.73.73 0 0 0 .28-.32 1.68 1.68 0 0 0 .1-.54 2.43 2.43 0 0 0-.1-.64 3.05 3.05 0 0 0-.7-1.23 2.28 2.28 0 0 0-.52-.42M1007.52 355.36a3.66 3.66 0 0 0-.84-.37 2.22 2.22 0 0 0-.7-.08 1.73 1.73 0 0 0-.6.17 2.78 2.78 0 0 0-.54.38l-.05-1.47-1.75-1v9.71l2 1.16v-6.14a3.58 3.58 0 0 1 1-.72 1 1 0 0 1 1 .09 2.31 2.31 0 0 1 1 2.19v6.32l2 1.17v-6.51a7.41 7.41 0 0 0-.15-1.5 5.5 5.5 0 0 0-.49-1.34 4.64 4.64 0 0 0-.8-1.15 4.77 4.77 0 0 0-1.13-.9M1015.81 372.47a5.5 5.5 0 0 1-1.39-1.08 1.62 1.62 0 0 1-.5-1.11 1.83 1.83 0 0 1 0-.35.61.61 0 0 1 .12-.27.8.8 0 0 1 .24-.2 1.34 1.34 0 0 1 .4-.13l1.79 1.07a4.69 4.69 0 0 1 .56.4 4.57 4.57 0 0 1 .44.44 1.87 1.87 0 0 1 .29.46 1.19 1.19 0 0 1 .1.49 1.12 1.12 0 0 1-.11.5.49.49 0 0 1-.36.25 1.21 1.21 0 0 1-.64 0 4 4 0 0 1-1-.43m0-7.24a2.86 2.86 0 0 1-1.1-1.08 2.81 2.81 0 0 1-.39-1.46 1.78 1.78 0 0 1 .09-.63.92.92 0 0 1 .27-.41.72.72 0 0 1 .47-.12 1.49 1.49 0 0 1 .65.24 2.93 2.93 0 0 1 1.1 1.08 3 3 0 0 1 .39 1.5 1.91 1.91 0 0 1-.09.61.76.76 0 0 1-.27.39.73.73 0 0 1-.47.11 1.42 1.42 0 0 1-.65-.23m0-5.08a4.47 4.47 0 0 0-1.35-.55 1.82 1.82 0 0 0-1.07 0 1.37 1.37 0 0 0-.71.66 3.12 3.12 0 0 0-.26 1.3 4.65 4.65 0 0 0 .2 1.38 6.25 6.25 0 0 0 .51 1.14l-.33.28a2.3 2.3 0 0 0-.28.34 2.14 2.14 0 0 0-.2.43 1.82 1.82 0 0 0-.07.56 2.66 2.66 0 0 0 .21 1 3.63 3.63 0 0 0 .62 1 2.81 2.81 0 0 0-.54.19 1.25 1.25 0 0 0-.37.3 1.22 1.22 0 0 0-.23.42 2.46 2.46 0 0 0-.08.58 3.27 3.27 0 0 0 .23 1.15 4.66 4.66 0 0 0 .69 1.2 7.57 7.57 0 0 0 1.2 1.21 12.23 12.23 0 0 0 1.76 1.2 7.18 7.18 0 0 0 1.85.81 2.74 2.74 0 0 0 1.34.07 1.25 1.25 0 0 0 .81-.58 2.15 2.15 0 0 0 .27-1.13 3.51 3.51 0 0 0-.22-1.18 4.53 4.53 0 0 0-.59-1.13 7.08 7.08 0 0 0-.94-1 8.59 8.59 0 0 0-1.2-.84l-2-1.24a2.67 2.67 0 0 1-.4-.32 4.68 4.68 0 0 1-.31-.37 1.45 1.45 0 0 1-.19-.4.85.85 0 0 1-.07-.33.76.76 0 0 1 .1-.4.79.79 0 0 1 .24-.21 4.37 4.37 0 0 0 .57.55 5.19 5.19 0 0 0 .81.58 4.89 4.89 0 0 0 1.37.57 1.83 1.83 0 0 0 1.07 0 1.3 1.3 0 0 0 .69-.64 2.9 2.9 0 0 0 .25-1.29 3.32 3.32 0 0 0-.1-.81 4 4 0 0 0-.32-.89l1.33.77v-1.7l-2.92-1.69a5.39 5.39 0 0 0-.63-.51c-.23-.16-.47-.32-.72-.46M1035.6 371.57a3.66 3.66 0 0 0-.84-.37 1.92 1.92 0 0 0-.7-.07 1.59 1.59 0 0 0-.6.17 3.47 3.47 0 0 0-.54.37v-1.46l-1.76-1v9.71l2 1.17v-6.14a3.47 3.47 0 0 1 1-.73 1 1 0 0 1 1 .1 2.28 2.28 0 0 1 1 2.18v6.33l2 1.17v-6.52a7.31 7.31 0 0 0-.16-1.48 5.18 5.18 0 0 0-.49-1.35 4.84 4.84 0 0 0-.8-1.15 4.57 4.57 0 0 0-1.13-.9M1043.58 384.48a2.63 2.63 0 0 1-.91-.84 1.92 1.92 0 0 1-.33-1.09 1.12 1.12 0 0 1 .11-.5.53.53 0 0 1 .32-.27 1.09 1.09 0 0 1 .59 0 3.76 3.76 0 0 1 .87.38l1.24.72v1.31a3.63 3.63 0 0 1-1 .43 1.24 1.24 0 0 1-.88-.16m.36-8.09a10.15 10.15 0 0 0-1.65-.78 7.31 7.31 0 0 0-1.4-.35v1.87a5.54 5.54 0 0 1 1.41.26 7.09 7.09 0 0 1 1.48.66 4.7 4.7 0 0 1 .8.57 3.41 3.41 0 0 1 .53.63 2.47 2.47 0 0 1 .29.69 2.84 2.84 0 0 1 .09.72v.58l-1.1-.64a8.62 8.62 0 0 0-1.83-.82 2.8 2.8 0 0 0-1.29-.08 1.14 1.14 0 0 0-.78.56 2.16 2.16 0 0 0-.26 1.12 5.37 5.37 0 0 0 .17 1.32 5 5 0 0 0 .5 1.24 5.31 5.31 0 0 0 2 2 4.92 4.92 0 0 0 .9.41 2.82 2.82 0 0 0 .76.13 2.21 2.21 0 0 0 .65-.1 3.17 3.17 0 0 0 .55-.28v1.3l1.74 1v-6.63a5.63 5.63 0 0 0-.21-1.55 4.78 4.78 0 0 0-.64-1.4 6.37 6.37 0 0 0-1.1-1.25 9.44 9.44 0 0 0-1.62-1.14M1055.75 383.22a1.81 1.81 0 0 0-.54-.22.89.89 0 0 0-.46 0 1.12 1.12 0 0 0-.41.27 2.51 2.51 0 0 0-.39.51 3.27 3.27 0 0 0-.42-1.43 2.85 2.85 0 0 0-1.08-1 2.07 2.07 0 0 0-.53-.23.85.85 0 0 0-.45 0 .92.92 0 0 0-.39.28 2 2 0 0 0-.37.52v-1.43l-1.5-.87v9.7l1.75 1v-6.3a3.25 3.25 0 0 1 .59-1c.18-.17.34-.21.49-.13a.81.81 0 0 1 .27.25 1.18 1.18 0 0 1 .14.36 2.13 2.13 0 0 1 .07.49v7.25l1.74 1v-6.3a3.4 3.4 0 0 1 .57-1 .39.39 0 0 1 .51-.11.89.89 0 0 1 .26.25 1 1 0 0 1 .14.35 2.32 2.32 0 0 1 .07.5v7.25l1.75 1v-7a6.11 6.11 0 0 0-.43-2.45 3.29 3.29 0 0 0-1.37-1.53M1061 390.21a1.62 1.62 0 0 1 .59-1.32 1.2 1.2 0 0 1 1.25.14 2.93 2.93 0 0 1 .65.51 3 3 0 0 1 .54.72 3.74 3.74 0 0 1 .35.9 3.81 3.81 0 0 1 .13 1.08l-3.51-2m1.89-2.89a3.83 3.83 0 0 0-1.64-.58 1.8 1.8 0 0 0-1.25.35 2.5 2.5 0 0 0-.81 1.2 6 6 0 0 0-.29 2 8.82 8.82 0 0 0 .28 2.27 7.92 7.92 0 0 0 .81 2 7.82 7.82 0 0 0 1.29 1.68 8 8 0 0 0 1.73 1.31l.79.43c.27.13.54.26.81.36l.78.3c.26.09.49.17.7.22V397a9.24 9.24 0 0 1-1.46-.48 12.46 12.46 0 0 1-1.32-.65 5 5 0 0 1-1-.73 4.77 4.77 0 0 1-.75-.94 4.26 4.26 0 0 1-.48-1.09 4.51 4.51 0 0 1-.17-1.23l5.55 3.21v-.69-.62a7.63 7.63 0 0 0-.94-3.65 7.18 7.18 0 0 0-1.16-1.56 6.63 6.63 0 0 0-1.58-1.23M1072.4 392.82a6.29 6.29 0 0 0-1.62-.71 2.28 2.28 0 0 0-1.15 0 1.16 1.16 0 0 0-.7.52 2 2 0 0 0-.23 1 4.26 4.26 0 0 0 .15 1.15 4 4 0 0 0 .46 1.06 6.38 6.38 0 0 0 .77 1c.32.35.68.71 1.09 1.08s.81.75 1.1 1a8.37 8.37 0 0 1 .64.72 1.83 1.83 0 0 1 .3.53 1.15 1.15 0 0 1 .09.44c0 .32-.13.49-.4.54a2.17 2.17 0 0 1-1.19-.4 13 13 0 0 1-1.47-1 14.69 14.69 0 0 1-1.55-1.45v2.11a17.61 17.61 0 0 0 1.41 1.1c.5.36 1.06.71 1.68 1.07a6.61 6.61 0 0 0 1.37.62 2.64 2.64 0 0 0 1.2.16 1.23 1.23 0 0 0 .85-.46 2 2 0 0 0 .32-1.24 4.32 4.32 0 0 0-.13-1.08 4.27 4.27 0 0 0-.43-1 6.51 6.51 0 0 0-.8-1.08c-.34-.37-.74-.78-1.23-1.22s-.78-.72-1-1-.47-.51-.62-.69a3 3 0 0 1-.3-.51 1.28 1.28 0 0 1-.06-.43c0-.31.12-.48.37-.5a1.8 1.8 0 0 1 1 .32c.41.24.83.52 1.26.83a17.71 17.71 0 0 1 1.35 1.16v-1.9c-.32-.25-.68-.53-1.09-.83a14.41 14.41 0 0 0-1.41-.91M1081.24 406.19a5.3 5.3 0 0 1-.71-.49 4.67 4.67 0 0 1-.6-.51v-4.24a3.12 3.12 0 0 1 1-.72 1 1 0 0 1 1 .09 2.05 2.05 0 0 1 .62.52 2.58 2.58 0 0 1 .46.8 5.07 5.07 0 0 1 .29 1.09 8.62 8.62 0 0 1 .09 1.42 4.68 4.68 0 0 1-.15 1.28 1.81 1.81 0 0 1-.43.78 1 1 0 0 1-.68.25 1.77 1.77 0 0 1-.88-.27m1.17-7.59a4 4 0 0 0-.84-.38 2.16 2.16 0 0 0-.7-.07 1.59 1.59 0 0 0-.61.17 3.05 3.05 0 0 0-.54.37v-1.46l-1.75-1v13.5l2 1.18v-3.8c.16.15.36.3.57.46a7.49 7.49 0 0 0 .63.41 5.61 5.61 0 0 0 1.74.69 1.9 1.9 0 0 0 2.31-1.25 5.54 5.54 0 0 0 .33-2.12 11.35 11.35 0 0 0-.2-2.14 8.9 8.9 0 0 0-.6-1.89 6.77 6.77 0 0 0-1-1.55 5 5 0 0 0-1.33-1.1M1090.38 411.5a2.63 2.63 0 0 1-.91-.84 2 2 0 0 1-.33-1.09 1.12 1.12 0 0 1 .11-.5.56.56 0 0 1 .33-.27 1.06 1.06 0 0 1 .58 0 3.66 3.66 0 0 1 .88.39l1.24.71v1.31a3.4 3.4 0 0 1-1 .43 1.21 1.21 0 0 1-.88-.16m.37-8.09a10.63 10.63 0 0 0-1.66-.78 7 7 0 0 0-1.4-.34v1.86a6.6 6.6 0 0 1 1.4.26 7.4 7.4 0 0 1 1.49.66 3.85 3.85 0 0 1 .79.58 3.36 3.36 0 0 1 .53.62 2.63 2.63 0 0 1 .3.69 3.47 3.47 0 0 1 .08.73v.57l-1.1-.63a7.89 7.89 0 0 0-1.83-.82 2.73 2.73 0 0 0-1.3-.09 1.13 1.13 0 0 0-.77.56 2.11 2.11 0 0 0-.26 1.12 5 5 0 0 0 .17 1.33 5.18 5.18 0 0 0 .49 1.23 5.6 5.6 0 0 0 .82 1.08 5.08 5.08 0 0 0 1.15.88 3.9 3.9 0 0 0 .9.41 2.43 2.43 0 0 0 .76.13 1.69 1.69 0 0 0 .64-.1 2.89 2.89 0 0 0 .56-.27v1.29l1.74 1v-6.64a5.63 5.63 0 0 0-.2-1.55 4.81 4.81 0 0 0-.65-1.4 5.78 5.78 0 0 0-1.1-1.25 9.92 9.92 0 0 0-1.61-1.14M1101.05 409.41a5.23 5.23 0 0 0-1.83-.69 2.19 2.19 0 0 0-1.4.22 2.15 2.15 0 0 0-.91 1.1 4.8 4.8 0 0 0-.33 1.92 8.92 8.92 0 0 0 .29 2.29 7.78 7.78 0 0 0 .85 2 8 8 0 0 0 1.35 1.72 9 9 0 0 0 1.81 1.36 7.91 7.91 0 0 0 1.33.63 5 5 0 0 0 1.24.31v-2.07l-.54-.08-.58-.15a4.71 4.71 0 0 1-.59-.22 4.87 4.87 0 0 1-.56-.28 4.42 4.42 0 0 1-1-.78 4.94 4.94 0 0 1-.77-1 5.74 5.74 0 0 1-.49-1.23 5.55 5.55 0 0 1-.17-1.35 3.42 3.42 0 0 1 .17-1.14 1.34 1.34 0 0 1 .47-.68 1.12 1.12 0 0 1 .76-.17 2.37 2.37 0 0 1 1 .37 8.64 8.64 0 0 1 1.15.82 8.87 8.87 0 0 1 1.11 1.1v-2.26a12.85 12.85 0 0 0-1-.84q-.57-.42-1.38-.9M1107.78 417.24a1.67 1.67 0 0 1 .59-1.33 1.22 1.22 0 0 1 1.26.14 3.47 3.47 0 0 1 .65.51 3.53 3.53 0 0 1 .53.72 4.11 4.11 0 0 1 .36.91 3.7 3.7 0 0 1 .12 1.07l-3.51-2m1.89-2.9a4 4 0 0 0-1.64-.58 1.86 1.86 0 0 0-1.26.35 2.72 2.72 0 0 0-.8 1.2 6.34 6.34 0 0 0-.29 2 9.08 9.08 0 0 0 .28 2.26 8.22 8.22 0 0 0 .81 2 7.87 7.87 0 0 0 1.3 1.68 8.42 8.42 0 0 0 1.73 1.32c.25.14.51.29.79.42s.53.26.8.37l.78.29a7 7 0 0 0 .71.22V424a9.35 9.35 0 0 1-1.47-.48 12.29 12.29 0 0 1-1.31-.65 4.93 4.93 0 0 1-1-.73 4.56 4.56 0 0 1-.75-.94 4.43 4.43 0 0 1-.47-1.09 3.81 3.81 0 0 1-.17-1.23l5.55 3.21v-.69-.61a7.46 7.46 0 0 0-.24-1.88 7.61 7.61 0 0 0-.71-1.78 7.14 7.14 0 0 0-1.15-1.56 6.89 6.89 0 0 0-1.59-1.23M1128.56 425.24a6.53 6.53 0 0 0-1.61-.7 2.28 2.28 0 0 0-1.15 0 1.14 1.14 0 0 0-.7.52 2 2 0 0 0-.24 1 3.92 3.92 0 0 0 .16 1.16 4.44 4.44 0 0 0 .45 1.06 7.11 7.11 0 0 0 .78 1 14 14 0 0 0 1.09 1.08c.45.41.81.75 1.09 1a7 7 0 0 1 .64.71 2 2 0 0 1 .31.53 1.19 1.19 0 0 1 .08.45.47.47 0 0 1-.39.54 2.14 2.14 0 0 1-1.19-.4 12.32 12.32 0 0 1-1.47-1 14.61 14.61 0 0 1-1.56-1.44v2.11a20.243 20.243 0 0 0 3.08 2.17 7.47 7.47 0 0 0 1.37.62 2.81 2.81 0 0 0 1.2.16 1.22 1.22 0 0 0 .85-.47 1.9 1.9 0 0 0 .33-1.23 4.26 4.26 0 0 0-.13-1.08 4.21 4.21 0 0 0-.44-1 7.45 7.45 0 0 0-.8-1.08 15.86 15.86 0 0 0-1.23-1.21c-.43-.39-.78-.73-1-1s-.47-.51-.62-.7a2 2 0 0 1-.29-.51 1.05 1.05 0 0 1-.07-.43c0-.31.12-.47.38-.5a1.86 1.86 0 0 1 1 .32 12.53 12.53 0 0 1 1.26.84 15.72 15.72 0 0 1 1.36 1.16V427c-.32-.26-.69-.54-1.1-.84a15.09 15.09 0 0 0-1.41-.91M1137.78 427.67l-2.08-.58v2.48l-2.26-1.31v1.82l2.27 1.31v4.73a6.33 6.33 0 0 0 .18 1.62 4.68 4.68 0 0 0 .57 1.38 5.42 5.42 0 0 0 1 1.2 8.93 8.93 0 0 0 1.42 1 8.83 8.83 0 0 0 1.07.52 8.72 8.72 0 0 0 1.1.41v-1.86a8.61 8.61 0 0 1-.87-.28 5.06 5.06 0 0 1-1-.47 2.65 2.65 0 0 1-1.11-1.06 2.9 2.9 0 0 1-.33-1.45v-4.56l3.28 1.89v-1.82l-3.28-1.89v-3.1M1146.49 443.75a2.38 2.38 0 0 1-.61-.53 2.82 2.82 0 0 1-.47-.8 4.94 4.94 0 0 1-.28-1.09 10.13 10.13 0 0 1-.09-1.43 4.27 4.27 0 0 1 .16-1.27 1.54 1.54 0 0 1 .43-.78 1 1 0 0 1 .66-.27 1.9 1.9 0 0 1 .89.28 7.39 7.39 0 0 1 .71.48 6.81 6.81 0 0 1 .59.51v4.25a3.73 3.73 0 0 1-1 .74 1.07 1.07 0 0 1-1-.09m4-9.42l-2-1.17V437l-.57-.45c-.22-.15-.43-.29-.64-.41a5.87 5.87 0 0 0-1.73-.7 1.89 1.89 0 0 0-2.3 1.26 5.85 5.85 0 0 0-.34 2.13 11.43 11.43 0 0 0 .2 2.14 9 9 0 0 0 .6 1.9 6.73 6.73 0 0 0 1 1.54 5.21 5.21 0 0 0 1.33 1.11 3.35 3.35 0 0 0 .81.35 1.92 1.92 0 0 0 .7.07 1.59 1.59 0 0 0 .61-.17 3.05 3.05 0 0 0 .55-.36v1.46l1.75 1v-13.5M1156.27 447.6a1.3 1.3 0 0 0-.58-.2.68.68 0 0 0-.43.11.84.84 0 0 0-.27.34 1.73 1.73 0 0 0-.09.53 2 2 0 0 0 .07.56 3.54 3.54 0 0 0 .18.49c.07.15.15.3.23.45s.15.28.22.43a2.58 2.58 0 0 1 .18.46 1.66 1.66 0 0 1 .07.51.81.81 0 0 1-.18.58.75.75 0 0 1-.51.18 1.94 1.94 0 0 1-.75-.17 4.42 4.42 0 0 1-.74-.35l-.2-.12v1.52a6.2 6.2 0 0 0 2 .8 2.38 2.38 0 0 0 1.41-.1 1.66 1.66 0 0 0 .85-.88 3.6 3.6 0 0 0 .29-1.51 4.83 4.83 0 0 0-.12-1.05 5.25 5.25 0 0 0-.33-1 3.87 3.87 0 0 0-.55-.9 2.57 2.57 0 0 0-.73-.64m.07-6.21a1.56 1.56 0 0 0-.59-.21.85.85 0 0 0-.48.1.87.87 0 0 0-.32.36 1.58 1.58 0 0 0-.11.61 2.42 2.42 0 0 0 .11.74 3.17 3.17 0 0 0 .32.73 3.3 3.3 0 0 0 .47.64 2.6 2.6 0 0 0 .59.47 1.56 1.56 0 0 0 .59.21.8.8 0 0 0 .47-.09.78.78 0 0 0 .32-.37 1.49 1.49 0 0 0 .12-.6 2.5 2.5 0 0 0-.12-.75 3.48 3.48 0 0 0-.31-.72 3.37 3.37 0 0 0-.47-.65 2.83 2.83 0 0 0-.59-.47M979.63 386.49l-4.46-2.57v1.82l2.38 1.37v6.08l-2.68-1.55v1.81l7.13 4.15v-1.81l-2.43-1.4v-7.9m-1.14-4.85a1.27 1.27 0 0 0-.54-.18.65.65 0 0 0-.42.08.71.71 0 0 0-.28.33 1.43 1.43 0 0 0-.1.53 2.1 2.1 0 0 0 .1.65 3.11 3.11 0 0 0 .28.65 3.22 3.22 0 0 0 .42.57 2.13 2.13 0 0 0 .53.42 1.16 1.16 0 0 0 .52.18.72.72 0 0 0 .42-.08.73.73 0 0 0 .28-.32 1.21 1.21 0 0 0 .1-.54 2.13 2.13 0 0 0-.1-.64 2.87 2.87 0 0 0-.27-.65 3.43 3.43 0 0 0-.42-.58 2.52 2.52 0 0 0-.52-.42M988.66 391.5a3.87 3.87 0 0 0-.83-.37 2.22 2.22 0 0 0-.71-.07 1.59 1.59 0 0 0-.6.17 3.47 3.47 0 0 0-.54.37v-1.47l-1.76-1v9.71l2 1.17v-6.14a3.26 3.26 0 0 1 1-.72 1 1 0 0 1 1 .09 2.28 2.28 0 0 1 1 2.18v6.33l2 1.17v-6.52a6.67 6.67 0 0 0-.16-1.49 5.48 5.48 0 0 0-.48-1.34 4.65 4.65 0 0 0-.81-1.16 4.57 4.57 0 0 0-1.13-.9M997.23 393.55l-2.07-.58v2.48l-2.27-1.31V396l2.27 1.31V402a6.87 6.87 0 0 0 .18 1.62 5 5 0 0 0 .58 1.38 5.6 5.6 0 0 0 1 1.19 8.63 8.63 0 0 0 1.43 1 10.26 10.26 0 0 0 1 .52c.38.16.75.29 1.12.41v-1.82c-.26-.07-.55-.17-.87-.28a7.14 7.14 0 0 1-1-.47 2.73 2.73 0 0 1-1.11-1.07 3 3 0 0 1-.33-1.45v-4.56l3.29 1.9v-1.82l-3.29-1.9v-3.1M1018.18 408.56a1.91 1.91 0 0 0-.55-.23.85.85 0 0 0-.45 0 1 1 0 0 0-.41.27 2.13 2.13 0 0 0-.4.5 3.13 3.13 0 0 0-.42-1.42 2.77 2.77 0 0 0-1.07-1.05 2 2 0 0 0-.54-.22 1 1 0 0 0-.45 0 1.09 1.09 0 0 0-.39.28 2.69 2.69 0 0 0-.36.53v-1.44l-1.5-.87v9.71l1.75 1v-6.3a3 3 0 0 1 .6-1q.27-.25.48-.12a.65.65 0 0 1 .27.25 1 1 0 0 1 .14.35 2.32 2.32 0 0 1 .07.5 4.37 4.37 0 0 1 0 .64v6.61l1.74 1v-6.29a3.53 3.53 0 0 1 .56-1 .38.38 0 0 1 .51-.11.72.72 0 0 1 .27.25 1.27 1.27 0 0 1 .14.35 3.12 3.12 0 0 1 .06.49 6.32 6.32 0 0 1 0 .64v6.61l1.75 1v-7a6.09 6.09 0 0 0-.43-2.44 3.18 3.18 0 0 0-1.36-1.53M1024.72 420.62a2.7 2.7 0 0 1-.91-.83 2.05 2.05 0 0 1-.33-1.1 1.18 1.18 0 0 1 .11-.49.54.54 0 0 1 .33-.28 1.16 1.16 0 0 1 .58 0 4.23 4.23 0 0 1 .88.4l1.24.71v1.3a3.15 3.15 0 0 1-1 .43 1.21 1.21 0 0 1-.88-.16m.37-8.09a10.63 10.63 0 0 0-1.66-.78 7 7 0 0 0-1.4-.34v1.86a6.68 6.68 0 0 1 1.41.26 7.58 7.58 0 0 1 1.48.66 3.85 3.85 0 0 1 .79.58 3 3 0 0 1 .53.62 2.31 2.31 0 0 1 .29.69 2.92 2.92 0 0 1 .09.73v.58l-1.1-.64a7.71 7.71 0 0 0-1.83-.82 2.73 2.73 0 0 0-1.3-.09 1.16 1.16 0 0 0-.77.56 2.11 2.11 0 0 0-.26 1.12 5.3 5.3 0 0 0 .66 2.56 6.1 6.1 0 0 0 .82 1.09 5.73 5.73 0 0 0 1.15.88 5 5 0 0 0 .9.41 2.75 2.75 0 0 0 .76.13 1.87 1.87 0 0 0 .64-.11 2.41 2.41 0 0 0 .56-.27v1.29l1.75 1v-6.63a5.34 5.34 0 0 0-.2-1.56 5 5 0 0 0-.64-1.39 6.2 6.2 0 0 0-1.11-1.26 9.92 9.92 0 0 0-1.61-1.14M1035.79 418.92l-4.46-2.58v1.82l2.39 1.38v6.07l-2.67-1.54v1.81l7.19 4.15v-1.81l-2.43-1.41v-7.89m-1.14-4.85a1.36 1.36 0 0 0-.53-.19.69.69 0 0 0-.42.09.66.66 0 0 0-.28.33 1.22 1.22 0 0 0-.11.53 2.5 2.5 0 0 0 .1.65 3.36 3.36 0 0 0 .28.65 3.72 3.72 0 0 0 .42.56 2.33 2.33 0 0 0 .53.43 1.39 1.39 0 0 0 .53.18.81.81 0 0 0 .42-.08.72.72 0 0 0 .27-.32 1.13 1.13 0 0 0 .11-.54 2.19 2.19 0 0 0-.1-.65 3.11 3.11 0 0 0-.7-1.22 2.28 2.28 0 0 0-.52-.42M1044.83 423.93a3.66 3.66 0 0 0-.84-.37 2.19 2.19 0 0 0-.7-.08 1.5 1.5 0 0 0-.6.18 2.73 2.73 0 0 0-.54.37l-.05-1.47-1.75-1v9.7l2 1.18v-6.14a3.37 3.37 0 0 1 1-.73 1 1 0 0 1 1 .09 2.3 2.3 0 0 1 1 2.19v6.32l2 1.18v-6.52a6.67 6.67 0 0 0-.16-1.49 5.57 5.57 0 0 0-.49-1.35 4.84 4.84 0 0 0-.8-1.15 4.77 4.77 0 0 0-1.13-.9M1054.92 425.42a6.83 6.83 0 0 0-1.66.91 5.57 5.57 0 0 0-1.3 1.39 6.74 6.74 0 0 0-.85 1.94 10.48 10.48 0 0 0-.31 2.58 16.23 16.23 0 0 0 1 5.43 29.33 29.33 0 0 0 3 6l1.21-.72a23.62 23.62 0 0 1-2.42-5.05 14.66 14.66 0 0 1-.8-4.64 7.27 7.27 0 0 1 .83-3.61 5.16 5.16 0 0 1 2.44-2.21l-1.15-2M1061 429l-1.2.69a23.4 23.4 0 0 1 2.43 5.08 14.6 14.6 0 0 1 .8 4.63 7.38 7.38 0 0 1-.82 3.63 5.14 5.14 0 0 1-2.46 2.2l1.16 2a6.48 6.48 0 0 0 1.66-.9 5.46 5.46 0 0 0 1.29-1.41 7 7 0 0 0 .84-2 10.25 10.25 0 0 0 .31-2.56 16.57 16.57 0 0 0-1-5.45 28.06 28.06 0 0 0-3-5.95M1084.2 442.64l-.69-.4a5.08 5.08 0 0 0-1.56-.64 1.48 1.48 0 0 0-1.06.13 1.57 1.57 0 0 0-.61.9 5.5 5.5 0 0 0-.2 1.61v1.69a2.94 2.94 0 0 1-.09.8.67.67 0 0 1-.29.42.71.71 0 0 1-.51 0 3.05 3.05 0 0 1-.76-.33l-.53-.31v1.81l.52.3a3.21 3.21 0 0 1 1.27 1.23 3.66 3.66 0 0 1 .38 1.71V454a6.87 6.87 0 0 0 .84 3.5 6.79 6.79 0 0 0 2.57 2.43l.69.4v-1.8l-.53-.3a4.14 4.14 0 0 1-.71-.51 3.33 3.33 0 0 1-.56-.68 3.16 3.16 0 0 1-.35-.86 4.6 4.6 0 0 1-.12-1.11v-2.42a5.55 5.55 0 0 0-.43-2.35 3.89 3.89 0 0 0-1.32-1.56 2.16 2.16 0 0 0 .78.18.71.71 0 0 0 .55-.2 1.24 1.24 0 0 0 .32-.67 5 5 0 0 0 .11-1.15v-1.67a3 3 0 0 1 .12-.95.86.86 0 0 1 .36-.44.81.81 0 0 1 .56 0 2.72 2.72 0 0 1 .71.3l.53.3v-1.79M1003.62 431.92a6.82 6.82 0 0 1-1.32-1v-4.24a3.31 3.31 0 0 1 1-.73 1 1 0 0 1 1 .09 2.56 2.56 0 0 1 .62.52 3.21 3.21 0 0 1 .45.8 4.69 4.69 0 0 1 .28 1.09 8.61 8.61 0 0 1 .1 1.42 4.63 4.63 0 0 1-.15 1.28 1.61 1.61 0 0 1-.43.78 1 1 0 0 1-.68.26 1.81 1.81 0 0 1-.87-.27m1.16-7.6a3.86 3.86 0 0 0-.84-.37 2.25 2.25 0 0 0-.7-.08 1.6 1.6 0 0 0-.61.18 3 3 0 0 0-.53.37l-.05-1.47-1.76-1v13.5l2 1.17v-3.79a7.09 7.09 0 0 0 .57.45c.21.15.42.3.63.42a5.71 5.71 0 0 0 1.74.69 2.08 2.08 0 0 0 1.39-.16 2 2 0 0 0 .92-1.09 5.78 5.78 0 0 0 .33-2.12 11.45 11.45 0 0 0-.2-2.15 8.9 8.9 0 0 0-.6-1.89 6.41 6.41 0 0 0-1-1.54 5.17 5.17 0 0 0-1.32-1.11M1014.53 430a3.66 3.66 0 0 0-.86-.38 2 2 0 0 0-.71-.08 1.57 1.57 0 0 0-.58.17 1.65 1.65 0 0 0-.48.4l-.06-1.46-1.84-1.06v9.71l2.08 1.2v-6.14a2.55 2.55 0 0 1 1.06-.8 1.13 1.13 0 0 1 .93.11 2.07 2.07 0 0 1 .46.38 2 2 0 0 1 .33.56 3.2 3.2 0 0 1 .2.74 4.86 4.86 0 0 1 0 1l2 1.18a8.15 8.15 0 0 0-.14-1.82 6 6 0 0 0-.49-1.54 5 5 0 0 0-.83-1.22 4.71 4.71 0 0 0-1.13-.91M1023.82 435.52l-4.46-2.57v1.82l2.39 1.37v6.08l-2.68-1.55v1.81l7.19 4.16v-1.82l-2.44-1.4v-7.9m-1.14-4.85a1.62 1.62 0 0 0-.53-.19.78.78 0 0 0-.43.09.73.73 0 0 0-.28.32 1.79 1.79 0 0 0-.1.54 2.44 2.44 0 0 0 .1.65 3.11 3.11 0 0 0 .28.65 3.28 3.28 0 0 0 .42.56 2.13 2.13 0 0 0 .53.43 1.2 1.2 0 0 0 .52.18.72.72 0 0 0 .42-.08.7.7 0 0 0 .29-.32 1.42 1.42 0 0 0 .09-.54 2.6 2.6 0 0 0-.09-.65 3.27 3.27 0 0 0-.28-.64 3.43 3.43 0 0 0-.42-.58 2.28 2.28 0 0 0-.52-.42M1032.86 440.53a4.16 4.16 0 0 0-.84-.37 2.19 2.19 0 0 0-.7-.07 1.59 1.59 0 0 0-.61.17 3 3 0 0 0-.53.37v-1.47l-1.75-1v9.71l2 1.17v-6.14a3.64 3.64 0 0 1 1-.73 1 1 0 0 1 1 .1 2.28 2.28 0 0 1 1 2.18v6.33l2 1.17v-6.52a7.31 7.31 0 0 0-.15-1.49 5.35 5.35 0 0 0-.49-1.34 4.89 4.89 0 0 0-.8-1.16 4.77 4.77 0 0 0-1.13-.9M1041.43 442.58l-2.08-.58v2.48l-2.26-1.31V445l2.27 1.31v4.73a7 7 0 0 0 .18 1.63 4.72 4.72 0 0 0 .59 1.38 5.5 5.5 0 0 0 1 1.19 8.08 8.08 0 0 0 1.43 1 9.47 9.47 0 0 0 1.06.52 10 10 0 0 0 1.11.41v-1.86c-.26-.07-.55-.17-.86-.28a7.23 7.23 0 0 1-1-.47 2.8 2.8 0 0 1-1.11-1.07 2.84 2.84 0 0 1-.32-1.44v-4.55l3.28 1.9v-1.82l-3.28-1.89v-3.11M1052.73 448.24a6.31 6.31 0 0 0-1.51-.66 1.85 1.85 0 0 0-1.15 0 1.44 1.44 0 0 0-.74.79 4 4 0 0 0-.27 1.62v1.47l-2.46-1.42v1.82l2.45 1.42v6.49l2 1.18v-6.49l3.31 1.91v-1.82l-3.32-1.91v-1.56a2 2 0 0 1 .13-.82.76.76 0 0 1 .35-.41.93.93 0 0 1 .53 0 2.46 2.46 0 0 1 .67.28 10.76 10.76 0 0 1 1 .68 9.84 9.84 0 0 1 .86.73v-1.89c-.28-.24-.59-.48-.91-.72a11.74 11.74 0 0 0-1-.68M1061.67 452.83a7.63 7.63 0 0 0-1.66.91 5.57 5.57 0 0 0-1.3 1.39 6.43 6.43 0 0 0-.85 1.95 9.89 9.89 0 0 0-.31 2.57 16.18 16.18 0 0 0 1 5.43 29 29 0 0 0 3 6l1.21-.72a23.5 23.5 0 0 1-2.43-5.06 14.9 14.9 0 0 1-.8-4.64 7.38 7.38 0 0 1 .82-3.61 5.16 5.16 0 0 1 2.45-2.2l-1.15-2M1067.45 456.74a1.27 1.27 0 0 0-.53-.19.66.66 0 0 0-.4.09.72.72 0 0 0-.25.31 1.43 1.43 0 0 0-.09.49 1.83 1.83 0 0 0 .12.68 4.79 4.79 0 0 0 .26.56c.09.18.18.36.25.54a1.48 1.48 0 0 1 .12.61c0 .39-.16.59-.47.58a2.88 2.88 0 0 1-1.19-.47l-.15-.08v1.47a5.57 5.57 0 0 0 1.7.7 2 2 0 0 0 1.18-.03 1.46 1.46 0 0 0 .72-.73 3.29 3.29 0 0 0 .24-1.33 4.42 4.42 0 0 0-.1-.94 4.14 4.14 0 0 0-.3-.9 3.32 3.32 0 0 0-.47-.76 2.53 2.53 0 0 0-.67-.56m4.36 2.51a1.28 1.28 0 0 0-.53-.18.56.56 0 0 0-.39.09.63.63 0 0 0-.25.32 1.17 1.17 0 0 0-.09.48 2 2 0 0 0 .11.68c.08.19.17.38.26.56s.18.36.26.54a1.48 1.48 0 0 1 .11.61c0 .4-.15.59-.47.58a3 3 0 0 1-1.19-.47l-.15-.08v1.46a5.57 5.57 0 0 0 1.7.71 2.13 2.13 0 0 0 1.2-.07 1.41 1.41 0 0 0 .72-.74 3.07 3.07 0 0 0 .25-1.33 5.08 5.08 0 0 0-.1-.93 4.76 4.76 0 0 0-.3-.9 3.82 3.82 0 0 0-.48-.77 2.52 2.52 0 0 0-.66-.56" transform="translate(187.76 308.96)"/><path class="cls-7" d="M1270.37 775.63l-2.05-1.18-.01 5.02-3.7-2.13.02-5.02-2.05-1.18-.03 12.49 2.04 1.18.02-5.44 3.69 2.13-.01 5.44 2.04 1.18.04-12.49"/><path class="cls-7" d="M1086.32 475.39a1.59 1.59 0 0 1 .59-1.32 1.17 1.17 0 0 1 1.25.13 3.18 3.18 0 0 1 .65.51 3.57 3.57 0 0 1 .54.72 3.82 3.82 0 0 1 .35.91 4.1 4.1 0 0 1 .13 1.08l-3.51-2m1.89-2.9a3.88 3.88 0 0 0-1.64-.57 1.74 1.74 0 0 0-1.26.35 2.53 2.53 0 0 0-.8 1.19 6 6 0 0 0-.29 2 8.69 8.69 0 0 0 .28 2.26 8 8 0 0 0 2.1 3.67 8.34 8.34 0 0 0 1.73 1.32c.25.15.52.29.79.43l.81.36.78.3c.26.09.49.16.7.21v-1.85a10 10 0 0 1-1.46-.49 10.79 10.79 0 0 1-1.32-.65 4.92 4.92 0 0 1-1-.72 4.82 4.82 0 0 1-.76-.94 4.68 4.68 0 0 1-.47-1.1 4 4 0 0 1-.17-1.22l5.55 3.2v-.69-.61a7.51 7.51 0 0 0-.24-1.88 7.75 7.75 0 0 0-.7-1.78 7.43 7.43 0 0 0-1.16-1.56 7.12 7.12 0 0 0-1.58-1.23" transform="translate(187.76 308.96)"/><path class="cls-7" d="M1286.48 783.92l-4.46-2.57-.01 1.81 2.39 1.38-.03 9.87-2.68-1.54v1.81l7.19 4.15v-1.81l-2.44-1.41.04-11.69M1295.84 789.33l-4.46-2.58-.01 1.82 2.39 1.38-.03 9.87-2.67-1.55-.01 1.81 7.19 4.15v-1.81l-2.43-1.41.03-11.68"/><path class="cls-7" d="M1116.15 496.75a3.7 3.7 0 0 1-1.46-1.61 5.86 5.86 0 0 1-.53-2.59 4.78 4.78 0 0 1 .12-1.13 1.79 1.79 0 0 1 .35-.76.94.94 0 0 1 .63-.3 1.74 1.74 0 0 1 .9.28 3.57 3.57 0 0 1 1.46 1.61 6 6 0 0 1 .49 2.55 4.31 4.31 0 0 1-.13 1.14 1.87 1.87 0 0 1-.34.79.83.83 0 0 1-.61.29 1.61 1.61 0 0 1-.88-.27m.08-8.08a4.49 4.49 0 0 0-1.74-.64 1.89 1.89 0 0 0-1.31.28 2.24 2.24 0 0 0-.83 1.14 5.64 5.64 0 0 0-.29 1.93 9.3 9.3 0 0 0 .26 2.35 8.64 8.64 0 0 0 .78 2 8.17 8.17 0 0 0 1.26 1.66 7.65 7.65 0 0 0 1.68 1.29 4.46 4.46 0 0 0 1.76.64 1.94 1.94 0 0 0 1.31-.29 2.37 2.37 0 0 0 .82-1.16 6 6 0 0 0 .29-1.94 9.42 9.42 0 0 0-.27-2.3 7.57 7.57 0 0 0-.78-2 7.42 7.42 0 0 0-1.25-1.68 8 8 0 0 0-1.69-1.29" transform="translate(187.76 308.96)"/><path class="cls-7" d="M1327.06 808.36l-1.74-1-.3 8.07-.04 1.93-.4-1.9-1.25-5.43-1.29-.75-1.21 3.75-.49 1.67-.07-2.24-.23-8.15-1.81-1.04.57 12.84 2.31 1.33 1.06-3.2.38-1.39.39 1.79 1.06 4.47 2.4 1.38.66-12.13"/><path class="cls-7" d="M1144.23 513a3.68 3.68 0 0 1-1.46-1.6 5.91 5.91 0 0 1-.52-2.6 5.38 5.38 0 0 1 .11-1.12 1.84 1.84 0 0 1 .36-.77.9.9 0 0 1 .62-.3 1.67 1.67 0 0 1 .9.29 3.54 3.54 0 0 1 1.46 1.6 6 6 0 0 1 .49 2.55 4.89 4.89 0 0 1-.12 1.15 2 2 0 0 1-.35.78.79.79 0 0 1-.61.29 1.53 1.53 0 0 1-.88-.27m.09-8.07a4.41 4.41 0 0 0-1.75-.65 1.94 1.94 0 0 0-1.31.28 2.24 2.24 0 0 0-.83 1.14 5.64 5.64 0 0 0-.29 1.93 9.73 9.73 0 0 0 .26 2.35 8.66 8.66 0 0 0 .79 2 7.31 7.31 0 0 0 1.25 1.66 7.9 7.9 0 0 0 1.68 1.29 4.54 4.54 0 0 0 1.77.65 1.93 1.93 0 0 0 1.3-.3 2.33 2.33 0 0 0 .82-1.16 5.69 5.69 0 0 0 .29-1.93 9.51 9.51 0 0 0-.26-2.31 7.94 7.94 0 0 0-.79-2 7.35 7.35 0 0 0-1.25-1.68 8.19 8.19 0 0 0-1.68-1.28M1154.94 511a4.21 4.21 0 0 0-.86-.39 2.58 2.58 0 0 0-.71-.08 1.58 1.58 0 0 0-.58.18 2 2 0 0 0-.48.4l-.06-1.46-1.84-1.06v9.7l2.08 1.2v-6.14a2.6 2.6 0 0 1 1.06-.79 1.09 1.09 0 0 1 .93.11 1.83 1.83 0 0 1 .46.38 2.31 2.31 0 0 1 .34.56 3.81 3.81 0 0 1 .19.74 4.86 4.86 0 0 1 0 1l2 1.17a8.08 8.08 0 0 0-.13-1.81 6.46 6.46 0 0 0-.49-1.54 5.35 5.35 0 0 0-.84-1.23 4.72 4.72 0 0 0-1.13-.9" transform="translate(187.76 308.96)"/><path class="cls-7" d="M1352 821.75l-4.46-2.57V821l2.38 1.37-.02 9.87-2.68-1.54-.01 1.81 7.19 4.15.01-1.81-2.44-1.41.03-11.69"/><path class="cls-7" d="M1171.83 528.92a2.22 2.22 0 0 1-.62-.53 3 3 0 0 1-.46-.79 5 5 0 0 1-.28-1.1 10.08 10.08 0 0 1-.09-1.42 4.22 4.22 0 0 1 .16-1.27 1.49 1.49 0 0 1 .43-.78.91.91 0 0 1 .66-.27 1.64 1.64 0 0 1 .88.28 6.43 6.43 0 0 1 .72.48 5.43 5.43 0 0 1 .59.51v4.24a3.53 3.53 0 0 1-1 .74 1 1 0 0 1-1-.09m4-9.41l-2-1.17v3.79a7.09 7.09 0 0 0-.57-.45c-.22-.16-.43-.29-.64-.42a5.52 5.52 0 0 0-1.74-.69 2.1 2.1 0 0 0-1.38.16 2 2 0 0 0-.91 1.1 5.79 5.79 0 0 0-.34 2.12 11.27 11.27 0 0 0 .2 2.14 8.81 8.81 0 0 0 .6 1.9 6.41 6.41 0 0 0 1 1.54 5.13 5.13 0 0 0 1.32 1.11 3.11 3.11 0 0 0 .82.36 2.14 2.14 0 0 0 .7.06 1.43 1.43 0 0 0 .61-.17 2.6 2.6 0 0 0 .55-.36v1.46l1.75 1v-13.5" transform="translate(187.76 308.96)"/><path class="cls-7" d="M1367.73 830.83l-1.97-1.14 5.76 18.91 1.97 1.14-5.76-18.91"/><path class="cls-7" d="M1192 532.41a4 4 0 0 0-.84-.38 2.48 2.48 0 0 0-.7-.07 1.6 1.6 0 0 0-.6.18 3.47 3.47 0 0 0-.54.37v-1.47l-1.76-1v9.7l2 1.18v-6.14a3.29 3.29 0 0 1 1-.73 1.06 1.06 0 0 1 1 .09 2.32 2.32 0 0 1 1 2.19v6.32l2 1.18v-6.52a7.24 7.24 0 0 0-.16-1.49 5.55 5.55 0 0 0-.48-1.35 4.88 4.88 0 0 0-.81-1.15 4.57 4.57 0 0 0-1.13-.9M1198.5 532.4a1.28 1.28 0 0 0-.52-.19.64.64 0 0 0-.4.09.59.59 0 0 0-.25.32 1.17 1.17 0 0 0-.09.48 1.7 1.7 0 0 0 .11.69 5.69 5.69 0 0 0 .26.56c.09.18.18.36.25.53a1.51 1.51 0 0 1 .12.61c0 .4-.16.59-.47.59a3 3 0 0 1-1.19-.47l-.15-.09V537a5.57 5.57 0 0 0 1.7.7 2.09 2.09 0 0 0 1.21-.06 1.48 1.48 0 0 0 .72-.74 3.26 3.26 0 0 0 .24-1.33 4.33 4.33 0 0 0-.1-.93 4 4 0 0 0-.3-.9 3.18 3.18 0 0 0-.47-.77 2.38 2.38 0 0 0-.67-.56m4.36 2.51a1.24 1.24 0 0 0-.53-.18.63.63 0 0 0-.39.09.73.73 0 0 0-.25.32 1.17 1.17 0 0 0-.09.48 1.76 1.76 0 0 0 .12.68 4.11 4.11 0 0 0 .25.56c.1.18.18.37.26.54a1.51 1.51 0 0 1 .11.61c0 .4-.15.6-.46.58a3 3 0 0 1-1.2-.46l-.14-.09v1.47a5.62 5.62 0 0 0 1.69.7 2 2 0 0 0 1.2-.07 1.43 1.43 0 0 0 .73-.74 3.21 3.21 0 0 0 .24-1.32 4.42 4.42 0 0 0-.1-.94 5.15 5.15 0 0 0-.29-.89 4.12 4.12 0 0 0-.49-.78 2.73 2.73 0 0 0-.66-.56M1208.19 537.43l-1.2.69a23.4 23.4 0 0 1 2.43 5.08 14.63 14.63 0 0 1 .81 4.63 7.42 7.42 0 0 1-.83 3.62 5.09 5.09 0 0 1-2.45 2.21l1.16 2a6.59 6.59 0 0 0 1.65-.9 5.46 5.46 0 0 0 1.29-1.41 6.8 6.8 0 0 0 .84-2 9.94 9.94 0 0 0 .31-2.57 16.31 16.31 0 0 0-1-5.45 27.59 27.59 0 0 0-3-6M1219.05 554.39a1.39 1.39 0 0 0-.58-.2.75.75 0 0 0-.43.11.79.79 0 0 0-.26.35 1.21 1.21 0 0 0-.1.52 2.38 2.38 0 0 0 .07.56 3.54 3.54 0 0 0 .18.49c.07.15.15.31.23.45s.16.29.23.44a2.2 2.2 0 0 1 .17.45 1.7 1.7 0 0 1 .07.51.79.79 0 0 1-.18.58.7.7 0 0 1-.5.18 2.41 2.41 0 0 1-.76-.16 5.44 5.44 0 0 1-.73-.36l-.2-.12v1.52a6.17 6.17 0 0 0 2 .81 2.48 2.48 0 0 0 1.41-.1 1.8 1.8 0 0 0 .85-.89 3.75 3.75 0 0 0 .28-1.5 4.83 4.83 0 0 0-.11-1.06 5.27 5.27 0 0 0-.34-1 4.09 4.09 0 0 0-.55-.9 2.44 2.44 0 0 0-.73-.64m.07-6.21a1.38 1.38 0 0 0-.59-.2.73.73 0 0 0-.47.1.76.76 0 0 0-.32.36 1.34 1.34 0 0 0-.12.6 2.26 2.26 0 0 0 .12.75 2.85 2.85 0 0 0 .31.72 3.92 3.92 0 0 0 .47.64 2.6 2.6 0 0 0 .59.47 1.36 1.36 0 0 0 .59.21.73.73 0 0 0 .47-.09.71.71 0 0 0 .32-.36 1.41 1.41 0 0 0 .12-.61 2.82 2.82 0 0 0-.11-.74 3.94 3.94 0 0 0-.32-.73 4.11 4.11 0 0 0-.47-.65 3.2 3.2 0 0 0-.59-.47M1005 471.5a3.44 3.44 0 0 0-.85-.38 1.84 1.84 0 0 0-.71-.08 1.46 1.46 0 0 0-1.06.57l-.07-1.46-1.84-1.06v9.71l2.07 1.2v-6.15a2.54 2.54 0 0 1 1.06-.79 1.15 1.15 0 0 1 .92.11 1.7 1.7 0 0 1 .46.38 1.87 1.87 0 0 1 .33.55 3.44 3.44 0 0 1 .21.75 7.09 7.09 0 0 1 0 1l2 1.18a8.74 8.74 0 0 0-.14-1.82 6.46 6.46 0 0 0-.49-1.54 5.53 5.53 0 0 0-.83-1.23 4.77 4.77 0 0 0-1.14-.9M1011.3 479.11a1.65 1.65 0 0 1 .58-1.33 1.21 1.21 0 0 1 1.26.14 2.93 2.93 0 0 1 .65.51 3.23 3.23 0 0 1 .54.72 3.52 3.52 0 0 1 .35.91 3.74 3.74 0 0 1 .13 1.07l-3.51-2m1.89-2.9a4 4 0 0 0-1.65-.58 1.84 1.84 0 0 0-1.25.35 2.56 2.56 0 0 0-.8 1.2 6.06 6.06 0 0 0-.29 2 9.23 9.23 0 0 0 .27 2.27 8.33 8.33 0 0 0 .82 2 7.52 7.52 0 0 0 1.29 1.68 8.7 8.7 0 0 0 1.73 1.32c.26.14.52.29.79.42s.54.26.81.37.52.2.78.29a6.27 6.27 0 0 0 .71.22v-1.86a9.24 9.24 0 0 1-1.46-.48 11.57 11.57 0 0 1-1.32-.65 4.87 4.87 0 0 1-1-.73 4.25 4.25 0 0 1-.75-.94 4.11 4.11 0 0 1-.48-1.09 4.46 4.46 0 0 1-.17-1.23l5.55 3.21c0-.21 0-.44.05-.69s0-.45 0-.62a7.44 7.44 0 0 0-.24-1.87 7.31 7.31 0 0 0-1.86-3.34 6.63 6.63 0 0 0-1.58-1.23M1022.57 478.72l-2.07-.57v2.48l-2.27-1.31v1.82l2.27 1.31v4.73a7 7 0 0 0 .18 1.63 4.92 4.92 0 0 0 .58 1.37 5.65 5.65 0 0 0 1 1.2 8.2 8.2 0 0 0 1.43 1 8.55 8.55 0 0 0 1.05.52 10.87 10.87 0 0 0 1.11.42v-1.87a5.76 5.76 0 0 1-.87-.28 6 6 0 0 1-1-.46 3 3 0 0 1-1.12-1.07 3 3 0 0 1-.32-1.45v-4.56l3.29 1.89v-1.81l-3.29-1.9v-3.11M1035.29 489.18l-2-1.18v6.15a3.7 3.7 0 0 1-1 .73 1 1 0 0 1-1-.08 1.83 1.83 0 0 1-.79-.86 3.22 3.22 0 0 1-.25-1.35v-6.32l-2-1.17v6.51a7.17 7.17 0 0 0 .15 1.49 6.19 6.19 0 0 0 .49 1.37 5.09 5.09 0 0 0 .81 1.15 4.77 4.77 0 0 0 1.13.9 3.21 3.21 0 0 0 .84.36 1.92 1.92 0 0 0 .7.07 1.44 1.44 0 0 0 .6-.18 2.48 2.48 0 0 0 .53-.36v1.46l1.76 1v-9.7M1042.48 493.12a4.21 4.21 0 0 0-.86-.39 2.31 2.31 0 0 0-.71-.08 1.93 1.93 0 0 0-.59.18 1.58 1.58 0 0 0-.46.4l-.08-1.46-1.84-1.06v9.7l2.08 1.2v-6.14a2.52 2.52 0 0 1 1-.79 1.13 1.13 0 0 1 .93.11 1.63 1.63 0 0 1 .45.38 1.89 1.89 0 0 1 .34.55 3.29 3.29 0 0 1 .2.75 5.76 5.76 0 0 1 0 1l2 1.17a8.72 8.72 0 0 0-.13-1.81 6.32 6.32 0 0 0-.5-1.54 5 5 0 0 0-.83-1.23 4.72 4.72 0 0 0-1.13-.9M1051.45 498.3a4 4 0 0 0-.84-.38 2.48 2.48 0 0 0-.7-.07 1.78 1.78 0 0 0-.61.17 2.36 2.36 0 0 0-.53.38v-1.47l-1.75-1v9.7l2 1.17v-6.14a3.12 3.12 0 0 1 1-.72 1 1 0 0 1 1 .09 2.28 2.28 0 0 1 1 2.19v6.32l2 1.17v-6.51a6.16 6.16 0 0 0-.16-1.5 5.47 5.47 0 0 0-1.28-2.5 4.73 4.73 0 0 0-1.13-.89M1069.19 516.78a3.22 3.22 0 0 1-1.12-1.09 5.91 5.91 0 0 1-.75-1.81l4.06-1v.67a9.1 9.1 0 0 1-.18 1.91 3 3 0 0 1-.46 1.15 1 1 0 0 1-.7.43 1.43 1.43 0 0 1-.87-.23m-2.17-5.13v-.71a9 9 0 0 1 .17-1.91 3 3 0 0 1 .47-1.15 1 1 0 0 1 .7-.43 1.44 1.44 0 0 1 .86.22 3.32 3.32 0 0 1 1.13 1.11 5.93 5.93 0 0 1 .76 1.84l-4.08 1m2.33-5.8a4.11 4.11 0 0 0-1.85-.63 1.81 1.81 0 0 0-1.38.48 3.31 3.31 0 0 0-.86 1.56 9.82 9.82 0 0 0-.3 2.58 14.69 14.69 0 0 0 .3 3.08 10.87 10.87 0 0 0 .86 2.49 7.68 7.68 0 0 0 1.29 1.89 7.36 7.36 0 0 0 1.66 1.32 4 4 0 0 0 1.84.62 1.85 1.85 0 0 0 1.37-.48 3.23 3.23 0 0 0 .86-1.56 9.47 9.47 0 0 0 .3-2.58 14.66 14.66 0 0 0-.3-3.09 10.46 10.46 0 0 0-.84-2.48 7.9 7.9 0 0 0-1.3-1.89 7.05 7.05 0 0 0-1.65-1.31M1078.51 520.28a1.43 1.43 0 0 0-.58-.2.66.66 0 0 0-.43.11.71.71 0 0 0-.27.34 1.47 1.47 0 0 0-.09.53 2 2 0 0 0 .07.56 3 3 0 0 0 .17.48c.07.15.15.31.23.45a4.64 4.64 0 0 1 .23.44 3.66 3.66 0 0 1 .18.46 2.09 2.09 0 0 1 .07.51.78.78 0 0 1-.19.57.68.68 0 0 1-.5.18 1.75 1.75 0 0 1-.75-.16 4.89 4.89 0 0 1-.74-.35l-.19-.12v1.53a6.3 6.3 0 0 0 2 .79 2.39 2.39 0 0 0 1.41-.1 1.7 1.7 0 0 0 .85-.88 3.63 3.63 0 0 0 .29-1.51 4.83 4.83 0 0 0-.12-1 4.77 4.77 0 0 0-.34-1.05 4 4 0 0 0-.54-.89 2.74 2.74 0 0 0-.73-.64m.06-6.21a1.52 1.52 0 0 0-.58-.21.83.83 0 0 0-.48.1.81.81 0 0 0-.32.36 1.41 1.41 0 0 0-.12.61 2.82 2.82 0 0 0 .11.74 3.67 3.67 0 0 0 .32.73 3.82 3.82 0 0 0 .48.64 2.55 2.55 0 0 0 .58.47 1.56 1.56 0 0 0 .59.21.76.76 0 0 0 .48-.1.78.78 0 0 0 .32-.35 1.41 1.41 0 0 0 .12-.61 2.43 2.43 0 0 0-.12-.74 3.64 3.64 0 0 0-.31-.73 3.41 3.41 0 0 0-.48-.65 2.6 2.6 0 0 0-.59-.47M975.91 474.18l-.69-.4v1.8l.53.3a4.43 4.43 0 0 1 .72.52 3 3 0 0 1 .55.67 3 3 0 0 1 .36.88 4.6 4.6 0 0 1 .12 1.11v1.59a5.54 5.54 0 0 0 .42 2.34 4 4 0 0 0 1.31 1.57 2.38 2.38 0 0 0-.78-.19.69.69 0 0 0-.54.2 1.36 1.36 0 0 0-.32.67 5.27 5.27 0 0 0-.11 1.17v2.48a2.61 2.61 0 0 1-.13.94.76.76 0 0 1-.36.45.77.77 0 0 1-.55 0 3 3 0 0 1-.72-.31l-.53-.31v1.8l.69.4a5.25 5.25 0 0 0 1.56.65 1.41 1.41 0 0 0 1.06-.14 1.45 1.45 0 0 0 .62-.88 5.6 5.6 0 0 0 .2-1.61v-2.48a2.89 2.89 0 0 1 .09-.8.59.59 0 0 1 .29-.42.65.65 0 0 1 .51-.05 3.05 3.05 0 0 1 .76.33l.53.31V485l-.54-.31a3.16 3.16 0 0 1-1.26-1.22 3.32 3.32 0 0 1-.37-1.69v-1.61a6.76 6.76 0 0 0-.84-3.51 6.92 6.92 0 0 0-2.58-2.44" transform="translate(187.76 308.96)"/></g><g clip-path="url(#clip-path-3)"><path d="M1508.37 306.4a5.84 5.84 0 0 0-2.66 4.61c0 1.69 1.2 2.38 2.67 1.53a5.85 5.85 0 0 0 2.67-4.62c0-1.69-1.21-2.38-2.68-1.52" transform="translate(187.76 308.96)" fill="#8cc63f"/></g><g clip-path="url(#clip-path-4)"><path d="M1501.33 311a5.85 5.85 0 0 0-2.67 4.62c0 1.69 1.21 2.38 2.68 1.52a5.88 5.88 0 0 0 2.67-4.61c0-1.7-1.21-2.38-2.68-1.53" transform="translate(187.76 308.96)" fill="#fcee21"/></g><g clip-path="url(#clip-path-5)"><path d="M1493.79 315.53a5.87 5.87 0 0 0-2.66 4.62c0 1.7 1.2 2.39 2.68 1.53a5.89 5.89 0 0 0 2.66-4.61c0-1.7-1.2-2.39-2.68-1.54" transform="translate(187.76 308.96)" fill="#ed1c24"/></g></svg>