<svg id="Layer_1" data-name="Layer 1" xmlns="http://www.w3.org/2000/svg" xmlns:xlink="http://www.w3.org/1999/xlink" viewBox="0 0 1182 970.24"><defs><clipPath id="clip-path" transform="translate(-311.3 -64.23)"><polygon points="904.37 565.94 923.54 554.8 1009.91 604.67 990.75 615.81 904.37 565.94" style="fill:none"/></clipPath><radialGradient id="radial-gradient" cx="770.28" cy="420.27" r="7.18" gradientUnits="userSpaceOnUse"><stop offset="0" stop-color="#5ac7de"/><stop offset="1" stop-color="#2389b3"/></radialGradient><radialGradient id="radial-gradient-2" cx="838.65" cy="460.97" r="7.18" xlink:href="#radial-gradient"/><radialGradient id="radial-gradient-3" cx="700.05" cy="460.85" r="7.18" xlink:href="#radial-gradient"/><radialGradient id="radial-gradient-4" cx="768.42" cy="501.55" r="7.18" xlink:href="#radial-gradient"/><radialGradient id="radial-gradient-5" cx="770.28" cy="341.73" r="7.18" xlink:href="#radial-gradient"/><radialGradient id="radial-gradient-6" cx="838.65" cy="382.44" r="7.18" xlink:href="#radial-gradient"/><radialGradient id="radial-gradient-7" cx="700.05" cy="382.31" r="7.18" xlink:href="#radial-gradient"/><radialGradient id="radial-gradient-8" cx="768.42" cy="423.01" r="7.18" xlink:href="#radial-gradient"/></defs><title>learning</title><polygon points="374.16 0 1182 467.44 497.69 862.51 0 572.32 0 216.02 374.16 0" style="fill:#29abe2"/><polyline points="1182 467.44 1181.98 681.88 684.36 970.24 497.69 862.51" style="fill:#0071bc"/><g id="Book"><polygon points="718.25 560.4 625.56 506.88 501.96 578.24 495.63 578.76 495.63 581.89 593.08 638.15 723 563.14 723 560.01 718.25 560.4" style="fill:#2389b3"/><polygon points="495.63 578.76 625.56 503.75 723 560.01 593.08 635.02 495.63 578.76" style="fill:#5ac7de"/><polygon points="498.72 551.59 498.71 578.96 593.54 633.71 593.54 606.34 498.72 551.59" style="fill:#ccc"/><polygon points="593.54 606.34 593.54 633.71 719.95 559.92 719.95 533.45 593.54 606.34" style="fill:#e6e6e6"/><polygon points="718.24 532.27 625.55 478.76 501.96 550.11 495.63 550.63 495.63 553.77 593.08 610.02 722.99 535.01 722.99 531.88 718.24 532.27" style="fill:#2389b3"/><polygon points="495.63 550.63 625.55 475.62 722.99 531.88 593.08 606.89 495.63 550.63" style="fill:#5ac7de"/><polygon points="495.63 553.77 495.63 578.76 498.71 580.54 498.71 555.54 495.63 553.77" style="fill:#2389b3"/><polygon points="500.01 579.72 500.01 556.3 498.71 555.54 498.71 580.54 500.01 579.72" style="fill:#34aac3"/><g style="isolation:isolate"><g style="clip-path:url(#clip-path)"><path d="M928.41,558.12a10.36,10.36,0,0,0-5.32-1.44,10.59,10.59,0,0,0-5.33,1.48L909,563.24l4.12,2.37,3.27-1.9,1.19.69,3.62-2.11-1.19-.68,1.71-1a2.33,2.33,0,0,1,2.39-.27c.34.19.46.38.38.57s-.39.45-.93.77l-8.6,5,4.11,2.37,8.88-5.16c1.77-1,2.69-2,2.76-2.95s-.7-1.88-2.32-2.82" transform="translate(-311.3 -64.23)" style="fill:#e6e6e6"/><polyline points="627.53 500.3 623.74 498.12 610 506.1 613.79 508.29 627.53 500.3" style="fill:#e6e6e6"/><path d="M942.28,570.57a10.47,10.47,0,0,0-5.24-1.31,9.87,9.87,0,0,0-5.15,1.23,3.54,3.54,0,0,0-2.11,2.69,2.8,2.8,0,0,0,1.73,2.6,8.19,8.19,0,0,0,1.86.73l3.46-2a2.7,2.7,0,0,1-.92-.32,1,1,0,0,1-.59-.78.93.93,0,0,1,.57-.78,2.72,2.72,0,0,1,1.37-.32,2.66,2.66,0,0,1,1.38.31c.85.49.76,1-.29,1.66l-3.78,2.19a5.49,5.49,0,0,1-2.47.79,3.93,3.93,0,0,1-2.25-.52,2.67,2.67,0,0,1-1.1-1.11l-3.42,2a6.39,6.39,0,0,0,1.52,1.3,10.52,10.52,0,0,0,5.67,1.34,12.25,12.25,0,0,0,5.9-1.65l3.3-1.92q2.5-1.46,2.79-2.82a2.19,2.19,0,0,0-.43-1.71,5.33,5.33,0,0,0-1.8-1.59" transform="translate(-311.3 -64.23)" style="fill:#e6e6e6"/><path d="M947.46,581.36a1,1,0,0,1-.58-.85,1,1,0,0,1,.64-.86,2.88,2.88,0,0,1,1.5-.38,2.79,2.79,0,0,1,1.46.34,1,1,0,0,1,.61.86,1.09,1.09,0,0,1-.64.87,3.08,3.08,0,0,1-1.5.37,2.91,2.91,0,0,1-1.49-.35m6.85-3.85a10.79,10.79,0,0,0-5.36-1.35,10.13,10.13,0,0,0-5.27,1.25c-1.44.84-2.16,1.86-2.14,3.06s.76,2.21,2.23,3.06a10.53,10.53,0,0,0,5.28,1.28,10.34,10.34,0,0,0,5.26-1.26c1.42-.83,2.14-1.84,2.14-3a3.57,3.57,0,0,0-2.14-3" transform="translate(-311.3 -64.23)" style="fill:#e6e6e6"/><path d="M965.49,584a8.33,8.33,0,0,0-4.5-1.09,9.6,9.6,0,0,0-4.65,1.32l-5.49,3.19,3.79,2.18,4.76-2.76a2.55,2.55,0,0,1,2.61-.32,1.2,1.2,0,0,1,.49.55l4-2.34a9,9,0,0,0-1-.73" transform="translate(-311.3 -64.23)" style="fill:#e6e6e6"/><path d="M971.33,587.58l-3.79-2.18-10,5.83,3.78,2.19,10-5.84m2.6-3.68a3.79,3.79,0,0,0-1.88-.46,3.45,3.45,0,0,0-1.83.42c-.53.3-.78.65-.76,1s.31.76.86,1.08a3.67,3.67,0,0,0,1.87.49A3.38,3.38,0,0,0,974,586a1.16,1.16,0,0,0,.71-1.06,1.29,1.29,0,0,0-.78-1.08" transform="translate(-311.3 -64.23)" style="fill:#e6e6e6"/><path d="M980.63,588.67l-3.79-2.19-8.24,4.79a5.35,5.35,0,0,0-2.57,2.5,2.47,2.47,0,0,0,.22,2,4.63,4.63,0,0,0,1.83,1.75c.09.06.25.14.45.24l4-2.29c-.67-.39-1-.75-.94-1.07s.47-.72,1.27-1.18l1.7,1,4-2.31-1.7-1,3.85-2.23" transform="translate(-311.3 -64.23)" style="fill:#e6e6e6"/><path d="M988,592.91l-3.78-2.18-13.74,8,3.79,2.18,5.46-3.17a1.51,1.51,0,0,1,1.57-.17c.26.15.37.3.31.44a2,2,0,0,1-.73.58l-5.31,3.08,3.79,2.19,6.36-3.7c1.19-.69,1.85-1.4,2-2.14s-.29-1.38-1.26-1.94a6.5,6.5,0,0,0-2.62-.71l4.19-2.44" transform="translate(-311.3 -64.23)" style="fill:#e6e6e6"/><path d="M1001.7,604.89a9.29,9.29,0,0,0-4.39-.9,2.73,2.73,0,0,0-1.61-2.56,7.55,7.55,0,0,0-4-.92,8,8,0,0,0-4,1l-6.18,3.59,3.78,2.19,5.41-3.15a1.78,1.78,0,0,1,1.75-.28c.23.13.3.27.24.42a2.12,2.12,0,0,1-.74.58L986.58,608l3.79,2.18,5.4-3.14c.74-.43,1.34-.53,1.76-.28.24.13.3.27.24.42a2.37,2.37,0,0,1-.74.58l-5.42,3.14,3.79,2.19,5.76-3.35c1.36-.79,2.09-1.56,2.21-2.33.15-1-.41-1.81-1.67-2.54" transform="translate(-311.3 -64.23)" style="fill:#e6e6e6"/></g></g></g><g id="Tree"><g id="Trunk"><polygon points="499.69 283 522.88 269.53 522.28 481.12 499.09 494.6 499.69 283" style="fill:#ccc"/><polygon points="476.36 269.53 499.55 256.05 522.88 269.53 499.69 283 476.36 269.53" style="fill:#848484"/><polygon points="499.69 283 499.09 494.6 475.76 481.12 476.36 269.53 499.69 283" style="fill:#b3b3b3"/></g><g id="Branch_2" data-name="Branch 2"><polygon points="626.92 193.65 612.42 185.23 612.34 154.8 626.83 163.22 626.92 193.65" style="fill:#b3b3b3"/><polygon points="626.83 163.22 612.34 154.8 626.92 146.38 641.42 154.8 626.83 163.22" style="fill:#e6e6e6"/><polygon points="555.08 235.13 540.59 226.7 612.42 185.23 626.92 193.65 555.08 235.13" style="fill:#e6e6e6"/><polygon points="555.13 251.89 540.63 243.46 540.59 226.7 555.08 235.13 555.13 251.89" style="fill:#b3b3b3"/><polygon points="641.42 154.8 641.5 185.23 641.55 201.82 555.13 251.89 555.08 235.13 626.92 193.65 626.83 163.22 641.42 154.8" style="fill:#ccc"/></g><g id="Branch_4" data-name="Branch 4"><polygon points="395.49 144.67 409.98 136.25 409.89 166.69 395.4 175.11 395.49 144.67" style="fill:#ccc"/><polygon points="380.9 136.25 395.39 127.83 409.98 136.25 395.49 144.67 380.9 136.25" style="fill:#e6e6e6"/><polygon points="467.25 216.59 481.74 208.17 481.69 224.93 467.2 233.35 467.25 216.59" style="fill:#ccc"/><polygon points="395.4 175.11 409.89 166.69 481.74 208.17 467.25 216.59 395.4 175.11" style="fill:#e6e6e6"/><polygon points="395.49 144.67 395.4 175.11 467.25 216.59 467.2 233.35 380.77 183.45 380.81 166.69 380.9 136.25 395.49 144.67" style="fill:#b3b3b3"/></g><g id="Branch_4_copy" data-name="Branch 4 copy"><polygon points="350.84 87.69 358.08 83.48 358.04 98.7 350.79 102.91 350.84 87.69" style="fill:#ccc"/><polygon points="343.54 83.48 350.79 79.27 358.08 83.48 350.84 87.69 343.54 83.48" style="fill:#e6e6e6"/><polygon points="386.72 123.65 393.96 119.44 393.94 127.82 386.69 132.03 386.72 123.65" style="fill:#ccc"/><polygon points="350.79 102.91 358.04 98.7 393.96 119.44 386.72 123.65 350.79 102.91" style="fill:#e6e6e6"/><polygon points="350.84 87.69 350.79 102.91 386.72 123.65 386.69 132.03 343.48 107.08 343.5 98.7 343.54 83.48 350.84 87.69" style="fill:#b3b3b3"/></g><g id="Bush_4_copy" data-name="Bush 4 copy"><polygon points="367.18 69.84 367.13 88.7 350.82 98.17 350.87 79.31 367.18 69.84" style="fill:#34aac3"/><polygon points="350.87 79.31 350.82 98.17 334.41 88.7 334.46 69.84 350.87 79.31" style="fill:#2389b3"/><polygon points="367.18 69.84 350.87 79.31 334.46 69.84 350.77 60.36 367.18 69.84" style="fill:#5ac7de"/></g><g id="Branch_4_copy_3" data-name="Branch 4 copy 3"><polygon points="317.75 200.65 325 196.43 324.95 211.65 317.7 215.86 317.75 200.65" style="fill:#ccc"/><polygon points="310.45 196.43 317.7 192.22 325 196.43 317.75 200.65 310.45 196.43" style="fill:#e6e6e6"/><polygon points="353.63 236.6 360.88 232.39 360.85 240.77 353.61 244.98 353.63 236.6" style="fill:#ccc"/><polygon points="317.7 215.86 324.95 211.65 360.88 232.39 353.63 236.6 317.7 215.86" style="fill:#e6e6e6"/><polygon points="317.75 200.65 317.7 215.86 353.63 236.6 353.61 244.98 310.39 220.03 310.41 211.65 310.45 196.43 317.75 200.65" style="fill:#b3b3b3"/></g><g id="Bush_4_copy_3" data-name="Bush 4 copy 3"><polygon points="334.09 182.79 334.04 201.65 317.73 211.13 317.79 192.27 334.09 182.79" style="fill:#34aac3"/><polygon points="317.79 192.27 317.73 211.13 301.32 201.65 301.38 182.79 317.79 192.27" style="fill:#2389b3"/><polygon points="334.09 182.79 317.79 192.27 301.38 182.79 317.68 173.32 334.09 182.79" style="fill:#5ac7de"/></g><g id="Branch_4_copy_4" data-name="Branch 4 copy 4"><polygon points="572.44 98.62 579.68 94.4 579.64 109.62 572.39 113.83 572.44 98.62" style="fill:#ccc"/><polygon points="565.14 94.41 572.39 90.19 579.68 94.4 572.44 98.62 565.14 94.41" style="fill:#e6e6e6"/><polygon points="608.32 134.57 615.56 130.36 615.54 138.74 608.29 142.95 608.32 134.57" style="fill:#ccc"/><polygon points="572.39 113.83 579.64 109.62 615.56 130.36 608.32 134.57 572.39 113.83" style="fill:#e6e6e6"/><polygon points="572.44 98.62 572.39 113.83 608.32 134.57 608.29 142.95 565.08 118 565.1 109.62 565.14 94.41 572.44 98.62" style="fill:#b3b3b3"/></g><g id="Bush_4_copy_4" data-name="Bush 4 copy 4"><polygon points="588.78 80.77 588.73 99.62 572.42 109.1 572.48 90.24 588.78 80.77" style="fill:#34aac3"/><polygon points="572.48 90.24 572.42 109.1 556.01 99.62 556.06 80.77 572.48 90.24" style="fill:#2389b3"/><polygon points="588.78 80.77 572.48 90.24 556.06 80.77 572.37 71.29 588.78 80.77" style="fill:#5ac7de"/></g><g id="Branch_2_copy_3" data-name="Branch 2 copy 3"><polygon points="433.37 84.9 426.12 80.69 426.08 65.47 433.32 69.68 433.37 84.9" style="fill:#b3b3b3"/><polygon points="433.32 69.68 426.08 65.47 433.37 61.26 440.62 65.47 433.32 69.68" style="fill:#e6e6e6"/><polygon points="397.45 105.64 390.2 101.43 426.12 80.69 433.37 84.9 397.45 105.64" style="fill:#e6e6e6"/><polygon points="397.47 114.02 390.23 109.81 390.2 101.43 397.45 105.64 397.47 114.02" style="fill:#b3b3b3"/><polygon points="440.62 65.47 440.66 80.69 440.68 88.98 397.47 114.02 397.45 105.64 433.37 84.9 433.32 69.68 440.62 65.47" style="fill:#ccc"/></g><g id="Bush_3_copy_3" data-name="Bush 3 copy 3"><polygon points="449.73 50.05 449.68 68.91 433.37 78.39 433.43 59.53 449.73 50.05" style="fill:#34aac3"/><polygon points="433.43 59.53 433.37 78.39 416.96 68.91 417.02 50.05 433.43 59.53" style="fill:#2389b3"/><polygon points="449.73 50.05 433.43 59.53 417.02 50.05 433.32 40.58 449.73 50.05" style="fill:#5ac7de"/></g><g id="Branch_2_copy_2" data-name="Branch 2 copy 2"><polygon points="410.92 222.83 403.67 218.62 403.63 203.41 410.87 207.62 410.92 222.83" style="fill:#b3b3b3"/><polygon points="410.87 207.62 403.63 203.41 410.92 199.2 418.17 203.41 410.87 207.62" style="fill:#e6e6e6"/><polygon points="375 243.57 367.75 239.36 403.67 218.62 410.92 222.83 375 243.57" style="fill:#e6e6e6"/><polygon points="375.02 251.95 367.77 247.74 367.75 239.36 375 243.57 375.02 251.95" style="fill:#b3b3b3"/><polygon points="418.17 203.41 418.21 218.62 418.23 226.92 375.02 251.95 375 243.57 410.92 222.83 410.87 207.62 418.17 203.41" style="fill:#ccc"/></g><g id="Bush_3_copy_2" data-name="Bush 3 copy 2"><polygon points="427.28 187.99 427.23 206.84 410.92 216.32 410.98 197.46 427.28 187.99" style="fill:#34aac3"/><polygon points="410.98 197.46 410.92 216.32 394.51 206.84 394.57 187.99 410.98 197.46" style="fill:#2389b3"/><polygon points="427.28 187.99 410.98 197.46 394.57 187.99 410.87 178.51 427.28 187.99" style="fill:#5ac7de"/></g><g id="Bush_4" data-name="Bush 4"><polygon points="428.17 108.97 428.06 146.69 395.45 165.64 395.56 127.92 428.17 108.97" style="fill:#34aac3"/><polygon points="395.56 127.92 395.45 165.64 362.63 146.69 362.74 108.97 395.56 127.92" style="fill:#2389b3"/><polygon points="428.17 108.97 395.56 127.92 362.74 108.97 395.35 90.02 428.17 108.97" style="fill:#5ac7de"/></g><g id="Bush_1" data-name="Bush 1"><polygon points="565.23 199.13 565.02 274.56 499.8 312.46 500.01 237.03 565.23 199.13" style="fill:#34aac3"/><polygon points="500.01 237.03 499.8 312.46 434.16 274.56 434.37 199.13 500.01 237.03" style="fill:#2389b3"/><polygon points="565.23 199.13 500.01 237.03 434.37 199.13 499.59 161.23 565.23 199.13" style="fill:#5ac7de"/></g><g id="Branch_4_copy_2" data-name="Branch 4 copy 2"><polygon points="575.49 207.36 582.74 203.15 582.7 218.36 575.45 222.57 575.49 207.36" style="fill:#ccc"/><polygon points="568.2 203.15 575.45 198.94 582.74 203.15 575.49 207.36 568.2 203.15" style="fill:#e6e6e6"/><polygon points="611.37 243.31 618.62 239.1 618.6 247.48 611.35 251.69 611.37 243.31" style="fill:#ccc"/><polygon points="575.45 222.57 582.7 218.36 618.62 239.1 611.37 243.31 575.45 222.57" style="fill:#e6e6e6"/><polygon points="575.49 207.36 575.45 222.57 611.37 243.31 611.35 251.69 568.13 226.74 568.16 218.36 568.2 203.15 575.49 207.36" style="fill:#b3b3b3"/></g><g id="Bush_4_copy_2" data-name="Bush 4 copy 2"><polygon points="591.83 189.51 591.78 208.36 575.48 217.84 575.53 198.98 591.83 189.51" style="fill:#34aac3"/><polygon points="575.53 198.98 575.48 217.84 559.07 208.36 559.12 189.51 575.53 198.98" style="fill:#2389b3"/><polygon points="591.83 189.51 575.53 198.98 559.12 189.51 575.42 180.03 591.83 189.51" style="fill:#5ac7de"/></g><g id="Branch_1" data-name="Branch 1"><polygon points="386.04 287.48 371.55 279.05 443.39 237.57 457.88 246 386.04 287.48" style="fill:#e6e6e6"/><polygon points="371.45 295.9 371.37 265.46 356.87 257.04 356.96 287.48 357.01 304.24 371.5 312.66 371.45 295.9" style="fill:#b3b3b3"/><polygon points="371.37 265.46 356.87 257.04 371.46 248.62 385.95 257.04 371.37 265.46" style="fill:#e6e6e6"/><polygon points="385.95 257.04 386.04 287.48 457.88 246 457.93 262.76 371.5 312.66 371.45 295.9 371.37 265.46 385.95 257.04" style="fill:#ccc"/></g><g id="Bush_5" data-name="Bush 5"><polygon points="404.13 227.14 404.03 264.85 371.42 283.8 371.53 246.09 404.13 227.14" style="fill:#34aac3"/><polygon points="371.53 246.09 371.42 283.8 338.6 264.85 338.7 227.14 371.53 246.09" style="fill:#2389b3"/><polygon points="404.13 227.14 371.53 246.09 338.7 227.14 371.31 208.19 404.13 227.14" style="fill:#5ac7de"/></g><g id="Branch_1_copy" data-name="Branch 1 copy"><polygon points="322 274.43 314.76 270.22 350.68 249.48 357.93 253.69 322 274.43" style="fill:#e6e6e6"/><polygon points="314.71 278.64 314.67 263.43 307.42 259.21 307.46 274.43 307.49 282.81 314.73 287.02 314.71 278.64" style="fill:#b3b3b3"/><polygon points="314.67 263.43 307.42 259.21 314.71 255 321.96 259.22 314.67 263.43" style="fill:#e6e6e6"/><polygon points="321.96 259.22 322 274.43 357.93 253.69 357.95 262.07 314.73 287.02 314.71 278.64 314.67 263.43 321.96 259.22" style="fill:#ccc"/></g><g id="Bush_5_copy" data-name="Bush 5 copy"><polygon points="331.05 244.26 331 263.12 314.69 272.6 314.75 253.74 331.05 244.26" style="fill:#34aac3"/><polygon points="314.75 253.74 314.69 272.6 298.28 263.12 298.34 244.26 314.75 253.74" style="fill:#2389b3"/><polygon points="331.05 244.26 314.75 253.74 298.34 244.26 314.64 234.79 331.05 244.26" style="fill:#5ac7de"/></g><g id="Branch_3" data-name="Branch 3"><polygon points="535.17 258.59 549.66 250.17 621.5 291.64 607.01 300.06 535.17 258.59" style="fill:#e6e6e6"/><polygon points="621.68 278.05 621.6 308.49 621.55 325.08 636.04 316.66 636.09 300.06 636.18 269.63 621.68 278.05" style="fill:#ccc"/><polygon points="607.1 269.63 621.59 261.21 636.18 269.63 621.68 278.05 607.1 269.63" style="fill:#e6e6e6"/><polygon points="621.68 278.05 621.6 308.49 621.55 325.08 535.12 275.35 535.17 258.59 607.01 300.06 607.1 269.63 621.68 278.05" style="fill:#b3b3b3"/></g><g id="Branch_2_copy_4" data-name="Branch 2 copy 4"><polygon points="671.5 236.37 664.25 232.16 664.21 216.94 671.45 221.15 671.5 236.37" style="fill:#b3b3b3"/><polygon points="671.45 221.15 664.21 216.94 671.5 212.73 678.75 216.94 671.45 221.15" style="fill:#e6e6e6"/><polygon points="635.58 257.11 628.33 252.89 664.25 232.16 671.5 236.37 635.58 257.11" style="fill:#e6e6e6"/><polygon points="635.6 265.49 628.36 261.27 628.33 252.89 635.58 257.11 635.6 265.49" style="fill:#b3b3b3"/><polygon points="678.75 216.94 678.79 232.16 678.81 240.45 635.6 265.49 635.58 257.11 671.5 236.37 671.45 221.15 678.75 216.94" style="fill:#ccc"/></g><g id="Bush_3_copy_4" data-name="Bush 3 copy 4"><polygon points="687.86 201.52 687.81 220.38 671.5 229.85 671.56 211 687.86 201.52" style="fill:#34aac3"/><polygon points="671.56 211 671.5 229.85 655.09 220.38 655.15 201.52 671.56 211" style="fill:#2389b3"/><polygon points="687.86 201.52 671.56 211 655.15 201.52 671.45 192.05 687.86 201.52" style="fill:#5ac7de"/></g><g id="Bush_2" data-name="Bush 2"><polygon points="654.27 239.73 654.16 277.44 621.56 296.39 621.66 258.68 654.27 239.73" style="fill:#34aac3"/><polygon points="621.66 258.68 621.56 296.39 588.74 277.44 588.84 239.73 621.66 258.68" style="fill:#2389b3"/><polygon points="654.27 239.73 621.66 258.68 588.84 239.73 621.45 220.78 654.27 239.73" style="fill:#5ac7de"/></g><g id="Branch_3_copy" data-name="Branch 3 copy"><polygon points="633.95 267.94 641.2 263.73 677.12 284.47 669.87 288.68 633.95 267.94" style="fill:#e6e6e6"/><polygon points="677.21 277.68 677.16 292.89 677.14 301.19 684.39 296.98 684.41 288.68 684.45 273.46 677.21 277.68" style="fill:#ccc"/><polygon points="669.91 273.46 677.16 269.25 684.45 273.46 677.21 277.68 669.91 273.46" style="fill:#e6e6e6"/><polygon points="677.21 277.68 677.16 292.89 677.14 301.19 633.93 276.32 633.95 267.94 669.87 288.68 669.91 273.46 677.21 277.68" style="fill:#b3b3b3"/></g><g id="Bush_2_copy" data-name="Bush 2 copy"><polygon points="693.5 258.51 693.45 277.37 677.14 286.85 677.2 267.99 693.5 258.51" style="fill:#34aac3"/><polygon points="677.2 267.99 677.14 286.85 660.73 277.37 660.78 258.51 677.2 267.99" style="fill:#2389b3"/><polygon points="693.5 258.51 677.2 267.99 660.78 258.51 677.09 249.04 693.5 258.51" style="fill:#5ac7de"/></g><g id="Branch_3_copy_3" data-name="Branch 3 copy 3"><polygon points="384.95 255.35 392.2 251.14 428.12 271.88 420.87 276.09 384.95 255.35" style="fill:#e6e6e6"/><polygon points="428.21 265.08 428.17 280.3 428.14 288.6 435.39 284.39 435.41 276.09 435.45 260.87 428.21 265.08" style="fill:#ccc"/><polygon points="420.92 260.87 428.16 256.66 435.45 260.87 428.21 265.08 420.92 260.87" style="fill:#e6e6e6"/><polygon points="428.21 265.08 428.17 280.3 428.14 288.6 384.93 263.73 384.95 255.35 420.87 276.09 420.92 260.87 428.21 265.08" style="fill:#b3b3b3"/></g><g id="Bush_2_copy_3" data-name="Bush 2 copy 3"><polygon points="444.5 245.93 444.45 264.78 428.14 274.26 428.2 255.4 444.5 245.93" style="fill:#34aac3"/><polygon points="428.2 255.4 428.14 274.26 411.73 264.78 411.79 245.93 428.2 255.4" style="fill:#2389b3"/><polygon points="444.5 245.93 428.2 255.4 411.79 245.93 428.09 236.45 444.5 245.93" style="fill:#5ac7de"/></g><g id="Branch_1_copy_2" data-name="Branch 1 copy 2"><polygon points="571.48 286.7 564.24 282.49 600.16 261.75 607.4 265.96 571.48 286.7" style="fill:#e6e6e6"/><polygon points="564.19 290.91 564.15 275.69 556.9 271.48 556.94 286.7 556.97 295.08 564.21 299.29 564.19 290.91" style="fill:#b3b3b3"/><polygon points="564.15 275.69 556.9 271.48 564.19 267.27 571.44 271.48 564.15 275.69" style="fill:#e6e6e6"/><polygon points="571.44 271.48 571.48 286.7 607.4 265.96 607.43 274.34 564.21 299.29 564.19 290.91 564.15 275.69 571.44 271.48" style="fill:#ccc"/></g><g id="Bush_5_copy_2" data-name="Bush 5 copy 2"><polygon points="580.53 256.53 580.48 275.39 564.17 284.86 564.23 266.01 580.53 256.53" style="fill:#34aac3"/><polygon points="564.23 266.01 564.17 284.86 547.76 275.39 547.82 256.53 564.23 266.01" style="fill:#2389b3"/><polygon points="580.53 256.53 564.23 266.01 547.82 256.53 564.12 247.06 580.53 256.53" style="fill:#5ac7de"/></g><g id="Branch_2_copy" data-name="Branch 2 copy"><polygon points="668.97 102.97 661.72 98.76 661.68 83.55 668.92 87.76 668.97 102.97" style="fill:#b3b3b3"/><polygon points="668.92 87.76 661.68 83.55 668.97 79.33 676.22 83.55 668.92 87.76" style="fill:#e6e6e6"/><polygon points="633.05 123.71 625.8 119.5 661.72 98.76 668.97 102.97 633.05 123.71" style="fill:#e6e6e6"/><polygon points="633.07 132.09 625.83 127.88 625.8 119.5 633.05 123.71 633.07 132.09" style="fill:#b3b3b3"/><polygon points="676.22 83.55 676.26 98.76 676.28 107.06 633.07 132.09 633.05 123.71 668.97 102.97 668.92 87.76 676.22 83.55" style="fill:#ccc"/></g><g id="Bush_3_copy" data-name="Bush 3 copy"><polygon points="685.33 68.13 685.28 86.98 668.97 96.46 669.03 77.6 685.33 68.13" style="fill:#34aac3"/><polygon points="669.03 77.6 668.97 96.46 652.56 86.98 652.62 68.13 669.03 77.6" style="fill:#2389b3"/><polygon points="685.33 68.13 669.03 77.6 652.62 68.13 668.92 58.65 685.33 68.13" style="fill:#5ac7de"/></g><g id="Bush_3" data-name="Bush 3"><polygon points="659.65 123.96 659.54 161.67 626.93 180.62 627.04 142.91 659.65 123.96" style="fill:#34aac3"/><polygon points="627.04 142.91 626.93 180.62 594.11 161.67 594.22 123.96 627.04 142.91" style="fill:#2389b3"/><polygon points="659.65 123.96 627.04 142.91 594.22 123.96 626.83 105.01 659.65 123.96" style="fill:#5ac7de"/></g><g id="Branch_3_copy_4" data-name="Branch 3 copy 4"><polygon points="640.15 152.26 647.4 148.04 683.32 168.78 676.07 173 640.15 152.26" style="fill:#e6e6e6"/><polygon points="683.41 161.99 683.36 177.21 683.34 185.5 690.59 181.29 690.61 172.99 690.65 157.78 683.41 161.99" style="fill:#ccc"/><polygon points="676.11 157.78 683.36 153.57 690.65 157.78 683.41 161.99 676.11 157.78" style="fill:#e6e6e6"/><polygon points="683.41 161.99 683.36 177.21 683.34 185.5 640.13 160.64 640.15 152.26 676.07 173 676.11 157.78 683.41 161.99" style="fill:#b3b3b3"/></g><g id="Bush_2_copy_4" data-name="Bush 2 copy 4"><polygon points="699.7 142.83 699.65 161.69 683.34 171.16 683.4 152.3 699.7 142.83" style="fill:#34aac3"/><polygon points="683.4 152.3 683.34 171.16 666.93 161.69 666.99 142.83 683.4 152.3" style="fill:#2389b3"/><polygon points="699.7 142.83 683.4 152.3 666.99 142.83 683.29 133.35 699.7 142.83" style="fill:#5ac7de"/></g><g id="Branch_1_copy_3" data-name="Branch 1 copy 3"><polygon points="572.98 161.57 565.74 157.36 601.66 136.62 608.9 140.83 572.98 161.57" style="fill:#e6e6e6"/><polygon points="565.69 165.78 565.64 150.56 558.4 146.35 558.44 161.57 558.47 169.95 565.71 174.16 565.69 165.78" style="fill:#b3b3b3"/><polygon points="565.64 150.56 558.4 146.35 565.69 142.14 572.94 146.35 565.64 150.56" style="fill:#e6e6e6"/><polygon points="572.94 146.35 572.98 161.57 608.9 140.83 608.93 149.21 565.71 174.16 565.69 165.78 565.64 150.56 572.94 146.35" style="fill:#ccc"/></g><g id="Bush_5_copy_3" data-name="Bush 5 copy 3"><polygon points="582.03 131.4 581.98 150.26 565.67 159.74 565.73 140.88 582.03 131.4" style="fill:#34aac3"/><polygon points="565.73 140.88 565.67 159.74 549.26 150.26 549.31 131.4 565.73 140.88" style="fill:#2389b3"/><polygon points="582.03 131.4 565.73 140.88 549.31 131.4 565.62 121.93 582.03 131.4" style="fill:#5ac7de"/></g><g id="Branch_1_copy_4" data-name="Branch 1 copy 4"><polygon points="345.68 155.26 338.43 151.05 374.36 130.31 381.6 134.52 345.68 155.26" style="fill:#e6e6e6"/><polygon points="338.39 159.47 338.34 144.25 331.1 140.04 331.14 155.26 331.17 163.64 338.41 167.85 338.39 159.47" style="fill:#b3b3b3"/><polygon points="338.34 144.25 331.1 140.04 338.39 135.83 345.64 140.04 338.34 144.25" style="fill:#e6e6e6"/><polygon points="345.64 140.04 345.68 155.26 381.6 134.52 381.63 142.9 338.41 167.85 338.39 159.47 338.34 144.25 345.64 140.04" style="fill:#ccc"/></g><g id="Bush_5_copy_4" data-name="Bush 5 copy 4"><polygon points="354.73 125.09 354.68 143.95 338.37 153.42 338.42 134.57 354.73 125.09" style="fill:#34aac3"/><polygon points="338.42 134.57 338.37 153.42 321.96 143.95 322.01 125.09 338.42 134.57" style="fill:#2389b3"/><polygon points="354.73 125.09 338.42 134.57 322.01 125.09 338.32 115.62 354.73 125.09" style="fill:#5ac7de"/></g><g id="Branch_3_copy_2" data-name="Branch 3 copy 2"><polygon points="408.81 134.56 416.05 130.35 451.97 151.09 444.73 155.3 408.81 134.56" style="fill:#e6e6e6"/><polygon points="452.06 144.29 452.02 159.51 452 167.81 459.24 163.6 459.26 155.3 459.31 140.08 452.06 144.29" style="fill:#ccc"/><polygon points="444.77 140.08 452.01 135.87 459.31 140.08 452.06 144.29 444.77 140.08" style="fill:#e6e6e6"/><polygon points="452.06 144.29 452.02 159.51 452 167.81 408.78 142.94 408.81 134.56 444.73 155.3 444.77 140.08 452.06 144.29" style="fill:#b3b3b3"/></g><g id="Bush_2_copy_2" data-name="Bush 2 copy 2"><polygon points="468.36 125.13 468.3 143.99 452 153.47 452.05 134.61 468.36 125.13" style="fill:#34aac3"/><polygon points="452.05 134.61 452 153.47 435.59 143.99 435.64 125.13 452.05 134.61" style="fill:#2389b3"/><polygon points="468.36 125.13 452.05 134.61 435.64 125.13 451.95 115.66 468.36 125.13" style="fill:#5ac7de"/></g></g><g id="Box"><circle cx="772.42" cy="422.17" r="7.18" style="fill:url(#radial-gradient)"/><path d="M1085.61,490.58v-.11s0-.07,0-.11,0-.07,0-.11,0-.07,0-.11,0-.08,0-.11,0-.08,0-.12l0-.12,0-.12,0-.12a.56.56,0,0,1,0-.12.36.36,0,0,1,0-.11.56.56,0,0,1,0-.12s0-.07,0-.11l0-.1a.37.37,0,0,1,0-.11l.06-.12.07-.14a2,2,0,0,1,.11-.2c0-.09.11-.18.17-.27l.14-.2.1-.13.09-.11.08-.1.09-.1.1-.1.09-.09.1-.09.1-.09.1-.08.1-.08.1-.07.1-.06.09-.06,0,0,.08,0,.09,0,.09-.05.09,0,.09,0,.09,0,.09,0,.1,0,.1,0h.1a.34.34,0,0,1,.1,0h.12l.13,0,.16,0a1,1,0,0,1,.18.09l62.65,36.4-.18-.08-.16,0-.13,0h-.33l-.1,0-.09,0-.09,0-.09,0-.09,0-.09,0-.1,0-.09,0-.07,0h0l-.1.06-.09.07-.1.07-.1.07-.1.08-.1.09-.1.09-.1.1-.09.1-.09.09-.09.11-.08.1-.1.14-.15.2-.17.27-.11.2-.07.13-.06.12a.37.37,0,0,1,0,.11s0,.07,0,.11l0,.11a.49.49,0,0,1,0,.11s0,.08,0,.12a.36.36,0,0,1,0,.11l0,.12,0,.12,0,.12a.5.5,0,0,0,0,.12.5.5,0,0,0,0,.12.36.36,0,0,0,0,.11s0,.07,0,.11a.41.41,0,0,0,0,.11s0,.07,0,.11v.1h0v.11a.34.34,0,0,1,0,.1s0,.08,0,.11,0,.08,0,.11,0,.08,0,.11l0,.12s0,.08,0,.12a.5.5,0,0,1,0,.13l.09.15a1.18,1.18,0,0,0,.39.38l-62.64-36.4a1.15,1.15,0,0,1-.4-.39.71.71,0,0,1-.08-.15l-.06-.13a.56.56,0,0,0,0-.12l0-.11a.36.36,0,0,0,0-.11s0-.08,0-.11a54421647430.35,54421647430.35,0,0,1,0-.22v-.11h0Z" transform="translate(-311.3 -64.23)" style="fill:#ccc"/><circle cx="840.79" cy="462.87" r="7.18" style="fill:url(#radial-gradient-2)"/><path d="M1149.56,531.21a.45.45,0,0,0,0-.11.45.45,0,0,0,0-.11.45.45,0,0,0,0-.11s0-.07,0-.11a.52.52,0,0,1,0-.11l0-.12a.5.5,0,0,1,0-.12s0-.08,0-.12l0-.12s0-.08,0-.12,0-.08,0-.11,0-.08,0-.11a1.17,1.17,0,0,0,0-.11s0-.08,0-.11a1.17,1.17,0,0,0-.05-.11l-.06-.12-.07-.14c0-.06-.07-.13-.11-.2a2.33,2.33,0,0,0-.17-.26l-.14-.21a1.13,1.13,0,0,1-.1-.13l-.09-.11-.09-.1-.09-.1-.09-.1L1148,528l-.1-.09-.11-.09a288652691794.25,288652691794.25,0,0,0-.2-.16l-.09-.07-.1-.06-.1-.06h0l-.07,0-.09,0-.09-.05-.09,0-.09,0-.1,0-.09,0-.09,0-.1,0h-.32l-.14,0-.15,0a1.11,1.11,0,0,0-.19.09l-62.64,36.4.18-.08.16,0,.13,0h.42l.09,0,.1,0,.09,0,.09,0,.09,0,.09,0,.09,0,.08,0h0l.09.06.1.07.1.07.1.07.1.08.1.09.1.09.09.1.1.1.09.09a.76.76,0,0,0,.08.11l.09.1.1.14a1.43,1.43,0,0,1,.14.2c.06.09.12.18.17.27a1.28,1.28,0,0,1,.11.2.83.83,0,0,1,.07.13l.06.12,0,.11a1.17,1.17,0,0,0,0,.11s0,.07,0,.11a.76.76,0,0,1,0,.11.56.56,0,0,1,0,.12.76.76,0,0,1,0,.11s0,.08,0,.12l0,.12,0,.12a.5.5,0,0,0,0,.12s0,.08,0,.12,0,.07,0,.11,0,.07,0,.11,0,.07,0,.11v.21h0v.11a.45.45,0,0,1,0,.11.34.34,0,0,1,0,.1s0,.08,0,.11a.52.52,0,0,0,0,.11l0,.12a.56.56,0,0,0,0,.12l-.06.13a1.09,1.09,0,0,1-.08.15,1.21,1.21,0,0,1-.4.38l62.65-36.4a1,1,0,0,0,.39-.39l.09-.15a.5.5,0,0,0,0-.13.56.56,0,0,0,0-.12l0-.11a.52.52,0,0,0,0-.11.52.52,0,0,0,0-.11s0-.07,0-.11,0-.07,0-.11v-.11h0Z" transform="translate(-311.3 -64.23)" style="fill:#e6e6e6"/><path d="M1081.19,490.51a.41.41,0,0,0,0-.11.41.41,0,0,0,0-.11.41.41,0,0,0,0-.11s0-.08,0-.11a.5.5,0,0,1,0-.12l0-.12,0-.12,0-.12,0-.11s0-.08,0-.12,0-.08,0-.12,0-.07,0-.11l-.05-.11s0-.07,0-.11a1.17,1.17,0,0,1,0-.11l-.06-.12-.07-.13c0-.07-.07-.14-.11-.2l-.17-.27c0-.07-.09-.14-.14-.2l-.1-.14-.09-.1-.09-.11-.09-.09-.09-.1-.1-.1-.09-.09-.11-.09-.1-.08-.1-.07-.09-.07-.1-.07-.1-.06h0l-.07,0-.09-.05-.09,0-.09,0-.1,0-.09,0-.09,0-.09,0h-.43l-.13,0-.15,0-.19.08L1014.68,523l.18-.08.16,0,.13,0h.32l.1,0,.09,0,.1,0,.09,0,.09,0,.09,0,.09,0,.09.05.08,0h0l.09.06.1.06.1.07.1.08.1.08.1.09.1.09.09.1.1.09.08.1.09.1.09.11.1.13.14.21a1.78,1.78,0,0,1,.17.27l.11.19a.91.91,0,0,1,.07.14l.06.12a.54.54,0,0,1,0,.11l.05.11s0,.07,0,.11a.36.36,0,0,1,0,.11.76.76,0,0,1,0,.11.56.56,0,0,1,0,.12l0,.12,0,.12,0,.12a.5.5,0,0,0,0,.12s0,.07,0,.11,0,.08,0,.12a979589652919.38,979589652919.38,0,0,0,0,.22V527h0v.1a.37.37,0,0,1,0,.11.41.41,0,0,1,0,.11s0,.07,0,.11l0,.11a.2.2,0,0,1,0,.11.42.42,0,0,1,0,.12.5.5,0,0,1,0,.13l-.08.16a1.21,1.21,0,0,1-.4.38l62.65-36.41a1.18,1.18,0,0,0,.39-.38l.09-.15s0-.09,0-.13a.56.56,0,0,0,0-.12l0-.12a.36.36,0,0,0,0-.11s0-.07,0-.11,0-.07,0-.1,0-.08,0-.11v-.11h0Z" transform="translate(-311.3 -64.23)" style="fill:#ccc"/><circle cx="702.19" cy="462.74" r="7.18" style="fill:url(#radial-gradient-3)"/><path d="M1013.77,530.64v-.11s0-.07,0-.11,0-.08,0-.11,0-.08,0-.12,0-.07,0-.11,0-.08,0-.12l0-.12,0-.12s0-.08,0-.12l0-.11,0-.12a.49.49,0,0,1,0-.11s0-.07,0-.11l0-.11a.54.54,0,0,1,.05-.11l.06-.12a.83.83,0,0,1,.07-.13,1.28,1.28,0,0,1,.11-.2c0-.09.11-.18.17-.27s.09-.14.14-.21a1.47,1.47,0,0,0,.1-.13l.09-.11.08-.1.09-.1.1-.09.09-.1.1-.09.1-.09.1-.08.1-.08.1-.07.1-.06.09-.06h0l.08,0,.09,0,.09,0,.09,0,.09,0,.09,0,.09,0,.1,0,.1,0h.32l.13,0,.16.05.18.08,62.65,36.41a1.51,1.51,0,0,0-.18-.09l-.16,0-.13,0h-.33l-.1,0-.09,0-.09,0-.09,0-.09,0-.09,0-.1,0-.09,0-.07,0,0,0-.1.06-.09.06-.1.07a180407932258.69,180407932258.69,0,0,0-.2.16l-.1.09-.1.09-.1.09-.09.1-.09.1-.09.1a.76.76,0,0,0-.08.11,1.13,1.13,0,0,0-.1.13l-.15.21c-.06.08-.11.17-.17.26l-.11.2s0,.09-.07.14l-.06.12,0,.11,0,.1,0,.12s0,.07,0,.11,0,.07,0,.11a.56.56,0,0,1,0,.12l0,.12,0,.12,0,.12a.5.5,0,0,0,0,.12.36.36,0,0,0,0,.11.52.52,0,0,0,0,.11,1959179305484.79,1959179305484.79,0,0,1,0,.22s0,.08,0,.11v.11h0v.11a.41.41,0,0,1,0,.11s0,.07,0,.11,0,.07,0,.11,0,.07,0,.11l0,.11s0,.08,0,.12a1.12,1.12,0,0,1,0,.13l.09.15a1.12,1.12,0,0,0,.39.39l-62.64-36.41a1.21,1.21,0,0,1-.4-.38.8.8,0,0,1-.08-.16l-.06-.13a.76.76,0,0,0,0-.11l0-.12a.43.43,0,0,0,0-.11s0-.07,0-.11,0-.07,0-.11v-.21h0Z" transform="translate(-311.3 -64.23)" style="fill:#e6e6e6"/><circle cx="770.56" cy="503.45" r="7.18" style="fill:url(#radial-gradient-4)"/><path d="M1016.78,450.23a1.13,1.13,0,0,1,0,.18.61.61,0,0,1,0,.18,1.42,1.42,0,0,1-.08.18,2.14,2.14,0,0,1-.13.19,1.94,1.94,0,0,1-.2.21,2.09,2.09,0,0,1-.4.3l0,0a3.69,3.69,0,0,1-.7.3,3.1,3.1,0,0,1-.6.15,2.9,2.9,0,0,1-.41.06l-.35,0h-.33l-.32,0-.31,0-.31-.05-.34-.08-.38-.13a3.42,3.42,0,0,1-.47-.23,1.61,1.61,0,0,1-.94-1.31l-.2,72.46a1.59,1.59,0,0,0,.94,1.31,3.25,3.25,0,0,0,.46.22,2.55,2.55,0,0,0,.39.13l.33.08.32.06a3,3,0,0,0,.31,0l.31,0h.33l.35,0,.41-.06a5.26,5.26,0,0,0,.6-.15,3.17,3.17,0,0,0,.7-.31l0,0a2.17,2.17,0,0,0,.41-.3,1.8,1.8,0,0,0,.19-.21,1.62,1.62,0,0,0,.13-.19,1.11,1.11,0,0,0,.09-.19.78.78,0,0,0,0-.18,1.1,1.1,0,0,0,0-.18v0l.21-72.45Z" transform="translate(-311.3 -64.23)" style="fill:#e6e6e6"/><path d="M1085.15,491.43c0,.06,0,.12,0,.19a1.27,1.27,0,0,1-.06.18,1.42,1.42,0,0,1-.08.18,2.14,2.14,0,0,1-.13.19,1.94,1.94,0,0,1-.2.21,2.09,2.09,0,0,1-.4.3l0,0a3.17,3.17,0,0,1-.7.31,5.84,5.84,0,0,1-.6.15l-.41.06-.35,0h-.65l-.31,0-.31-.05-.34-.09a2.43,2.43,0,0,1-.38-.13,3.38,3.38,0,0,1-.47-.22,1.61,1.61,0,0,1-.94-1.31l-.2,72.45a1.59,1.59,0,0,0,.94,1.32,4.91,4.91,0,0,0,.46.22l.39.13.33.08.32.06.31,0,.31,0h.33c.12,0,.24,0,.35,0l.41,0a5.26,5.26,0,0,0,.6-.15,3.45,3.45,0,0,0,.7-.31l0,0a3.64,3.64,0,0,0,.41-.3,1.3,1.3,0,0,0,.19-.22.8.8,0,0,0,.13-.19.76.76,0,0,0,.09-.18,1.21,1.21,0,0,0,.05-.18,1.1,1.1,0,0,0,0-.18v0l.21-72.46Z" transform="translate(-311.3 -64.23)" style="fill:#e6e6e6"/><path d="M1155.38,449.35c0,.07,0,.13,0,.19a1.27,1.27,0,0,1-.06.18,1.42,1.42,0,0,1-.08.18,2.14,2.14,0,0,1-.13.19,1.94,1.94,0,0,1-.2.21,2.09,2.09,0,0,1-.4.3l0,0a3.69,3.69,0,0,1-.7.3,3.1,3.1,0,0,1-.6.15,2.9,2.9,0,0,1-.41.06l-.35,0h-.65l-.31,0-.31-.05-.34-.08-.38-.14a2.52,2.52,0,0,1-.47-.22,1.61,1.61,0,0,1-.94-1.31l-.2,72.45a1.59,1.59,0,0,0,.94,1.32,3.25,3.25,0,0,0,.46.22l.39.13.33.08.32.06.31,0,.31,0h.33l.35,0,.41-.06a5.26,5.26,0,0,0,.6-.15,3,3,0,0,0,.7-.31l0,0a2.72,2.72,0,0,0,.41-.3,1.8,1.8,0,0,0,.19-.21,1.62,1.62,0,0,0,.13-.19.82.82,0,0,0,.09-.19,1.21,1.21,0,0,0,.05-.18,1.1,1.1,0,0,0,0-.18v0l.21-72.45Z" transform="translate(-311.3 -64.23)" style="fill:#e6e6e6"/><path d="M1087,409.16a1.13,1.13,0,0,1,0,.18.61.61,0,0,1,0,.18,1.42,1.42,0,0,1-.08.18,1.27,1.27,0,0,1-.13.19,1.31,1.31,0,0,1-.2.21,2.09,2.09,0,0,1-.4.3l0,0a3.69,3.69,0,0,1-.7.3,3.1,3.1,0,0,1-.6.15,2.9,2.9,0,0,1-.41.06l-.35,0h-.33l-.32,0-.31,0-.31-.05-.34-.08-.38-.13-.47-.22a1.62,1.62,0,0,1-.94-1.32l-.2,72.46a1.59,1.59,0,0,0,.94,1.31,2.43,2.43,0,0,0,.46.22,3,3,0,0,0,.39.13l.33.09.32.05.31,0h.64l.35,0,.41-.06a5.26,5.26,0,0,0,.6-.15,3.17,3.17,0,0,0,.7-.31l0,0a2.17,2.17,0,0,0,.41-.3,1.8,1.8,0,0,0,.19-.21,1.07,1.07,0,0,0,.13-.19,1.51,1.51,0,0,0,.09-.18,1.21,1.21,0,0,0,0-.18,1.37,1.37,0,0,0,0-.19v0l.21-72.45Z" transform="translate(-311.3 -64.23)" style="fill:#ccc"/><circle cx="772.42" cy="343.63" r="7.18" style="fill:url(#radial-gradient-5)"/><path d="M1085.61,412.05v-.11s0-.07,0-.11,0-.08,0-.11,0-.08,0-.12,0-.07,0-.11,0-.08,0-.12l0-.12,0-.12s0-.08,0-.12a.36.36,0,0,1,0-.11.56.56,0,0,1,0-.12.49.49,0,0,1,0-.11s0-.07,0-.11l0-.11a.54.54,0,0,1,0-.11l.06-.12a.83.83,0,0,1,.07-.13,1.28,1.28,0,0,1,.11-.2c0-.09.11-.18.17-.27l.14-.21a1.47,1.47,0,0,0,.1-.13l.09-.11a.39.39,0,0,0,.08-.1l.09-.1.1-.09.09-.1.1-.09.1-.09.1-.08.1-.08.1-.07.1-.06.09-.06h0l.08,0,.09-.05.09,0,.09,0,.09,0a.16.16,0,0,1,.09,0l.09,0,.1,0,.1,0h.32l.13,0,.16.05.18.08,62.65,36.41-.18-.09-.16,0-.13,0h-.33l-.1,0-.09,0-.09,0-.09,0-.09,0-.09,0-.1.05-.09,0-.07,0h0l-.1.06-.09.06-.1.07a115461076672,115461076672,0,0,0-.2.16l-.1.09-.1.09-.1.09-.09.1-.09.1-.09.1a.76.76,0,0,0-.08.11,1.13,1.13,0,0,0-.1.13l-.15.21c-.06.08-.11.17-.17.26a2,2,0,0,1-.11.2l-.07.14-.06.12,0,.11s0,.07,0,.11a1.17,1.17,0,0,0,0,.11.76.76,0,0,1,0,.11s0,.07,0,.11a.56.56,0,0,1,0,.12l0,.12,0,.12,0,.12a.5.5,0,0,0,0,.12.36.36,0,0,0,0,.11.52.52,0,0,0,0,.11s0,.08,0,.11a.45.45,0,0,0,0,.11s0,.08,0,.11v.11h0v.11a.41.41,0,0,1,0,.11s0,.07,0,.11,0,.07,0,.11,0,.07,0,.11l0,.11s0,.08,0,.12a1.12,1.12,0,0,1,0,.13l.09.15a1.12,1.12,0,0,0,.39.39l-62.64-36.41a1.21,1.21,0,0,1-.4-.38.8.8,0,0,1-.08-.16l-.06-.13a.76.76,0,0,0,0-.11l0-.12a.43.43,0,0,0,0-.11s0-.07,0-.11a.37.37,0,0,1,0-.11.34.34,0,0,1,0-.1v-.11h0Z" transform="translate(-311.3 -64.23)" style="fill:#e6e6e6"/><circle cx="840.79" cy="384.33" r="7.18" style="fill:url(#radial-gradient-6)"/><path d="M1149.56,452.68a.41.41,0,0,0,0-.11.41.41,0,0,0,0-.11.41.41,0,0,0,0-.11s0-.08,0-.12a.36.36,0,0,1,0-.11l0-.12a.5.5,0,0,1,0-.12s0-.08,0-.12l0-.12s0-.08,0-.11l0-.12s0-.07,0-.11l0-.11s0-.07,0-.11l-.05-.11-.06-.12-.07-.13c0-.07-.07-.14-.11-.2s-.11-.18-.17-.27-.09-.14-.14-.2l-.1-.14-.09-.11-.09-.1-.09-.1-.09-.09-.09-.1-.1-.09-.11-.09-.1-.08-.1-.08-.09-.07-.1-.06-.1-.06h0l-.07,0-.09-.05-.09,0-.09,0-.09,0-.1,0-.09,0-.09,0-.1,0H1146l-.15.05-.19.08-62.64,36.41a1,1,0,0,1,.18-.09l.16,0,.13,0h.32l.1,0,.09,0,.1,0,.09,0,.09,0,.09,0,.09.05.09.05.08,0h0l.09.06.1.06.1.07.1.08.1.08.1.09.1.09.09.09.1.1.09.1.08.1.09.11.1.13c0,.07.1.14.14.21a2.33,2.33,0,0,1,.17.26l.11.2a.91.91,0,0,1,.07.14l.06.12a.37.37,0,0,1,0,.11,1.17,1.17,0,0,1,0,.11s0,.07,0,.11a64760887050,64760887050,0,0,1,.08.22.56.56,0,0,1,0,.12l0,.12,0,.12,0,.12a.5.5,0,0,0,0,.12s0,.07,0,.11,0,.08,0,.11,0,.08,0,.11,0,.08,0,.12v.21h0v.11a1959179306383,1959179306383,0,0,1,0,.22s0,.07,0,.11a.36.36,0,0,0,0,.11l0,.11a.56.56,0,0,0,0,.12l-.06.13a.71.71,0,0,1-.08.15,1.15,1.15,0,0,1-.4.39l62.65-36.41a1.09,1.09,0,0,0,.39-.38l.09-.16a.61.61,0,0,0,0-.12.56.56,0,0,0,0-.12l0-.12a1015943281920.77,1015943281920.77,0,0,0,0-.22s0-.07,0-.11,0-.07,0-.1v-.11h0Z" transform="translate(-311.3 -64.23)" style="fill:#e6e6e6"/><path d="M1081.19,412a.34.34,0,0,0,0-.1.49.49,0,0,0,0-.12.45.45,0,0,0,0-.11s0-.07,0-.11a.52.52,0,0,1,0-.11l0-.12,0-.12,0-.12,0-.12,0-.12s0-.08,0-.11,0-.08,0-.11a1.17,1.17,0,0,0-.05-.11s0-.08,0-.11a1.17,1.17,0,0,0,0-.11l-.06-.12s0-.09-.07-.14-.07-.13-.11-.2-.11-.18-.17-.26l-.14-.21a1.13,1.13,0,0,1-.1-.13l-.09-.11-.09-.1-.09-.1-.09-.1-.1-.09-.09-.09-.11-.09a.39.39,0,0,0-.1-.08l-.1-.08-.09-.07-.1-.06-.1-.06h0l-.07,0-.09-.05-.09-.05-.09,0-.1,0-.09,0-.09,0-.09,0-.1,0h-.33l-.13,0-.15,0a1.11,1.11,0,0,0-.19.09l-62.64,36.4.18-.08.16,0,.13,0h.42l.09,0,.1,0,.09,0,.09,0,.09,0,.09,0,.09,0,.08,0h0l.09.06.1.07.1.07.1.07a.39.39,0,0,0,.1.08l.1.09a.94.94,0,0,1,.1.1l.09.09.1.1.08.09.09.11.09.11a1.47,1.47,0,0,1,.1.13,1.43,1.43,0,0,1,.14.2c.06.09.12.18.17.27a2,2,0,0,1,.11.2.83.83,0,0,1,.07.13l.06.12,0,.11a1.17,1.17,0,0,0,.05.11s0,.07,0,.11a.76.76,0,0,1,0,.11,154531602515.78,154531602515.78,0,0,1,.08.24s0,.08,0,.11l0,.13,0,.11a.5.5,0,0,0,0,.12s0,.08,0,.12,0,.07,0,.11a.41.41,0,0,0,0,.11.41.41,0,0,0,0,.11v.21h0v.11a.45.45,0,0,1,0,.11.34.34,0,0,1,0,.1s0,.08,0,.11l0,.11a.27.27,0,0,1,0,.12.56.56,0,0,1,0,.12,1.12,1.12,0,0,1,0,.13l-.08.15a1.21,1.21,0,0,1-.4.38l62.65-36.4a1.12,1.12,0,0,0,.39-.39s.06-.1.09-.15,0-.08,0-.13a.56.56,0,0,0,0-.12l0-.11a.52.52,0,0,0,0-.11s0-.08,0-.11,0-.07,0-.11,0-.07,0-.11v-.11h0Z" transform="translate(-311.3 -64.23)" style="fill:#e6e6e6"/><circle cx="702.19" cy="384.21" r="7.18" style="fill:url(#radial-gradient-7)"/><path d="M1013.77,452.1V452s0-.07,0-.11,0-.07,0-.11,0-.07,0-.11,0-.08,0-.12,0-.08,0-.11l0-.12,0-.12s0-.08,0-.12l0-.12,0-.12a.76.76,0,0,1,0-.11s0-.07,0-.11l0-.1a.37.37,0,0,1,.05-.11l.06-.12a.91.91,0,0,1,.07-.14,2,2,0,0,1,.11-.2c0-.09.11-.18.17-.27a2.43,2.43,0,0,1,.14-.2,1.47,1.47,0,0,1,.1-.13l.09-.11.08-.1.09-.1a.94.94,0,0,1,.1-.1l.09-.09.1-.1.1-.08.1-.09.1-.07.1-.07.1-.07.09-.05,0,0,.08,0,.09,0,.09,0,.09,0,.09,0,.09,0,.09,0,.1,0h.42l.13,0,.16,0,.18.09,62.65,36.4-.18-.08-.16,0-.13,0h-.33l-.1,0-.09,0-.09,0-.09,0-.09,0-.09,0-.1,0-.09.05-.07,0h0l-.1.06-.09.06-.1.07-.1.08-.1.08-.1.09-.1.09-.1.1-.09.09-.09.1-.09.1-.08.11-.1.13-.15.21-.17.27c0,.06-.07.13-.11.2l-.07.13-.06.12a.54.54,0,0,1,0,.11s0,.07,0,.11l0,.11s0,.07,0,.11,0,.08,0,.12a.76.76,0,0,1,0,.11l0,.12,0,.12,0,.12a.5.5,0,0,0,0,.12.52.52,0,0,0,0,.11.5.5,0,0,0,0,.12.37.37,0,0,0,0,.11.41.41,0,0,0,0,.11s0,.07,0,.11v.1h0v.11a.34.34,0,0,1,0,.1s0,.08,0,.11,0,.07,0,.11,0,.07,0,.11l0,.12s0,.08,0,.12a.61.61,0,0,1,0,.12l.09.16a1.18,1.18,0,0,0,.39.38l-62.64-36.4a1.15,1.15,0,0,1-.4-.39,1.09,1.09,0,0,1-.08-.15l-.06-.13a.56.56,0,0,0,0-.12l0-.12a.52.52,0,0,0,0-.11s0-.07,0-.1,0-.08,0-.11v-.22h0Z" transform="translate(-311.3 -64.23)" style="fill:#e6e6e6"/><circle cx="770.56" cy="424.91" r="7.18" style="fill:url(#radial-gradient-8)"/></g></svg>